<svg xmlns="http://www.w3.org/2000/svg" width="180" height="40" viewBox="0 0 180 40"><path d="m47.49,5.68H3.05c-1.68,0-3.05,1.3-3.05,2.91v4.4c0,1,.75,1.85,1.79,2.03h.02c3.1.64,5.14,2.86,5.14,5.82s-2.04,5.17-5.14,5.82h-.07C.73,26.83,0,27.66,0,28.63v4.39c0,1.61,1.37,2.91,3.05,2.91h44.44c1.68,0,3.05-1.3,3.05-2.91V8.59c0-1.61-1.37-2.91-3.05-2.91h0Z" fill="#698ca5"/><path d="m46.11,4.08H2.96c-1.64,0-2.96,1.3-2.96,2.9v4.38c0,1,.73,1.85,1.73,2.02h.02c3.01.64,4.99,2.85,4.99,5.81s-1.98,5.16-4.99,5.8h-.07C.71,25.18,0,26,0,26.97v4.38c0,1.6,1.33,2.9,2.96,2.9h43.15c1.64,0,2.96-1.3,2.96-2.9V6.98c0-1.6-1.33-2.9-2.96-2.9h0Z" fill="#ff6100"/><path d="m15.96,9.18c0-.48-.39-.86-.88-.86s-.88.39-.88.86v3.67c0,.48.39.86.88.86s.88-.39.88-.86v-3.67Z" fill="#fff"/><path d="m15.96,17.33c0-.48-.39-.86-.88-.86s-.88.39-.88.86v3.67c0,.48.39.86.88.86s.88-.39.88-.86v-3.67Z" fill="#fff"/><path d="m15.96,25.42c0-.48-.39-.86-.88-.86s-.88.39-.88.86v3.67c0,.48.39.86.88.86s.88-.39.88-.86v-3.67Z" fill="#fff"/><path d="m81.57,6.7c0,.29-.02.54-.05.76-.03.21-.08.39-.15.52-.07.13-.16.23-.26.29-.1.06-.22.09-.34.09h-8.55v25.79c0,.12-.03.23-.09.32-.06.09-.17.17-.33.22-.16.05-.36.1-.62.14-.26.04-.58.06-.97.06s-.7-.02-.96-.06c-.27-.04-.48-.08-.63-.14-.16-.05-.27-.13-.33-.22-.06-.09-.09-.2-.09-.32V8.35h-8.55c-.12,0-.24-.03-.34-.09s-.18-.16-.25-.29c-.06-.13-.11-.3-.15-.52-.04-.21-.06-.47-.06-.76s.02-.55.06-.77c.04-.22.09-.4.15-.54.06-.14.15-.24.25-.3.1-.06.22-.09.34-.09h21.13c.12,0,.24.03.34.09.1.06.19.16.26.3.07.14.12.32.15.54.03.22.05.48.05.77h0Z" fill="#20415b"/><path d="m89.84,7.18c0,.87-.17,1.46-.52,1.77-.35.31-.98.47-1.9.47s-1.53-.15-1.87-.46c-.34-.31-.5-.88-.5-1.74s.17-1.46.52-1.77c.35-.31.98-.47,1.9-.47s1.53.15,1.87.46c.34.31.5.88.5,1.74Zm-.45,26.99c0,.12-.03.22-.09.3-.06.08-.16.15-.31.21-.14.06-.34.1-.59.13-.25.03-.57.05-.96.05s-.69-.02-.94-.05c-.25-.03-.45-.07-.6-.13-.15-.06-.25-.13-.31-.21-.05-.08-.08-.18-.08-.3V14c0-.1.03-.2.08-.29.05-.09.16-.17.31-.22.15-.06.35-.1.6-.13.25-.03.56-.05.94-.05s.71.02.96.05c.25.03.45.07.59.13.14.06.24.13.31.22.06.09.09.19.09.29v20.18Z" fill="#20415b"/><path d="m112.56,33.72c.12.21.19.39.19.54s-.08.26-.22.36c-.15.09-.38.16-.68.2-.31.04-.7.06-1.19.06s-.84-.01-1.12-.04c-.28-.02-.49-.06-.66-.11-.16-.05-.29-.12-.38-.21-.09-.08-.16-.18-.22-.29l-5.07-8.21-5.05,8.21c-.06.11-.14.2-.22.29-.09.08-.21.15-.38.21-.17.05-.38.09-.65.11-.27.02-.62.04-1.06.04s-.83-.02-1.12-.06c-.29-.04-.5-.1-.63-.2s-.19-.21-.19-.36c0-.14.08-.33.22-.54l6.57-10.09-6.22-9.72c-.12-.21-.19-.39-.2-.54,0-.14.06-.27.21-.37.15-.1.38-.17.68-.2.31-.03.71-.05,1.21-.05.45,0,.82.01,1.09.04.27.02.49.06.65.1.16.05.27.11.35.18.08.08.15.17.21.28l4.81,7.7,4.88-7.7c.06-.09.13-.18.21-.25.08-.08.18-.14.32-.2.13-.05.32-.09.56-.11.24-.02.58-.04,1-.04.45,0,.83.02,1.12.05.29.03.5.09.65.17.14.08.2.2.19.36-.02.15-.09.35-.23.57l-6.17,9.61,6.53,10.21h0Z" fill="#20415b"/><path d="m154.45,34c0,.12-.03.23-.1.32-.06.09-.18.17-.34.22-.16.05-.37.1-.61.14-.25.04-.57.06-.97.06-.37,0-.69-.02-.95-.06-.27-.04-.47-.08-.63-.14-.15-.05-.26-.12-.32-.22-.07-.09-.1-.2-.1-.32V8.21h-.05l-10.66,25.9c-.05.11-.11.2-.2.27-.09.08-.21.14-.37.19-.16.05-.36.09-.58.11-.23.02-.5.03-.8.03-.33,0-.61-.02-.84-.05-.23-.03-.43-.07-.58-.12-.16-.05-.28-.12-.36-.19-.09-.08-.14-.16-.17-.25l-10.19-25.9h-.02v25.78c0,.12-.03.23-.1.32-.07.09-.18.17-.34.22-.16.05-.37.1-.63.14-.26.04-.59.06-.99.06s-.71-.02-.96-.06c-.26-.04-.46-.08-.61-.14-.15-.05-.26-.12-.31-.22-.06-.09-.08-.2-.08-.32V6.77c0-.64.17-1.1.52-1.37.35-.27.74-.41,1.16-.41h2.47c.51,0,.95.05,1.33.14.38.09.71.24,1,.43.29.2.52.45.71.75.19.31.36.66.5,1.08l8.65,21.44h.12l9-21.37c.17-.46.36-.85.57-1.17.21-.32.43-.57.68-.77.24-.19.52-.33.82-.41.3-.08.65-.12,1.04-.12h2.59c.24,0,.46.03.68.1.22.07.4.18.55.32.15.14.27.33.37.55.1.22.14.49.14.81v27.22h0Z" fill="#20415b"/><path d="m179.99,22.83c0,.59-.15,1.02-.46,1.27-.31.25-.65.38-1.04.38h-13.85c0,1.14.12,2.17.35,3.09.23.92.63,1.7,1.17,2.36.55.66,1.26,1.16,2.14,1.51.88.35,1.95.53,3.22.53,1,0,1.89-.08,2.68-.24.78-.16,1.46-.34,2.03-.54.57-.2,1.04-.38,1.41-.54.37-.16.65-.24.83-.24.11,0,.21.03.29.08.09.05.15.13.2.24.05.11.08.26.11.44.02.19.04.42.04.7,0,.2,0,.37-.02.51-.02.14-.03.27-.06.39-.02.11-.06.22-.12.31s-.12.18-.21.26c-.09.08-.34.22-.76.41-.42.19-.97.38-1.64.56s-1.45.35-2.32.49c-.88.14-1.82.22-2.81.22-1.73,0-3.25-.24-4.54-.71-1.3-.47-2.39-1.17-3.28-2.1-.89-.93-1.56-2.1-2.01-3.5-.45-1.4-.68-3.03-.68-4.9s.23-3.36.7-4.77c.47-1.41,1.14-2.61,2.02-3.59.88-.98,1.94-1.74,3.19-2.26,1.25-.53,2.64-.79,4.18-.79,1.65,0,3.06.26,4.22.78,1.16.52,2.11,1.22,2.86,2.09.75.88,1.3,1.91,1.65,3.09.35,1.18.52,2.45.52,3.78v.69h0Zm-3.88-1.12c.05-1.98-.41-3.54-1.35-4.67-.95-1.13-2.36-1.69-4.22-1.69-.96,0-1.79.18-2.52.53-.72.35-1.32.82-1.81,1.4-.49.58-.86,1.26-1.13,2.02-.27.77-.42,1.58-.45,2.41h11.47Z" fill="#20415b"/></svg>