<svg xmlns="http://www.w3.org/2000/svg" width="380" height="373" fill="none"><path fill="#E6F7FE" d="M158.6 359.04C64.33 344.78-12.28 255.74 1.64 156.77 13.51 72.37 87.59 6.68 176.41.48a197.3 197.3 0 0 1 19.5-.4 194.2 194.2 0 0 1 126.15 51.2c32.41 29.82 53.47 69.7 57.3 111.54 10.21 111.33-103.51 213.96-220.76 196.22Z"/><path fill="#FFCF1B" d="M236.96 152.25c-1.36.12-2.65.26-3.83.38-3.67.35-11.7 2.58-14.47-1.07-4.56-6.02 7.04-16.22 9.96-20.8 3.6-5.67 8.09-11.98 8.81-18.86 1.1-10.47-6.07-24.63-14.93-30.1-12.22-7.54-29.3-2.41-40.28 5-15.9 10.72-27.08 28.41-31.62 46.9-4.89 19.91 1.86 40.53-.08 60.72-3.03 31.73-48.05-8.7-39.25 74.74 1.94 18.42 5.1 38.57 15.47 54.36 4.3 6.55 12.88 15.65 21.44 15.12 12.14-.74 11.6-17.9 15.36-25.81 4.4-9.26 12.08-16.57 20.62-22.04 10.85-6.96 23.43-13.19 27.75-26.32 2.8-8.53-1.42-17.32-6.81-23.96-2.97-3.65-9.31-7.83-8.36-13.22.79-4.47 7.07-7.76 10.35-10.11 10.08-7.25 19.89-15.06 28.85-23.66 8.05-7.71 21.66-19.42 20.56-31.95-.9-10.1-11.33-10.05-19.54-9.32Z"/><mask id="a" width="147" height="261" x="110" y="78" maskUnits="userSpaceOnUse" style="mask-type:luminance"><path fill="#fff" d="M236.96 152.25c-1.36.12-2.65.26-3.83.38-3.67.35-11.7 2.58-14.47-1.07-4.56-6.02 7.04-16.22 9.96-20.8 3.6-5.67 8.09-11.98 8.81-18.86 1.1-10.47-6.07-24.63-14.93-30.1-12.22-7.54-29.3-2.41-40.28 5-15.9 10.72-27.08 28.41-31.62 46.9-4.89 19.91 1.86 40.53-.08 60.72-3.03 31.73-48.05-8.7-39.25 74.74 1.94 18.42 5.1 38.57 15.47 54.36 4.3 6.55 12.88 15.65 21.44 15.12 12.14-.74 11.6-17.9 15.36-25.81 4.4-9.26 12.08-16.57 20.62-22.04 10.85-6.96 23.43-13.19 27.75-26.32 2.8-8.53-1.42-17.32-6.81-23.96-2.97-3.65-9.31-7.83-8.36-13.22.79-4.47 7.07-7.76 10.35-10.11 10.08-7.25 19.89-15.06 28.85-23.66 8.05-7.71 21.66-19.42 20.56-31.95-.9-10.1-11.33-10.05-19.54-9.32Z"/></mask><g fill="#fff" mask="url(#a)" opacity=".8"><path d="M172.27 360.44a.62.62 0 0 1-.36-.11c-20.72-14.79-30.47-37.36-29.8-69 .57-27.6 8.67-57.54 16.5-86.5 6.16-22.8 11.99-44.33 13.05-61.63.84-13.85 4.8-26.43 11.77-37.36 5.57-8.74 13.06-16.46 22.26-22.94 15.64-11.02 31.06-14.67 31.2-14.7a.62.62 0 1 1 .29 1.2c-.15.03-15.37 3.64-30.82 14.53-14.23 10.03-31.58 28.46-33.48 59.35-1.06 17.42-6.9 39.02-13.08 61.88-15.41 56.97-32.88 121.55 12.83 154.17a.61.61 0 0 1-.36 1.11Z"/><path d="M172.76 138.53a.62.62 0 0 1-.19-.03c-.16-.06-4.1-1.37-8.42-6.5-3.94-4.67-8.94-13.56-10.44-29.4a.62.62 0 1 1 1.23-.12c1.46 15.46 6.29 24.11 10.08 28.65 4.1 4.9 7.9 6.18 7.93 6.2a.62.62 0 0 1-.19 1.2Zm-6.16 38.67a.62.62 0 0 1-.07-1.23c.1-.01 10.68-1.15 24.53-7.25a108.02 108.02 0 0 0 45.47-37.81.62.62 0 0 1 1.01.7 109.26 109.26 0 0 1-46.03 38.26c-14.02 6.17-24.74 7.31-24.85 7.32h-.06Zm-22.23 94.36a.61.61 0 0 1-.21-.04c-.43-.15-10.6-3.81-19-14.09a46.56 46.56 0 0 1-9.72-20.99c-1.88-9.84-1.02-21 2.57-33.16a.62.62 0 0 1 1.18.35c-7.98 27.04-.66 43.74 6.88 52.98a47.16 47.16 0 0 0 18.5 13.75.62.62 0 0 1-.2 1.2Zm3.58-20.77a.62.62 0 0 1-.08-1.22c.49-.07 49.39-6.7 61.37-25.19a.62.62 0 1 1 1.03.67c-5.17 7.98-17.24 14.74-35.85 20.09a205.41 205.41 0 0 1-26.47 5.65Z"/></g><path fill="url(#b)" d="M304.26 181.5c-4.24-15.3-17.69-26.88-33.07-30.87-9.37-2.44-20.8-3.26-30.35-1.6-13.44 2.34-24.53 11.1-33.18 21.24-10.15 11.92-11.1 26.7-14.73 41.38-.72 2.88-5.41 18.72-8.97 9.44-4.96-12.95-16.01-10.67-16.02-10.67-8.65 1.79-15.3 8.14-18.5 16.12-8.54 21.34-5.9 49.05-4.1 71.4a465.4 465.4 0 0 0 3.73 31.42 6.66 6.66 0 0 0 11.65 3.34 85.74 85.74 0 0 1 5.32-5.61c16.47-16 42.24-18.37 63.99-19.33 12.7-.56 23.16-1.37 34.22-8.18 4.6-2.83 9.6-6.3 11.72-11.47 1.93-4.68 2.3-12.7-.6-17.05-3.61-5.42-11.64-5.08-16.43-9.07-7.72-6.45 12.48-10.94 16.55-12.24 6.5-2.09 10.8-7.26 15.65-11.74 3.72-3.42 7.2-7.15 9.9-11.44 8.23-13.1 7.22-30.68 3.22-45.08Z"/><mask id="c" width="165" height="188" x="143" y="148" maskUnits="userSpaceOnUse" style="mask-type:luminance"><path fill="#fff" d="M304.26 181.5c-4.24-15.3-17.69-26.88-33.07-30.87-9.37-2.44-20.8-3.26-30.35-1.6-13.44 2.34-24.53 11.1-33.18 21.24-10.15 11.92-11.1 26.7-14.73 41.38-.72 2.88-5.41 18.72-8.97 9.44-4.96-12.95-16.01-10.67-16.02-10.67-8.65 1.79-15.3 8.14-18.5 16.12-8.54 21.34-5.9 49.05-4.1 71.4a465.4 465.4 0 0 0 3.73 31.42 6.66 6.66 0 0 0 11.65 3.34 85.74 85.74 0 0 1 5.32-5.61c16.47-16 42.24-18.37 63.99-19.33 12.7-.56 23.16-1.37 34.22-8.18 4.6-2.83 9.6-6.3 11.72-11.47 1.93-4.68 2.3-12.7-.6-17.05-3.61-5.42-11.64-5.08-16.43-9.07-7.72-6.45 12.48-10.94 16.55-12.24 6.5-2.09 10.8-7.26 15.65-11.74 3.72-3.42 7.2-7.15 9.9-11.44 8.23-13.1 7.22-30.68 3.22-45.08Z"/></mask><g fill="#fff" mask="url(#c)" opacity=".8"><path d="M146.52 340.26a.61.61 0 0 1-.56-.88c.2-.42 20.59-43.45 48.72-87.55 16.53-25.9 32.46-47.12 47.36-63.04 18.67-19.96 35.79-31.64 50.86-34.7a.61.61 0 1 1 .25 1.2c-14.82 3.02-31.71 14.57-50.21 34.34-14.84 15.87-30.73 37.02-47.22 62.87a895.89 895.89 0 0 0-48.64 87.41.62.62 0 0 1-.56.35Z"/><path d="M219.77 217.14h-.1a.61.61 0 0 1-.5-.71c.09-.58 9.16-58.14.15-67.85a.61.61 0 1 1 .9-.84c9.42 10.15.54 66.49.16 68.88a.62.62 0 0 1-.6.52Zm107.71-29.8a.62.62 0 0 1-.33-.1c-24.16-15.08-74.42-7.2-74.93-7.12a.62.62 0 1 1-.2-1.21c.13-.03 12.91-2.06 28.54-2.17 14.45-.12 34.4 1.44 47.24 9.46a.61.61 0 0 1-.32 1.14ZM166.8 300.97a.62.62 0 0 1-.6-.75c6.6-28.47-18.13-69.98-18.38-70.4a.61.61 0 1 1 1.05-.63c.07.1 6.39 10.66 11.8 24.63 5 12.93 10.24 31.52 6.73 46.67a.62.62 0 0 1-.6.48Zm20.44-35.43a.62.62 0 0 1-.2-1.2c.23-.07 22.4-7.34 49.27-12.6 24.84-4.87 58.88-8.97 80.02-.87a.62.62 0 1 1-.44 1.15c-20.86-8-54.66-3.9-79.34.93a459.09 459.09 0 0 0-49.12 12.56.62.62 0 0 1-.19.03Z"/></g><path fill="url(#d)" d="m40.52 85.62 14.76-.99.77 15.66H31.73l5.3-12a4.56 4.56 0 0 1 3.5-2.67Z"/><path fill="url(#e)" d="M53.09 86.54a3.4 3.4 0 0 1 3.25-2.03l121.75 4.88c1.62.06 3.08.98 3.84 2.42l6.58 12.38-140.87-5.2 5.45-12.45Z"/><path fill="#0270CA" d="M9.11 108.55v235.03c0 5.2 3.58 9.72 8.65 10.92l25.48 6.05 27.91-191.9-27.1-74.46-25.13 3.22c-5.6.72-9.8 5.49-9.8 11.14Z"/><path fill="url(#f)" d="M36.13 103.97v246.65c0 5.68 4.82 10.17 11.92 13.01l151.52-10.98c3.7-3.63 7.65-7.88 7.65-13.01V110.62a9.78 9.78 0 0 0-9.36-9.77L46.35 94.2a9.79 9.79 0 0 0-10.23 9.77Z"/><path fill="url(#g)" d="M24.64 348.26v-242.2c0-4.2 3.16-8.45 7.1-10.3l-4.5.58a10.36 10.36 0 0 0-6.8 9.72v242.2c0 3.01 1.3 5.78 3.42 7.69l6.4 1.52a10.36 10.36 0 0 1-5.62-9.21Z"/><path fill="url(#h)" d="M197.86 100.86 71.17 95.28c.04 1.5.14 3.04.33 4.6 3.4 28.34 29.84 32.86 40.01 64.42 9.33 28.92-9.43 35.79 1.6 61.22 10.34 23.83 29.64 24.33 41.22 54.42 5.08 13.2 2.52 16.1 6.8 30 3.67 11.9 10.54 25.95 23.88 40.61l13.13-.95a9.79 9.79 0 0 0 9.08-9.76V110.63a9.79 9.79 0 0 0-9.36-9.77Z" opacity=".5"/><path fill="url(#i)" d="M59.45 129.36v66.7a8.58 8.58 0 0 0 8.58 8.57h111.9a8.58 8.58 0 0 0 8.58-8.57v-61.5c0-4.58-3.6-8.35-8.18-8.57l-111.9-5.2a8.58 8.58 0 0 0-8.98 8.57Z"/><path fill="#E6F7FE" d="M184.63 196.06v-61.5c0-4.58-3.6-8.35-8.18-8.57l-109.78-5.1a8.58 8.58 0 0 0-7.22 8.47v66.7a8.58 8.58 0 0 0 8.58 8.57h108.02a8.58 8.58 0 0 0 8.58-8.57Z"/><path fill="#F4F7FA" d="M144.89 135.13v4.02a3.24 3.24 0 0 0 3.12 3.23l26.34.96a3.23 3.23 0 0 0 3.35-3.23v-4.02a3.23 3.23 0 0 0-3.12-3.23l-26.34-.97a3.23 3.23 0 0 0-3.35 3.24Z" opacity=".7"/><path fill="url(#j)" d="M197.31 113.08c0 2.27-1.57 4.1-3.5 4.1s-3.5-1.84-3.5-4.1 1.57-4.1 3.5-4.1 3.5 1.84 3.5 4.1Z"/><path fill="#173044" d="m145.26 266.52-.13-9.95a6.28 6.28 0 0 0-6.37-6.19l-27.14.36a6.28 6.28 0 0 0-6.2 6.36l.14 10.35a6.28 6.28 0 0 0 6.46 6.2l27.14-.78a6.28 6.28 0 0 0 6.1-6.35Zm-40.24-39.64.17 12.87a6.28 6.28 0 0 0 6.37 6.2l27.14-.37a6.28 6.28 0 0 0 6.2-6.36l-.17-12.5a6.28 6.28 0 0 0-6.28-6.2H111.3a6.28 6.28 0 0 0-6.28 6.36Zm45.04 39.31a6.28 6.28 0 0 0 6.46 6.19l27.69-.79a4.37 4.37 0 0 0 4.25-4.35l.05-11.16c0-3.5-2.87-6.32-6.37-6.27l-26.01.34a6.28 6.28 0 0 0-6.2 6.36l.13 9.68Zm-44.27 18.61.14 10.35a6.28 6.28 0 0 0 6.55 6.19l27.13-1.19a6.28 6.28 0 0 0 6.01-6.35l-.13-9.93a6.28 6.28 0 0 0-6.46-6.2l-27.14.78a6.28 6.28 0 0 0-6.1 6.36Zm-46.34-16.12a6.28 6.28 0 0 0 6.46 6.28l28.75-.82a6.28 6.28 0 0 0 6.1-6.36l-.14-10.62a6.28 6.28 0 0 0-6.36-6.19l-30.04.4a4.81 4.81 0 0 0-4.75 4.8l-.02 12.51Zm86.57 54.97-.17-12.5a6.28 6.28 0 0 0-6.55-6.18l-27.13 1.18a6.28 6.28 0 0 0-6 6.36l.16 13.01a6.28 6.28 0 0 0 6.68 6.18l27.12-1.7c3.34-.2 5.94-3 5.89-6.35Z"/><path fill="url(#k)" d="M101.36 313.1a6.28 6.28 0 0 0-6.55-6.2l-30.67 1.35a4.82 4.82 0 0 0-4.61 4.78l-.08 15.35a6.28 6.28 0 0 0 6.68 6.26l29.52-1.85c3.35-.2 5.94-3 5.9-6.35l-.19-13.34Z"/><path fill="#173044" d="m100.4 239.81-.18-13.1a6.28 6.28 0 0 0-6.29-6.19h-28.2a6.28 6.28 0 0 0-6.28 6.28v13.47c0 3.5 2.86 6.33 6.37 6.28l28.37-.38a6.28 6.28 0 0 0 6.2-6.36Zm50.25 70.75.16 12.17a6.28 6.28 0 0 0 6.68 6.18l25.13-1.58a6.28 6.28 0 0 0 5.89-6.26v-11.7a6.28 6.28 0 0 0-6.56-6.26l-25.3 1.1a6.28 6.28 0 0 0-6 6.35Zm37.85-27.83a6.28 6.28 0 0 0-6.45-6.28l-25.66.73a6.28 6.28 0 0 0-6.1 6.36l.13 9.67a6.28 6.28 0 0 0 6.56 6.18l27.27-1.19c2.33-.1 4.17-2 4.19-4.33l.07-11.14Zm-38.8-43.57a6.28 6.28 0 0 0 6.37 6.2l28.1-.38a4.37 4.37 0 0 0 4.32-4.36l.02-13.82a6.28 6.28 0 0 0-6.29-6.28h-26.4a6.28 6.28 0 0 0-6.28 6.36l.16 12.28ZM101 285.13a6.28 6.28 0 0 0-6.47-6.19l-30.35.87a4.82 4.82 0 0 0-4.68 4.79l-.05 12.5a6.28 6.28 0 0 0 6.56 6.26l29.12-1.27a6.28 6.28 0 0 0 6-6.35l-.14-10.6Z"/><path fill="#20415B" d="m147.37 266.67-.13-9.94a6.28 6.28 0 0 0-6.37-6.2l-27.14.36a6.28 6.28 0 0 0-6.2 6.36l.14 10.36a6.28 6.28 0 0 0 6.46 6.19l27.13-.77a6.28 6.28 0 0 0 6.1-6.36Zm-40.24-39.63.17 12.86a6.28 6.28 0 0 0 6.37 6.2l27.14-.36a6.28 6.28 0 0 0 6.2-6.36l-.17-12.51a6.28 6.28 0 0 0-6.28-6.2H113.4a6.28 6.28 0 0 0-6.28 6.37Z"/><path fill="url(#l)" d="M152.16 266.34a6.28 6.28 0 0 0 6.47 6.2l27.69-.8a4.37 4.37 0 0 0 4.25-4.35l.04-11.16c0-3.5-2.86-6.32-6.36-6.27l-26.01.34a6.28 6.28 0 0 0-6.2 6.36l.13 9.68Z"/><path fill="#20415B" d="m107.9 284.96.14 10.34a6.28 6.28 0 0 0 6.55 6.19l27.13-1.19a6.28 6.28 0 0 0 6.01-6.35l-.13-9.93a6.28 6.28 0 0 0-6.46-6.2l-27.14.78a6.28 6.28 0 0 0-6.1 6.36Zm-46.34-16.12a6.28 6.28 0 0 0 6.46 6.27l28.75-.82a6.28 6.28 0 0 0 6.1-6.36l-.14-10.62a6.28 6.28 0 0 0-6.36-6.19l-30.04.4a4.81 4.81 0 0 0-4.75 4.8l-.02 12.52Zm86.57 54.96-.17-12.5a6.28 6.28 0 0 0-6.55-6.18l-27.13 1.18a6.28 6.28 0 0 0-6.01 6.36l.17 13.01a6.28 6.28 0 0 0 6.68 6.18l27.12-1.7c3.34-.2 5.93-3 5.89-6.34Zm-44.66-10.55a6.28 6.28 0 0 0-6.55-6.19l-30.67 1.34a4.81 4.81 0 0 0-4.61 4.78l-.08 15.35c0 3.62 3.06 6.5 6.68 6.27l29.52-1.86c3.35-.2 5.94-3 5.9-6.34l-.19-13.35Zm-.97-73.28-.17-13.1a6.28 6.28 0 0 0-6.29-6.2h-28.2a6.28 6.28 0 0 0-6.28 6.28v13.48c0 3.5 2.86 6.32 6.37 6.27l28.37-.38a6.28 6.28 0 0 0 6.2-6.35Zm50.26 70.75.16 12.16a6.28 6.28 0 0 0 6.68 6.18l25.13-1.57a6.28 6.28 0 0 0 5.89-6.27v-11.7a6.28 6.28 0 0 0-6.56-6.26l-25.3 1.1a6.28 6.28 0 0 0-6 6.36Zm37.86-27.84a6.28 6.28 0 0 0-6.47-6.27l-25.65.72a6.28 6.28 0 0 0-6.1 6.36l.13 9.67a6.28 6.28 0 0 0 6.55 6.19l27.28-1.2c2.33-.1 4.17-2 4.19-4.33l.07-11.14Z"/><path fill="url(#m)" d="M151.8 239.31a6.28 6.28 0 0 0 6.37 6.2l28.11-.38a4.37 4.37 0 0 0 4.32-4.36l.02-13.82a6.28 6.28 0 0 0-6.29-6.27h-26.4a6.28 6.28 0 0 0-6.28 6.36l.16 12.27Z"/><path fill="#20415B" d="M103.1 285.29a6.28 6.28 0 0 0-6.46-6.2l-30.35.87a4.81 4.81 0 0 0-4.68 4.79l-.05 12.5a6.28 6.28 0 0 0 6.56 6.27l29.12-1.27a6.28 6.28 0 0 0 6-6.36l-.14-10.6Z"/><g opacity=".3"><path fill="#E6F7FE" d="M184.34 220.68h-26.4a6.28 6.28 0 0 0-6.3 6.36l.17 12.27a6.28 6.28 0 0 0 6.37 6.2l28.1-.38a4.37 4.37 0 0 0 4.32-4.36l.02-13.82a6.28 6.28 0 0 0-6.28-6.27Zm-.09 29.28-26 .34a6.28 6.28 0 0 0-6.2 6.36l.12 9.68a6.28 6.28 0 0 0 6.46 6.2l27.7-.8a4.36 4.36 0 0 0 4.24-4.35l.05-11.16c0-3.5-2.86-6.32-6.37-6.27Z"/><path fill="#F4F7FA" d="M190.62 321.22v-11.7a6.28 6.28 0 0 0-6.56-6.26l-24.4 1.06c.38 1.63.85 3.42 1.48 5.45a97.8 97.8 0 0 0 8 18.7l15.6-.98a6.28 6.28 0 0 0 5.88-6.27Zm-31.9-21.68h.37l27.27-1.19c2.33-.1 4.17-2 4.19-4.33l.07-11.14a6.28 6.28 0 0 0-6.46-6.27l-25.66.72a6.26 6.26 0 0 0-4.37 1.95l.2.51c3.54 9.18 3.38 13.37 4.39 19.75Zm-17.84-49.01-7.22.1c4.7 4.26 9.42 8.88 13.7 15.4l-.12-9.3a6.28 6.28 0 0 0-6.36-6.2Z"/><path fill="#E6F7FE" d="m147.01 239.38-.17-12.51a6.28 6.28 0 0 0-6.28-6.2h-27.14c-.7 0-1.36.12-1.99.33a50.67 50.67 0 0 0 1.69 4.42c4.06 9.36 9.5 15.11 15.32 20.48l12.37-.16a6.28 6.28 0 0 0 6.2-6.36Z"/></g><rect width="55" height="7" x="94.24" y="182.52" fill="#FF3100" rx="3.5" transform="rotate(-45 94.24 182.52)"/><rect width="55" height="7" x="99.19" y="143.63" fill="#FF3100" rx="3.5" transform="rotate(45 99.19 143.63)"/><path fill="#fff" d="M179.93 204.63a8.58 8.58 0 0 0 8.58-8.57v-61.5c0-4.58-3.6-8.35-8.18-8.57l-99.83-4.63c9.6 12.47 24.08 21.41 31.02 42.9 6.2 19.22-.03 28.7-1.64 40.37h70.05Z" opacity=".4"/><path fill="#0270CA" d="M183.16 115.6v.23a3.65 3.65 0 0 1-3.86 3.59l-110.77-4.76a3.81 3.81 0 0 1-3.58-3.79v-.23a3.4 3.4 0 0 1 3.52-3.5l110.84 4.55a4.02 4.02 0 0 1 3.85 3.9Z"/><path fill="#20415B" d="M180.43 115.5v.23a3.52 3.52 0 0 1-3.7 3.58L68.5 114.66a3.78 3.78 0 0 1-3.54-3.79v-.23a3.4 3.4 0 0 1 3.52-3.5l108.23 4.45a3.93 3.93 0 0 1 3.73 3.9Z"/><path fill="#BFC8D6" d="m181.13 22.02-3.3 84.14-.18 4.77a8.34 8.34 0 0 1-8.82 8.14l-102.36-4.63a6.19 6.19 0 0 0 5.87-5.57l.24-90.04 7.12 7.9 5.4-5.95 5.66 6.24 2.04-2.21 3.48-3.79 5.73 6.3 5.64-6.05 5.8 6.35 5.77-6.09 5.89 6.4L131 21.8l5.97 6.46 6.02-6.2 6.05 6.52 6.15-6.26 6.14 6.59 6.29-6.31 6.22 6.64 7.3-7.21Z"/><path fill="#fff" d="m182.07 22.02-3.3 84.14-.18 4.77a8.34 8.34 0 0 1-8.82 8.14L67.4 114.44a6.19 6.19 0 0 0 5.87-5.57l.24-90.04 7.13 7.9 5.4-5.95 5.65 6.24 2.04-2.21 3.48-3.79 5.73 6.3 5.64-6.05 5.81 6.35 5.76-6.09 5.9 6.4 5.88-6.14 5.97 6.46 6.02-6.2 6.05 6.52 6.15-6.26 6.14 6.59 6.29-6.31 6.23 6.64 7.28-7.21Z"/><path fill="url(#n)" d="m167.26 73.22-13.7-.55a1.62 1.62 0 0 0-1.68 1.61l-.19 6.36c-.03 1 .77 1.87 1.74 1.9l13.66.49c.92.03 1.67-.67 1.7-1.6l.22-6.29c.04-1-.76-1.88-1.75-1.92Z"/><path fill="url(#o)" d="m166.8 85.63-13.64-.51a1.6 1.6 0 0 0-1.65 1.58l-.2 6.58c-.02 1 .78 1.87 1.75 1.9l13.6.51a1.6 1.6 0 0 0 1.68-1.57l.23-6.56a1.87 1.87 0 0 0-1.77-1.93Z"/><path fill="url(#p)" d="m169.71 55.36.42-11.75a1.85 1.85 0 0 0-1.76-1.92l-13.85-.36a1.69 1.69 0 0 0-1.72 1.68l-.34 11.73a1.83 1.83 0 0 0 1.74 1.9l13.78.39a1.7 1.7 0 0 0 1.73-1.67Z"/><path fill="url(#q)" d="m139.1 72.1-51.92-2.06c-.83-.03-1.48.64-1.48 1.53l-.05 6.82c0 .95.73 1.77 1.6 1.8l51.77 1.84c.88.03 1.59-.66 1.61-1.57l.17-6.48a1.83 1.83 0 0 0-1.7-1.88Z"/><path fill="url(#r)" d="m138.76 84.58-51.7-1.93c-.8-.04-1.44.63-1.45 1.5l-.05 6.77c0 .94.74 1.77 1.62 1.8l51.53 1.93c.87.03 1.57-.64 1.6-1.55l.17-6.63a1.84 1.84 0 0 0-1.72-1.89Z"/><path fill="url(#s)" d="m141.3 54.6.3-11.76c.03-1-.75-1.86-1.7-1.88L87.42 39.6c-.84-.02-1.5.69-1.51 1.6L85.82 53c0 .96.73 1.78 1.61 1.8l52.22 1.45c.9.03 1.63-.7 1.65-1.63Z"/><path fill="url(#t)" d="m178.77 106.16-.18 4.77a8.34 8.34 0 0 1-8.82 8.14L67.4 114.44a6.19 6.19 0 0 0 5.87-5.57l.24-90.04 7.13 7.9 5.4-5.95 5.65 6.24 2.04-2.21a42.04 42.04 0 0 1 10.79 15.24 57.78 57.78 0 0 1 3.26 10.27c.4 1.78.8 3.47 1.2 5.07 1.7 6.65 3.5 11.77 5.55 15.73 2.6 5.04 5.6 8.23 9.28 10.37a28.04 28.04 0 0 0 6.94 2.79c2.87.78 6.08 1.33 9.7 1.84 3.13.44 6.55.86 10.35 1.4l.67.1c6.77 1.04 12.42 3.3 16.87 6.28 5.09 3.41 8.6 7.75 10.42 12.26Z" opacity=".5"/><path fill="#173044" d="M329 219.35c.36 2.61-1.2 4.88-3.47 5.05l-156.02 11.5c-2.9.2-6.5-2.26-6.9-5.23l-14.47-109.26c-.39-2.95 2.63-5.53 5.55-5.5l156.96-.73c2.28.03 4.44 2.18 4.8 4.78L329 219.35Z"/><path fill="url(#u)" d="M332.02 219.5c.35 2.62-1.21 4.9-3.5 5.07L170.7 235.92a5.81 5.81 0 0 1-6-5.04l-14.55-109.83a4.54 4.54 0 0 1 4.62-5.32l158.79-.93c2.3.03 4.47 2.2 4.82 4.8l13.64 99.9Z"/><path fill="#E6F7FE" d="m211.13 198-27.33 1.06a2.72 2.72 0 0 1-2.69-2.07l-1.33-6.52c-.24-1.2.58-2.2 1.82-2.23l27.41-.84a2.65 2.65 0 0 1 2.58 2.05l1.27 6.36a1.78 1.78 0 0 1-1.73 2.19Zm34.81-1.35-25.85 1a2.6 2.6 0 0 1-2.55-2.01l-1.25-6.34a1.76 1.76 0 0 1 1.72-2.17l25.93-.8a2.52 2.52 0 0 1 2.44 2l1.2 6.2c.22 1.12-.52 2.08-1.64 2.12Zm32.99-1.27-24.5.94c-1.1.05-2.2-.84-2.41-1.96l-1.2-6.17c-.21-1.13.52-2.08 1.64-2.11l24.57-.75a2.4 2.4 0 0 1 2.31 1.95l1.14 6.02c.2 1.1-.5 2.03-1.55 2.08Zm31.29-1.22-23.25.9c-1.05.04-2.08-.82-2.29-1.91l-1.12-6c-.21-1.1.49-2.03 1.54-2.06l23.31-.71c1.02-.03 2 .82 2.2 1.9l1.08 5.87c.2 1.07-.46 1.98-1.47 2.01Z" opacity=".7"/><path fill="url(#v)" d="m194.58 172-13.08.35a5.08 5.08 0 0 1-4.96-4.38l-1.8-13.5c-.32-2.48 1.38-4.52 3.78-4.55l13.1-.14a5.08 5.08 0 0 1 4.85 4.38l1.78 13.29c.32 2.44-1.33 4.48-3.67 4.55Z"/><path fill="#FF6100" d="m193.5 170.74-11.24.3a4.68 4.68 0 0 1-4.57-4.05l-1.54-11.6c-.3-2.28 1.26-4.16 3.48-4.19l11.24-.13a4.67 4.67 0 0 1 4.5 4.05l1.51 11.42c.3 2.26-1.21 4.14-3.39 4.2Zm-13.8-18.96c-1.9.02-3.25 1.64-3 3.61l1.55 11.58a4.03 4.03 0 0 0 3.94 3.49l11.23-.3c1.87-.04 3.18-1.66 2.92-3.6l-1.52-11.44c-.26-1.94-2-3.5-3.87-3.48l-11.25.14Z"/><path fill="#FF6100" d="m195.32 156.82-18.66.3-.08-.58 18.66-.29.08.57Zm.57 4.3-18.65.35-.08-.57 18.65-.35.08.57Zm.57 4.3-18.65.41-.07-.58 18.65-.4.07.57Z"/><path fill="#FFCF1B" d="m190.19 168.46-5.21.13a2.82 2.82 0 0 1-2.75-2.44l-1.34-10.09c-.19-1.37.75-2.51 2.08-2.53l5.22-.07a2.83 2.83 0 0 1 2.72 2.45l1.34 10.01c.18 1.37-.75 2.5-2.06 2.54Z"/><path fill="#FF6100" d="m190.22 168.75-5.2.12a3.14 3.14 0 0 1-3.07-2.72l-1.34-10.09c-.2-1.53.84-2.8 2.33-2.81l5.21-.07a3.16 3.16 0 0 1 3.04 2.72l1.33 10.01c.2 1.53-.83 2.8-2.3 2.84Zm-7.2-14.93c-1.19.01-2.02 1.02-1.86 2.24l1.34 10.08a2.5 2.5 0 0 0 2.44 2.16l5.2-.13c1.18-.02 2-1.03 1.83-2.24l-1.33-10.02a2.5 2.5 0 0 0-2.41-2.16l-5.22.07Z"/><path fill="url(#w)" d="M222.31 205.05c-13.33 2.4-22.05 2.97-32.44.12-14.44-3.96-25.02-12.59-31.01-18.35l5.83 44.06a5.81 5.81 0 0 0 6 5.04l157.83-11.35c2.29-.17 3.85-2.45 3.5-5.07l-2.16-15.89c-24-13.93-41.84-15-54.01-13.17-14.93 2.24-22.58 9.05-53.54 14.6Z" opacity=".15"/><g opacity=".42"><path fill="url(#x)" d="m221.92 217.96-37.2 2.28c-.73.05-1.4-.53-1.5-1.28l-.82-6.16c-.1-.74.41-1.39 1.13-1.43l37.23-2.04c.69-.04 1.33.52 1.42 1.25l.8 5.98c.1.73-.38 1.36-1.06 1.4Z"/><path fill="url(#y)" d="m289.56 213.98-46.33 2.84c-.68.05-1.31-.51-1.4-1.24l-.8-5.96c-.1-.72.37-1.34 1.05-1.38l46.36-2.55c.63-.03 1.22.5 1.31 1.2l.78 5.75c.1.7-.34 1.3-.97 1.34Z"/></g><path fill="url(#z)" d="M306.77 142.82c.94 6.96-3.95 12.72-10.91 12.88-6.95.16-13.34-5.34-14.27-12.27-.94-6.93 3.92-12.7 10.87-12.87 6.95-.18 13.37 5.3 14.3 12.26Z" opacity=".26"/><g fill="#E6F7FE" opacity=".53"><path d="M205.72 161.78c-.75.85-2.13.89-3.1.08-.99-.81-1.17-2.17-.41-3.02.75-.85 2.14-.87 3.1-.06s1.14 2.15.4 3Zm7.94 8.15a.86.86 0 0 1-.6-.2c-.35-.3-.42-.8-.15-1.13 3.99-4.83 2.98-12.31-2.28-16.93-.35-.31-.42-.82-.15-1.13.27-.3.78-.3 1.14.01 5.9 5.22 7.04 13.65 2.57 19.12a.73.73 0 0 1-.53.26Z"/><path d="M211.08 167.79a.88.88 0 0 1-.6-.21c-.37-.3-.44-.81-.16-1.14 2.99-3.56 2.24-9.1-1.68-12.5-.36-.32-.43-.83-.15-1.14.27-.32.79-.32 1.15 0 4.6 4 5.47 10.53 1.98 14.72a.74.74 0 0 1-.54.27Z"/><path d="M208.47 165.6a.91.91 0 0 1-.62-.2c-.36-.3-.43-.82-.15-1.15 1.94-2.28 1.46-5.85-1.08-8.02-.37-.31-.44-.83-.15-1.14.28-.32.8-.33 1.16-.01a8.19 8.19 0 0 1 2.84 5.08 6.56 6.56 0 0 1-1.46 5.19.75.75 0 0 1-.54.26Z"/></g><path fill="url(#A)" d="m328.27 353.02 5.75 2.8.99-2.6-3.88-3.25-2.86 3.05Z"/><path fill="#26264F" d="M334.12 353.57c.09-.42.48-.7.9-.67.43.05.89.19 1.22.53.63.66.44 1.68.1 3.5-.33 1.75-.5 2.63-1.26 3.15s-1.67.41-2.33.34c-.6-.07-1.55-.17-1.84-.83-.11-.26-.15-.66.05-.97.4-.62 1.37-.23 1.95-.87.1-.1.16-.21.35-1.04.43-1.87.67-2.29.86-3.13Z"/><path fill="url(#B)" d="M318 288.94c-1.9 1.34-14.17 10.24-15.63 26.25-1.12 12.27 4.8 21.17 6.54 23.7a38.58 38.58 0 0 0 20.2 14.8l3.13-2.99a28.33 28.33 0 0 1-13.27-27.2 28.34 28.34 0 0 1 18.42-23.39c.54-1.19 2.45-5.82.4-9.42-2.62-4.63-11.26-6.55-19.8-1.75Z"/><path fill="#26264F" d="m376.36 369.77.55.88c0 1.5.02 2.77-1.38 2.22-1.36-.53-4.94-1.26-5.73-1.59-1.68-.68-3.3-1.85-3.44-2.64-.14-.78 4.65 0 6.15.04 1.5.03 3.85 1.1 3.85 1.1Z"/><path fill="url(#C)" d="m374.26 362.97 1.93 7.26s-1.24.72-3.38-1.19l-3.16-6.07h4.62Z"/><path fill="url(#D)" d="M318 290.5c4.03 9.93 13.89 28.75 22.33 41.3a189.13 189.13 0 0 0 30.2 34.8 8 8 0 0 0 5.93-.68 78.4 78.4 0 0 0-3.9-12.52c-5.61-13.77-11.8-17.58-17.52-26.9-12.14-19.77-5.08-36.32-13.27-39.46-3.3-1.27-13.09-7.28-23.77 3.46Z"/><path fill="#0270CA" d="M329.87 206.85c.23-1.9.15-1.1.38-3 1.23.6 15.84 8.2 18.03 24.8 1.64 12.37-4.26 24.78-15.08 31.77-21.05-15.24-24.4-20.06-23.53-21.63 1.32-2.39 12.09 3.41 19.94-2.24 4.07-2.93 5.32-7.49 5.78-9.19 2.89-10.52-4.66-19.52-5.52-20.5Z"/><path fill="url(#E)" d="m236.97 234.32 4.2-3.02a52.57 52.57 0 0 0 17.55 8.3c9.24 2.4 14.67.58 27.68-.33 19.31-1.35 28.97-2.03 36.44 2.15 12.47 6.97 17.7 22.14 19.22 26.53 1.64 4.74 2.5 9.67 3.41 14.9 1.19 6.77 1.76 10.2.75 11.83-3.61 5.82-21.4 4.88-33.06-4.15-9.48-7.33-7.02-13.88-16.77-21.38-8.75-6.73-15.43-5.07-26.43-8.8-8.94-3.02-20.97-9.68-32.99-26.03Z"/><path fill="url(#F)" d="M328.73 196.45s2.94 2.91 3.08 6.18c.15 3.27-2.23 4.43-2.23 4.43l-.85-10.61Z"/><path fill="url(#G)" d="m240.09 232.08-2.38-2.97-3.37-3.14s-1.03.9 1.2 3.13c.41.43.5.94.44 1.4-.12.95-1 1.6-1.94 1.57l-5.58.04s3.2 3.03 8.51 2.2l3.12-2.23Z"/><path fill="url(#H)" d="M299.85 238.24c-.6.02-.7.86-.12 1.01 3.57.94 9.12 2.23 11 1.78.54-.12 3.5-1 3.84-1.15.83-.35-1.3-.93-2.07-1.4l-.85-.17a1.48 1.48 0 0 1-.67-1.61l.54-2.17-3.43-.9-.84 2.5a2.8 2.8 0 0 1-2.54 1.9l-4.86.2Z"/><path fill="url(#I)" d="M308.5 235.85c-.27-.15-2.44-.41-2.74-1.58-.4-1.58 1.02-3.51 1.2-3.82.74-1.3.93-1.48 1.27-1.7l.48-.28.06-.02a5.5 5.5 0 0 1 1.55-.06c.67.16 1.32 2.9 1.03 6.75l.07.45c.06.39-2.94.4-2.92.26Z"/><path fill="#26264F" d="M306.46 228.22c.25.73 1.24 1.48 1.68 1.82.07.05.25.21.43.48l.06.14c.25.76-.97 1.62-.75 1.96.16.25.99-.06 1.08.16.08.2-.6.6-.5.83.07.18.49.03.75.31.12.14.08.25.21.67a4 4 0 0 0 .26.65c.4.7 1.56 1 1.8.72.06-.08 0-.15.08-.4 0 0 .06-.25.24-.53.25-.4.84-.67 1.44-1.08a3.87 3.87 0 0 0 1.52-1.65l.03-.07.04-.11c.25-.81-.4-1.69-.74-2.1-.5-.57-1.33-1.43-2.55-2.2-.34-.2-3.57-2.2-4.76-1.21-.42.35-.5 1.12-.32 1.61Z"/><path fill="url(#J)" d="M308.31 232.35c.3-.4.81 0 .8.52 0 .52-.52 1.05-1 .94-.5-.12-.2-.93.2-1.46Z"/><path fill="url(#K)" d="M331.47 291.28c-3.08-3.74 1.46-11.1-2.88-15.43-3.14-3.14-6.7-.43-11.13-3.6-5.89-4.2-2.54-12.1-7.9-14.35-5.67-2.37-10.74 3.15-17.97.36-4.76-1.83-3.91-4.75-8.62-7.53-8.16-4.83-15.42 1.16-26.58-.36a27.9 27.9 0 0 1-6.28-1.63c7.33 6.33 14.2 9.7 19.85 11.61 11 3.73 17.68 2.07 26.43 8.8 9.76 7.5 7.3 14.05 16.78 21.38 11.66 9.03 29.44 9.97 33.05 4.15.42-.68.56-1.67.51-3.07-9.29 2.68-13.5 1.8-15.26-.33Z" opacity=".3"/><defs><linearGradient id="b" x1="225.39" x2="225.39" y1="148.16" y2="335.03" gradientUnits="userSpaceOnUse"><stop offset=".47" stop-color="#FFCF1B"/><stop offset="1" stop-color="#FF6100"/></linearGradient><linearGradient id="d" x1="25.67" x2="45.26" y1="76.64" y2="94.05" gradientUnits="userSpaceOnUse"><stop stop-color="#20415B"/><stop offset="1" stop-color="#173044"/></linearGradient><linearGradient id="e" x1="47.64" x2="188.51" y1="94.35" y2="94.35" gradientUnits="userSpaceOnUse"><stop stop-color="#20415B"/><stop offset="1" stop-color="#173044"/></linearGradient><linearGradient id="f" x1="108.56" x2="143.3" y1="166.2" y2="337.21" gradientUnits="userSpaceOnUse"><stop stop-color="#0593FF"/><stop offset="1" stop-color="#0270CA"/></linearGradient><linearGradient id="g" x1="20.43" x2="31.74" y1="226.62" y2="226.62" gradientUnits="userSpaceOnUse"><stop stop-color="#173044"/><stop offset="1" stop-color="#0270CA"/></linearGradient><linearGradient id="h" x1="139.2" x2="139.2" y1="95.29" y2="350.56" gradientUnits="userSpaceOnUse"><stop stop-color="#20415B"/><stop offset="1" stop-color="#E6F7FE" stop-opacity=".5"/></linearGradient><linearGradient id="i" x1="174.76" x2="105.13" y1="156.15" y2="165.16" gradientUnits="userSpaceOnUse"><stop stop-color="#311944"/><stop offset="1" stop-color="#893976"/></linearGradient><linearGradient id="j" x1="199.22" x2="191.96" y1="107.58" y2="114.84" gradientUnits="userSpaceOnUse"><stop stop-color="#FF6100"/><stop offset="1" stop-color="#FFCF1B"/></linearGradient><linearGradient id="k" x1="91.7" x2="96.89" y1="358.96" y2="376.56" gradientUnits="userSpaceOnUse"><stop stop-color="#173044"/><stop offset="1" stop-color="#893976"/></linearGradient><linearGradient id="l" x1="192.27" x2="64.35" y1="237.92" y2="382.77" gradientUnits="userSpaceOnUse"><stop stop-color="#40447E"/><stop offset="1" stop-color="#3C3B6B"/></linearGradient><linearGradient id="m" x1="178.2" x2="50.28" y1="225.5" y2="370.35" gradientUnits="userSpaceOnUse"><stop stop-color="#40447E"/><stop offset="1" stop-color="#3C3B6B"/></linearGradient><linearGradient id="n" x1="159.89" x2="161.39" y1="23.55" y2="200.1" gradientUnits="userSpaceOnUse"><stop offset=".49" stop-color="#EBEFF2"/><stop offset="1" stop-color="#fff"/></linearGradient><linearGradient id="o" x1="159.39" x2="160.85" y1="24.83" y2="197.77" gradientUnits="userSpaceOnUse"><stop offset=".49" stop-color="#EBEFF2"/><stop offset="1" stop-color="#fff"/></linearGradient><linearGradient id="p" x1="161.07" x2="162.59" y1="23" y2="202.53" gradientUnits="userSpaceOnUse"><stop offset=".49" stop-color="#EBEFF2"/><stop offset="1" stop-color="#fff"/></linearGradient><linearGradient id="q" x1="112.76" x2="114.2" y1="21.35" y2="192.04" gradientUnits="userSpaceOnUse"><stop offset=".49" stop-color="#EBEFF2"/><stop offset="1" stop-color="#fff"/></linearGradient><linearGradient id="r" x1="112.48" x2="113.85" y1="24.52" y2="187.09" gradientUnits="userSpaceOnUse"><stop offset=".49" stop-color="#EBEFF2"/><stop offset="1" stop-color="#fff"/></linearGradient><linearGradient id="s" x1="113.48" x2="114.95" y1="20.94" y2="194.38" gradientUnits="userSpaceOnUse"><stop offset=".49" stop-color="#EBEFF2"/><stop offset="1" stop-color="#fff"/></linearGradient><linearGradient id="t" x1="67.41" x2="178.77" y1="68.95" y2="68.95" gradientUnits="userSpaceOnUse"><stop offset=".49" stop-color="#EBEFF2"/><stop offset="1" stop-color="#fff"/></linearGradient><linearGradient id="u" x1="165.02" x2="440.93" y1="175.37" y2="148.24" gradientUnits="userSpaceOnUse"><stop offset="0" stop-color="#0593FF"/><stop offset="1" stop-color="#20415B"/></linearGradient><linearGradient id="v" x1="144.38" x2="230.82" y1="143.54" y2="174.65" gradientUnits="userSpaceOnUse"><stop stop-color="#F57E53"/><stop offset="0" stop-color="#FF6100"/><stop offset=".5" stop-color="#FFCF1B"/><stop offset="1" stop-color="#FF6100"/></linearGradient><linearGradient id="w" x1="158.86" x2="332.07" y1="211.38" y2="211.38" gradientUnits="userSpaceOnUse"><stop stop-color="#E6F7FE"/><stop offset="1" stop-color="#20415B"/></linearGradient><linearGradient id="x" x1="182.73" x2="222.1" y1="215.35" y2="210" gradientUnits="userSpaceOnUse"><stop stop-color="#E6F7FE"/><stop offset="1" stop-color="#0593FF"/></linearGradient><linearGradient id="y" x1="241.33" x2="289.55" y1="211.95" y2="205.39" gradientUnits="userSpaceOnUse"><stop stop-color="#E6F7FE"/><stop offset="1" stop-color="#0593FF"/></linearGradient><linearGradient id="z" x1="281.88" x2="305.83" y1="144.95" y2="138.81" gradientUnits="userSpaceOnUse"><stop stop-color="#E6F7FE"/><stop offset="1" stop-color="#0593FF"/></linearGradient><linearGradient id="A" x1="328.27" x2="335.01" y1="352.9" y2="352.9" gradientUnits="userSpaceOnUse"><stop stop-color="#FFC444"/><stop offset="1" stop-color="#F36F56"/></linearGradient><linearGradient id="B" x1="330.93" x2="309.49" y1="362.51" y2="259.45" gradientUnits="userSpaceOnUse"><stop stop-color="#FFCF1B"/><stop offset="1" stop-color="#FF6100"/></linearGradient><linearGradient id="C" x1="369.65" x2="376.19" y1="366.67" y2="366.67" gradientUnits="userSpaceOnUse"><stop stop-color="#FFC444"/><stop offset="1" stop-color="#F36F56"/></linearGradient><linearGradient id="D" x1="318" x2="376.46" y1="325.55" y2="325.55" gradientUnits="userSpaceOnUse"><stop stop-color="#FF6100"/><stop offset="1" stop-color="#FFCF1B"/></linearGradient><linearGradient id="E" x1="274.76" x2="320.73" y1="264.82" y2="213.42" gradientUnits="userSpaceOnUse"><stop stop-color="#0270CA"/><stop offset="1" stop-color="#20415B"/></linearGradient><linearGradient id="F" x1="328.14" x2="335.13" y1="196.52" y2="218.32" gradientUnits="userSpaceOnUse"><stop stop-color="#FFC444"/><stop offset="1" stop-color="#F36F56"/></linearGradient><linearGradient id="G" x1="229.31" x2="236.17" y1="213.33" y2="239.31" gradientUnits="userSpaceOnUse"><stop stop-color="#FFC444"/><stop offset="1" stop-color="#F36F56"/></linearGradient><linearGradient id="H" x1="299.35" x2="314.76" y1="237.38" y2="237.38" gradientUnits="userSpaceOnUse"><stop stop-color="#FFC444"/><stop offset="1" stop-color="#F36F56"/></linearGradient><linearGradient id="I" x1="306.85" x2="315.3" y1="231.13" y2="234.65" gradientUnits="userSpaceOnUse"><stop stop-color="#FFC444"/><stop offset="1" stop-color="#F36F56"/></linearGradient><linearGradient id="J" x1="306.41" x2="314.86" y1="232.18" y2="235.69" gradientUnits="userSpaceOnUse"><stop stop-color="#FFC444"/><stop offset="1" stop-color="#F36F56"/></linearGradient><linearGradient id="K" x1="309.44" x2="293.12" y1="221.82" y2="294.68" gradientUnits="userSpaceOnUse"><stop stop-color="#E6F7FE"/><stop offset="1" stop-color="#0270CA"/></linearGradient></defs></svg>