<svg xmlns="http://www.w3.org/2000/svg" width="384" height="382" fill="none"><path fill="#E6F7FE" d="M291.69 22.96c12.9 18.44-2.23 48.34 16.91 62.21 18.63 13.5 41.51-8.63 59.07 3 26.04 17.24 21.29 96.13-16.79 145.15-11.45 14.74-21.02 20.48-25.26 37.15-9.1 35.8 22.88 57.1 16.8 74.8-13.7 39.86-224.44 73.31-309-46.5-39.5-55.95-45.4-136.75-10.12-198.12C87.06-10.25 262.75-18.42 291.7 22.96Z"/><path fill="url(#a)" d="M213 237.19c-32.02-14.48-45.1-57.07-34.2-71.6 5.66-7.56 15.47-4.4 20.27-13.05 5.3-9.57-4.12-18.18-7.73-40.7-1.86-11.65-5.24-32.75 5.38-42.73 10.53-9.9 24.33 1.01 36.25-9 11.27-9.49 3.21-22.85 15.9-39.5 1.18-1.54 14.67-18.8 28.97-16.1 14.52 2.73 24.74 25.1 21 41.36-3.4 14.78-17.3 20.17-14.78 27.89 2.8 8.5 20.6 4.73 24.31 13.19 5.36 12.22-27.95 29.02-24.42 49.4 2.07 11.98 14.53 11.55 20.42 25.98 7.6 18.63-3.8 42.22-15.34 55.26-16.7 18.89-48.3 32.15-76.04 19.6Z"/><mask id="b" width="134" height="239" x="175" y="4" maskUnits="userSpaceOnUse" style="mask-type:luminance"><path fill="#fff" d="M213 237.19c-32.02-14.48-45.1-57.07-34.2-71.6 5.66-7.56 15.47-4.4 20.27-13.05 5.3-9.57-4.12-18.18-7.73-40.7-1.86-11.65-5.24-32.75 5.38-42.73 10.53-9.9 24.33 1.01 36.25-9 11.27-9.49 3.21-22.85 15.9-39.5 1.18-1.54 14.67-18.8 28.97-16.1 14.52 2.73 24.74 25.1 21 41.36-3.4 14.78-17.3 20.17-14.78 27.89 2.8 8.5 20.6 4.73 24.31 13.19 5.36 12.22-27.95 29.02-24.42 49.4 2.07 11.98 14.52 11.55 20.41 25.98 7.6 18.63-3.8 42.22-15.33 55.26-16.7 18.89-48.3 32.15-76.04 19.6Z"/></mask><g fill="#fff" mask="url(#b)"><path d="m231.19 253.04-1.11-.05c1.97-43.04 6.25-83.49 12.72-120.23 5.17-29.4 11.75-56.5 19.55-80.56 13.29-41 25.7-59.19 25.82-59.37l.92.64c-.13.17-12.47 18.27-25.7 59.15-12.23 37.73-27.73 103.12-32.2 200.42Z"/><path d="M261.21 56.17c-12.93-31.96-7.68-61.31-7.63-61.6l1.1.2c-.06.29-5.25 29.33 7.57 60.99l-1.04.41Zm-19.44 81.84c-24.25-28.71-34.13-50.6-38.15-63.9-4.38-14.49-3-22.07-2.95-22.38l1.1.2c-.02.08-1.38 7.71 2.95 21.98 4 13.18 13.83 34.88 37.9 63.38l-.85.72Zm-9.16 78.5c-52.6-39.4-62.04-76.96-62.13-77.33l1.09-.26c.02.1 2.5 9.82 11.7 24.4 8.12 12.85 23.38 32.34 50 52.3l-.66.9Zm23.07-92.39a102 102 0 0 1-11.18 3.65l-.28-1.07c25.23-6.65 44.79-22.67 56.75-34.95 12.97-13.3 20.04-25.17 20.11-25.28l.96.56c-.07.12-7.21 12.1-20.27 25.5-10.24 10.5-25.99 23.72-46.09 31.59Zm-15.25 75.92a88.83 88.83 0 0 1-5.98 2.1l-.33-1.07c25.98-8.08 42.94-26.64 52.6-40.78 10.49-15.34 14.86-28.92 14.9-29.06l1.07.34c-.04.14-4.47 13.87-15.04 29.35-9 13.17-24.29 30.14-47.22 39.12Z"/></g><path fill="#97A6B7" d="M202.08 73.02v156.9l-17.82-4.76V87.92l16.2-13.55 1.42-1.18.2-.17Z"/><path fill="#F4F7FA" d="M251.6 72.87h-49.52V229.9h49.53V72.87Z"/><path fill="#97A6B7" d="M217.8 90.21h-6.28V219.6h6.29V90.21Zm13.37 0h-6.55V219.6h6.55V90.21Zm13.1 0h-6.55V219.6h6.55V90.21Z"/><path fill="#97A6B7" d="M217.8 90.21h-2.09V219.6h2.1V90.21Zm13.37 0h-2.1V219.6h2.1V90.21Zm13.36 0h-2.1V219.6h2.1V90.21Z" opacity=".5"/><path fill="#97A6B7" d="M251.6 229.9v.01h-49.52l-17.82-4.75V209.2c8.26-17.78 5.54-25.17 7.32-38.36 1.74-12.87-1.93-80.7 8.89-96.47.39-.57.8-1.08 1.23-1.5l.18.32.2.37c5.63 10.07 8.21 14.88 9.44 20 1.2 4.98 1.1 10.25 1.3 20.96.24 13.17.19 24.64 2.89 32.52a20.96 20.96 0 0 0 2.1 4.5 13.47 13.47 0 0 0 7.83 5.96c1.16.35 2.3.9 3.43 1.61.71.45 1.41.96 2.1 1.55a33.21 33.21 0 0 1 6.55 7.87 61.77 61.77 0 0 1 4.72 9.35 82.64 82.64 0 0 1 2.1 5.74c3.2 9.86 5.1 21.56 4.94 33.47-.08 5.18.74 9.35 2.13 12.81Z" opacity=".1"/><path fill="url(#c)" d="M195.4 9.25h-76V241.3h76V9.25Z"/><path fill="#97A6B7" d="M189.64 31.28h-64.47V45.8h64.47V31.28Zm0 25.78h-64.47V71.6h64.47V57.06Zm0 25.79h-64.47v14.53h64.47V82.85Zm0 25.78h-64.47v14.53h64.47v-14.53Zm0 25.78h-64.47v14.54h64.47V134.4Zm0 25.79h-64.47v14.53h64.47V160.2Zm0 25.78h-64.47v14.53h64.47v-14.53ZM119.4 9.25V241.3l-20.43-7.03v-203l19.85-21.39.5-.55.09-.08Z"/><path fill="#97A6B7" d="M105.26 66.44H92.68v3.28h12.58v-3.28Zm0 40.78H92.68v3.28h12.58v-3.28Zm0 40.78H92.68v3.29h12.58v-3.28Zm0 40.8H92.68v3.27h12.58v-3.28Zm84.38-157.52h-64.47v2.81h64.47v-2.81Zm0 25.78h-64.47v2.82h64.47v-2.82Zm0 25.79h-64.47v2.8h64.47v-2.8Zm0 25.78h-64.47v2.81h64.47v-2.81Zm0 25.78h-64.47v2.82h64.47v-2.82Zm0 25.79h-64.47v2.8h64.47v-2.81Zm0 25.78h-64.47v2.81h64.47v-2.81Z" opacity=".5"/><path fill="#97A6B7" d="M192.88 241.3H119.4l-20.44-7.03V189.3c.8-2.8 1.67-5.46 2.59-7.91 8.61-22.92 5.8-32.23 7.61-49 1.78-16.56-2.1-105.35 9.65-122.52.15-.22.3-.43.47-.63l.03.08.09.2c4.63 10.42 7.25 16.43 8.75 21.75.27.95.5 1.88.7 2.81.78 3.53 1.1 7.05 1.27 11.72.11 3.12.16 6.75.21 11.25l.04 2.82.02 1.72.14 10a413.88 413.88 0 0 0 .45 14.06c.24 4.26.61 8.19 1.2 11.72.75 4.43 1.84 8.23 3.47 11.25a17.62 17.62 0 0 0 1.84 2.81 13.27 13.27 0 0 0 5.72 4.19c2.92 1.1 5.76 3.72 8.4 7.53a59.34 59.34 0 0 1 5.91 11.25 116.23 116.23 0 0 1 4.72 14.53 147.99 147.99 0 0 1 2.85 14.07 165.9 165.9 0 0 1 1.95 22.97 175 175 0 0 1 .01 4.55c-.04 3.72.21 7.03.69 9.98 3.8 23.47 22.09 25.3 25.13 40.79Z" opacity=".1"/><path fill="#97A6B7" d="M72.23 66.12H59.39v3.28h12.84v-3.28Zm0 40.78H59.39v3.28h12.84v-3.28Zm0 40.79H59.39v3.28h12.84v-3.28Z" opacity=".5"/><path fill="#97A6B7" d="M46.3 43.94V241.3l-20.44-5.98V62.67L46.3 43.94Z"/><path fill="#F4F7FA" d="M110.24 44.4H46.3v196.9h63.94V44.4Z"/><path fill="#97A6B7" d="M70.4 67.84H57.84V98.8H70.4V67.84Zm17.56 0H75.12V98.8h12.84V67.84Zm17.3 0H92.68V98.8h12.58V67.84ZM70.4 108.63H57.84v30.94H70.4v-30.94Zm17.56 0H75.12v30.94h12.84v-30.94Zm17.3 0H92.68v30.94h12.58v-30.94ZM70.4 149.41H57.84v30.94H70.4v-30.94Zm17.56 0H75.12v30.94h12.84v-30.94Zm17.3 0H92.68v30.94h12.58v-30.94ZM70.4 190.2H57.84v30.94H70.4V190.2Zm17.56 0H75.12v30.94h12.84V190.2Zm17.3 0H92.68v30.94h12.58V190.2Z"/><path fill="#97A6B7" d="M70.4 67.84H57.84v3.29H70.4v-3.28Zm0 40.79H57.84v3.28H70.4v-3.28Zm0 40.78H57.84v3.29H70.4v-3.28Zm0 40.79H57.84v3.28H70.4v-3.28Z" opacity=".5"/><path fill="#97A6B7" d="M110.24 238.03v3.27H46.3l-20.44-5.98V206.1c1.37-6.23 3.02-12.3 4.98-17.3 7.51-19.23 5.06-27.04 6.64-41.1 1.57-14.07-1.92-90.32 8.82-103.3 10.04 21.73 9.35 20.8 9.7 43.93.18 12.37.17 23.31 1.83 31.43 1.44 7.06 4.15 12 9.35 13.88 1.09.4 2.17 1.03 3.23 1.88 3.38 2.7 6.56 7.57 9.25 13.9 3.54 8.33 6.26 19.17 7.53 30.94a135.16 135.16 0 0 1 .77 17.11c.05 8.41 2 14.21 4.72 18.66a33.49 33.49 0 0 0 3.81 5.02c5.42 5.97 11.78 9.58 13.75 16.9Z" opacity=".1"/><path fill="url(#d)" d="M202.38 224.83c-20.95-28.18-11.7-71.76 4.89-79.18 8.63-3.87 15.67 3.65 24.06-1.58 9.29-5.8 5.23-17.9 13.02-39.34 4.03-11.08 11.33-31.17 25.46-34.75 14.01-3.55 20.78 12.68 36.07 9.7 14.46-2.83 13.9-18.41 33.09-26.81 1.78-.79 21.96-9.34 33.15-.05 11.37 9.43 9.44 33.94-1.73 46.35-10.14 11.27-24.94 9.25-26.47 17.22-1.69 8.79 15.72 14.13 14.85 23.32-1.26 13.28-38.54 11.82-45.36 31.35-4 11.48 7.1 17.14 5.23 32.61-2.4 19.97-23.84 35.07-40.25 40.88-23.79 8.42-57.85 4.7-76-19.72Z"/><mask id="e" width="190" height="201" x="190" y="48" maskUnits="userSpaceOnUse" style="mask-type:luminance"><path fill="#fff" d="M202.38 224.83c-20.95-28.18-11.7-71.76 4.89-79.18 8.63-3.87 15.67 3.65 24.06-1.58 9.29-5.8 5.23-17.9 13.02-39.34 4.03-11.08 11.33-31.17 25.46-34.75 14.01-3.55 20.78 12.68 36.07 9.7 14.46-2.83 13.9-18.41 33.09-26.81 1.78-.79 21.96-9.34 33.15-.05 11.37 9.43 9.44 33.94-1.73 46.35-10.14 11.28-24.94 9.25-26.47 17.22-1.69 8.79 15.72 14.13 14.85 23.32-1.26 13.28-38.54 11.82-45.36 31.35-4 11.48 7.1 17.14 5.23 32.61-2.4 19.97-23.84 35.08-40.25 40.88-23.79 8.42-57.85 4.7-76-19.72Z"/></mask><g fill="#fff" mask="url(#e)"><path d="m210.6 247.51-.96-.58c22.64-36.67 46.03-69.96 69.54-98.95 18.8-23.2 37.72-43.71 56.23-60.97 31.54-29.4 51.22-39.29 51.42-39.38l.5 1c-.2.09-19.79 9.93-51.22 39.25-29.01 27.06-74.34 76.73-125.52 159.63Z"/><path d="M332.49 89.94c4.21-34.23 23.06-57.34 23.25-57.57l.86.7c-.19.23-18.83 23.12-23 57l-1.12-.13Zm-56.77 62.12c-7.24-36.86-5.25-60.78-2.3-74.36 3.2-14.8 8.09-20.75 8.3-21l.85.71c-.05.06-4.95 6.07-8.1 20.65-2.9 13.46-4.85 37.2 2.35 73.79l-1.1.21Zm-46.14 64.2c-26.84-59.95-16.86-97.36-16.75-97.73l1.07.3c-.02.09-2.58 9.8-1.62 27.01.86 15.16 4.72 39.6 18.32 69.97l-1.02.45Zm65.06-69.6a102 102 0 0 1-11.55-2.22l.27-1.08c25.3 6.42 50.18 1.9 66.6-3.04 17.8-5.34 29.75-12.3 29.87-12.36l.56.96c-.12.07-12.18 7.08-30.11 12.47-14.05 4.21-34.24 8.14-55.64 5.27Zm-50.22 58.99a88.33 88.33 0 0 1-6.24-1.07l.22-1.09c26.64 5.53 50.5-2.47 65.81-10.15 16.62-8.33 27.04-18.09 27.15-18.18l.76.8c-.1.1-10.65 9.97-27.4 18.37-14.28 7.16-35.9 14.59-60.3 11.32Z"/></g><path fill="url(#f)" d="m156.17 306.62 23.42-4.88 15.58-28.62-21.46-9.57s-23.49 15.4-23.06 15.94c.44.55 5.52 27.13 5.52 27.13Z"/><path fill="url(#g)" d="m45.4 286.44 30.7-2.29-8.46-30.9-21.6 3-7.45 16.11 6.8 14.08Z"/><path fill="url(#h)" d="M201.97 300.06c-.37 12.41-6.59 22.29-13.87 22.06-7.29-.22-12.89-10.45-12.5-22.86.37-12.4 6.58-22.28 13.87-22.06 7.28.22 12.88 10.46 12.5 22.86Z"/><path fill="url(#i)" d="m172.97 322.77 16.55-.58-.05-44.99-16.35.71-.15 44.86Z"/><path fill="url(#j)" d="M185.63 300.77c-.38 12.41-6.6 22.29-13.88 22.06-7.29-.22-12.89-10.45-12.5-22.86.37-12.4 6.58-22.28 13.87-22.06 7.28.22 12.88 10.46 12.5 22.86Z"/><path fill="url(#k)" d="M178.38 300.56c-.17 5.59-2.97 10.04-6.25 9.94-3.29-.1-5.81-4.71-5.64-10.3.17-5.6 2.97-10.06 6.25-9.95 3.29.1 5.81 4.71 5.64 10.3Z" opacity=".6"/><path fill="url(#l)" d="M81.36 279.13c-.31 10.16-5.4 18.24-11.36 18.06-5.96-.18-10.55-8.56-10.24-18.71.31-10.16 5.4-18.24 11.36-18.06 5.96.18 10.55 8.56 10.24 18.71Z"/><path fill="url(#m)" d="m57.62 297.72 13.54-.48-.04-36.82-13.38.58-.12 36.72Z"/><path fill="url(#n)" d="M67.98 279.72c-.31 10.15-5.4 18.23-11.36 18.05-5.96-.18-10.54-8.56-10.24-18.71.31-10.15 5.4-18.24 11.36-18.06 5.96.19 10.55 8.56 10.24 18.72Z"/><path fill="url(#o)" d="M62.05 279.54c-.14 4.57-2.43 8.22-5.12 8.14-2.7-.09-4.76-3.86-4.62-8.44.14-4.58 2.43-8.22 5.12-8.14 2.7.08 4.76 3.86 4.62 8.44Z" opacity=".6"/><path fill="url(#p)" d="m358.32 193.63 1.82 36.02.95.6a2.82 2.82 0 0 0 4.31-2.3l.82-26.97a9.97 9.97 0 0 0-3.98-8.28l-.9-.67c-1.28-.96-3.1 0-3.02 1.6Z"/><path fill="url(#q)" d="m354.63 246.42 8.43-16.66c.12-.24.16-.51.11-.78l-.35-2.17a1.26 1.26 0 0 0-2.33-.44l-7.9 13 2.04 7.05Z"/><path fill="url(#r)" d="m127.58 168.91 9.18-11.82c3.5-4.5 8.33-7.8 13.8-9.44 19.04-5.7 66.33-18.35 105.11-16.46 49.81 2.43 79.14 14.2 87.86 27.84 8.72 13.63 24.08 96.82 11.64 152.68 0 0-45.52 21.59-84.56 15.34L127.58 168.91Z"/><path fill="url(#s)" d="m258.65 148.72 11.03 118.22s3.44 7.31 11.4 7.2c6.34-.09 55.06.68 78.64-2.88 1.35-49.11-9.42-101.65-16.19-112.23a25.05 25.05 0 0 0-2.91-3.7c-22.22-5.17-54.08-10.39-81.97-6.61Z"/><path fill="#E6F7FE" d="M343.53 159.03a25.1 25.1 0 0 0-2.91-3.7c-15.31-3.56-35.2-7.14-55.2-7.8-5.46 9.9-5.9 17.38-4.42 23.04 4.36 16.77 25.91 19.58 38.87 44.36 7.47 14.28.54 21.76 7.97 35.84 5.36 10.16 13.61 17.02 21.38 21.68 3.83-.33 7.39-.72 10.5-1.2 1.35-49.1-9.42-101.64-16.19-112.22Z" opacity=".3"/><path fill="url(#t)" d="M351.96 289.04a2.51 2.51 0 0 0-1.98 2.37l-.4 13.3a2.51 2.51 0 0 0 2.96 2.55l3.67-.68c1.15-6.1 2-12.48 2.58-19.02l-6.83 1.48Z"/><path fill="url(#u)" d="m312.38 310.02-.25 8.33a1.76 1.76 0 0 0 2.09 1.78l19.96-3.72a1.76 1.76 0 0 0 1.44-1.68l.19-6.14a1.76 1.76 0 0 0-1.9-1.8l-19.9 1.53c-.9.07-1.6.8-1.63 1.7Z"/><path fill="url(#v)" d="m312.38 310.26-.24 7.69a1.63 1.63 0 0 0 1.93 1.65l18.45-3.44c.75-.14 1.3-.79 1.33-1.55l.17-5.67a1.63 1.63 0 0 0-1.76-1.68l-18.38 1.43c-.83.06-1.48.74-1.5 1.57Z"/><path fill="url(#w)" d="M44.83 279.01c.36-11.61 6.17-20.86 13-20.65 6.81.21 12.05 9.8 11.7 21.4a32.78 32.78 0 0 1-2.07 10.7l88.71 16.16c-.14-1.82-.2-3.69-.14-5.6.5-16.55 8.8-29.73 18.52-29.43 9.72.3 17.2 13.95 16.69 30.5a49.04 49.04 0 0 1-1.48 10.65l83.79 14.78s2.99-152.27-17.8-184.8a11.07 11.07 0 0 0-10.8-4.97c-21.52 2.85-112.48 16.13-219.44 49.56a10.01 10.01 0 0 0-6.93 8.1c-2.13 14.66-6.7 52.07-2.35 78.7a10.4 10.4 0 0 0 8.4 8.55l20.77 3.78a34.39 34.39 0 0 1-.57-7.43Z"/><path fill="url(#x)" d="M197.55 157.82a3.77 3.77 0 0 0-4.62-3.6l-65.16 15.12a4.4 4.4 0 0 0-3.4 4.21l-.61 35.88a6.28 6.28 0 0 0 6.55 6.37l62.9-2.71a5.36 5.36 0 0 0 5.12-5.44l-.78-49.83Z"/><path fill="url(#y)" d="m77.76 180.95-49.88 11.59a7.38 7.38 0 0 0-5.66 6.29l-1.73 14.25a6.4 6.4 0 0 0 6.63 7.17l51.38-2.22a4.29 4.29 0 0 0 4.1-4.37l-.64-29.45a3.42 3.42 0 0 0-4.2-3.26Z"/><path fill="url(#z)" d="M120.6 175.4a3.43 3.43 0 0 0-4.25-3.35l-29 7.13a3.42 3.42 0 0 0-2.6 3.4l2 92.5a3.43 3.43 0 0 0 3.08 3.33l26.26 2.73a3.43 3.43 0 0 0 3.79-3.38l.72-102.36Z"/><path fill="url(#A)" d="m255.68 302.43-.73-19.16-49.74-42.38 2.58 53.95c.26 5.48 4.4 10 9.84 10.75l29.96 4.16c4.39.6 8.26-2.9 8.1-7.32Z"/><path fill="url(#B)" d="M249.9 150.93a6.71 6.71 0 0 0-7.98-6.33l-36.02 6.97a5.78 5.78 0 0 0-4.68 5.95l3.11 65.07 49.93 42.54-4.35-114.2Z"/><path fill="url(#C)" d="m236.95 194.37 2.49 35.3c.12 1.84 1.48 3.23 3.09 3.18l7.04-.22-1.41-38.7c-.08-2.17-1.6-3.88-3.5-3.94l-3.97-.12c-2.17-.06-3.91 2.04-3.74 4.5Z"/><path fill="url(#D)" d="m260.17 236.67-.12 3.87a1.13 1.13 0 0 1-1.9.8L246 229.97a6.8 6.8 0 0 1-2.5-5c-.02-1.02.2-2 .96-2.5l13.7 10.05a4.95 4.95 0 0 1 2.02 4.14Z"/><path fill="url(#E)" d="M268.16 296.28c0-.8.83-1.4 1.75-1.26l4.07.56c.38.05.76.08 1.14.07l5.92-.23c1.88-.08 3.42 1.3 3.26 2.9l-1.78 18.1c-.1 1.13-1.06 2.05-2.35 2.26l-2.76.47c-1.8.3-3.65.17-5.36-.4-2.42-.79-4.01-2.78-4-5l.11-17.47Z"/><path fill="url(#F)" d="M216.07 270.2c-29.35-13-53.53 9.8-80.16-7.21-24.99-15.97-16.26-44.06-41.9-56.8-20.2-10.03-33.62 3.44-58.46-3.57a62.65 62.65 0 0 1-16.88-7.67c-.03.16-.07.31-.09.47-2.13 14.65-6.7 52.06-2.35 78.7a10.4 10.4 0 0 0 8.4 8.54l20.77 3.78a34.4 34.4 0 0 1-.57-7.43c.36-11.61 6.17-20.86 13-20.65 6.81.21 12.05 9.8 11.7 21.4a32.78 32.78 0 0 1-2.07 10.7l88.71 16.16c-.14-1.82-.2-3.69-.13-5.6.5-16.55 8.79-29.73 18.51-29.43 9.72.3 17.2 13.95 16.69 30.5a48.98 48.98 0 0 1-1.48 10.65l65.95 11.63c-10.92-34.82-26.6-48.39-39.64-54.17Z" opacity=".3"/><defs><linearGradient id="a" x1="241.99" x2="241.99" y1="4.22" y2="242.11" gradientUnits="userSpaceOnUse"><stop stop-color="#FFCF1B"/><stop offset=".6" stop-color="#FF6100"/></linearGradient><linearGradient id="c" x1="119.41" x2="195.4" y1="125.27" y2="125.27" gradientUnits="userSpaceOnUse"><stop offset=".49" stop-color="#EBEFF2"/><stop offset="1" stop-color="#fff"/></linearGradient><linearGradient id="d" x1="298.98" x2="664.09" y1="148.5" y2="152.26" gradientUnits="userSpaceOnUse"><stop stop-color="#FFCF1B"/><stop offset=".3" stop-color="#FF6100"/></linearGradient><linearGradient id="f" x1="157.88" x2="161" y1="231.5" y2="241.75" gradientUnits="userSpaceOnUse"><stop stop-color="#20415B"/><stop offset="1" stop-color="#173044"/></linearGradient><linearGradient id="g" x1="53.28" x2="56.39" y1="263.34" y2="273.58" gradientUnits="userSpaceOnUse"><stop stop-color="#20415B"/><stop offset="1" stop-color="#173044"/></linearGradient><linearGradient id="h" x1="212.95" x2="188.44" y1="279.66" y2="299.99" gradientUnits="userSpaceOnUse"><stop stop-color="#20415B"/><stop offset="1" stop-color="#173044"/></linearGradient><linearGradient id="i" x1="210.1" x2="185.6" y1="276.23" y2="296.55" gradientUnits="userSpaceOnUse"><stop stop-color="#20415B"/><stop offset="1" stop-color="#173044"/></linearGradient><linearGradient id="j" x1="173.59" x2="168.78" y1="286.06" y2="345.6" gradientUnits="userSpaceOnUse"><stop stop-color="#20415B"/><stop offset="1" stop-color="#173044"/></linearGradient><linearGradient id="k" x1="166.49" x2="178.38" y1="300.19" y2="300.56" gradientUnits="userSpaceOnUse"><stop stop-color="#20415B"/><stop offset="1" stop-color="#173044"/></linearGradient><linearGradient id="l" x1="90.34" x2="70.28" y1="262.44" y2="279.07" gradientUnits="userSpaceOnUse"><stop stop-color="#20415B"/><stop offset="1" stop-color="#173044"/></linearGradient><linearGradient id="m" x1="88.01" x2="67.95" y1="259.63" y2="276.26" gradientUnits="userSpaceOnUse"><stop stop-color="#20415B"/><stop offset="1" stop-color="#173044"/></linearGradient><linearGradient id="n" x1="58.13" x2="54.19" y1="267.68" y2="316.4" gradientUnits="userSpaceOnUse"><stop stop-color="#20415B"/><stop offset="1" stop-color="#173044"/></linearGradient><linearGradient id="o" x1="52.31" x2="62.05" y1="279.24" y2="279.54" gradientUnits="userSpaceOnUse"><stop stop-color="#20415B"/><stop offset="1" stop-color="#173044"/></linearGradient><linearGradient id="p" x1="362.36" x2="330.02" y1="209.82" y2="273.75" gradientUnits="userSpaceOnUse"><stop stop-color="#0593FF"/><stop offset="1" stop-color="#0270CA"/></linearGradient><linearGradient id="q" x1="368.75" x2="336.4" y1="213.05" y2="276.98" gradientUnits="userSpaceOnUse"><stop stop-color="#0593FF"/><stop offset="1" stop-color="#0270CA"/></linearGradient><linearGradient id="r" x1="253.41" x2="353.86" y1="230.22" y2="198.59" gradientUnits="userSpaceOnUse"><stop stop-color="#0593FF"/><stop offset="1" stop-color="#0270CA"/></linearGradient><linearGradient id="s" x1="256.78" x2="361.5" y1="210.04" y2="213.24" gradientUnits="userSpaceOnUse"><stop stop-color="#20415B"/><stop offset="1" stop-color="#173044"/></linearGradient><linearGradient id="t" x1="352.45" x2="356.56" y1="287.14" y2="308.91" gradientUnits="userSpaceOnUse"><stop stop-color="#FF3100"/><stop offset="1" stop-color="#FFCF1B"/></linearGradient><linearGradient id="u" x1="312.29" x2="335.65" y1="313.11" y2="313.83" gradientUnits="userSpaceOnUse"><stop stop-color="#20415B"/><stop offset="1" stop-color="#173044"/></linearGradient><linearGradient id="v" x1="343.46" x2="308.3" y1="308.5" y2="315.31" gradientUnits="userSpaceOnUse"><stop stop-color="#0270CA"/><stop offset="1" stop-color="#20415B"/></linearGradient><linearGradient id="w" x1="230.99" x2="-17.81" y1="183.82" y2="407.21" gradientUnits="userSpaceOnUse"><stop stop-color="#0593FF"/><stop offset="1" stop-color="#20415B"/></linearGradient><linearGradient id="x" x1="124.05" x2="199" y1="183.81" y2="186.1" gradientUnits="userSpaceOnUse"><stop stop-color="#20415B"/><stop offset="1" stop-color="#173044"/></linearGradient><linearGradient id="y" x1="20.87" x2="82.98" y1="199.59" y2="201.49" gradientUnits="userSpaceOnUse"><stop stop-color="#173044"/><stop offset="1" stop-color="#20415B"/></linearGradient><linearGradient id="z" x1="83.43" x2="121.44" y1="225.54" y2="226.7" gradientUnits="userSpaceOnUse"><stop stop-color="#20415B"/><stop offset="1" stop-color="#173044"/></linearGradient><linearGradient id="A" x1="204.18" x2="256.5" y1="274.66" y2="276.26" gradientUnits="userSpaceOnUse"><stop stop-color="#20415B"/><stop offset="1" stop-color="#173044"/></linearGradient><linearGradient id="B" x1="199.8" x2="256.1" y1="203.31" y2="205.03" gradientUnits="userSpaceOnUse"><stop stop-color="#20415B"/><stop offset="1" stop-color="#173044"/></linearGradient><linearGradient id="C" x1="239.67" x2="275.28" y1="202.5" y2="281.97" gradientUnits="userSpaceOnUse"><stop stop-color="#0270CA"/><stop offset="1" stop-color="#20415B"/></linearGradient><linearGradient id="D" x1="243.28" x2="260.3" y1="231.8" y2="232.32" gradientUnits="userSpaceOnUse"><stop stop-color="#0593FF"/><stop offset="1" stop-color="#0270CA"/></linearGradient><linearGradient id="E" x1="283.18" x2="268.88" y1="302.69" y2="309.81" gradientUnits="userSpaceOnUse"><stop stop-color="#FF6100"/><stop offset="1" stop-color="#FFCF1B"/></linearGradient><linearGradient id="F" x1="-1.29" x2="283.47" y1="192.52" y2="389.43" gradientUnits="userSpaceOnUse"><stop stop-color="#E6F7FE"/><stop offset="1" stop-color="#0270CA"/></linearGradient></defs></svg>