<svg xmlns="http://www.w3.org/2000/svg" xmlns:xlink="http://www.w3.org/1999/xlink" width="385" height="378"><defs><path id="a" fill="#fff" stroke-width="0" d="M65.83 88c11.67-22.83 29-49.95 44.36-22.68 15.35 27.27 57.74 1.32 71.28-38.26 13.25-38.74 89.72-37.53 68.74 48.94-12.53 51.64-64.24 53.95-90.07 61.33-25.84 7.38-20.44 46.9-55.14 39.73-29.63-6.12-53.83-23.96-69.48-3.74C19.88 193.55 58.09 103.13 65.83 88Z"/></defs><defs><linearGradient id="c" x1="246.21" x2="77.53" y1="374.76" y2="216.84" gradientTransform="matrix(1 0 0 -1 0 378)" gradientUnits="userSpaceOnUse"><stop offset="0" stop-color="#ffcf1b"/><stop offset="1" stop-color="#ff6a02"/></linearGradient><linearGradient id="f" x1="390.8" x2="70.55" y1="280.83" y2="280.81" gradientTransform="matrix(1 0 0 -1 0 378)" gradientUnits="userSpaceOnUse"><stop offset="0" stop-color="#ff6100"/><stop offset=".39" stop-color="#ffcf1b"/></linearGradient><linearGradient id="g" x1="65.61" x2="142.13" y1="361.16" y2="230.67" gradientTransform="matrix(1 0 0 -1 0 378)" gradientUnits="userSpaceOnUse"><stop offset="0" stop-color="#0270ca"/><stop offset="1" stop-color="#20415b"/></linearGradient><linearGradient id="h" x1="151.58" x2="227.72" y1="267.04" y2="38.64" gradientTransform="matrix(1 0 0 -1 0 378)" gradientUnits="userSpaceOnUse"><stop offset="0" stop-color="#0270ca"/><stop offset="1" stop-color="#20415b"/></linearGradient><linearGradient id="i" x1="51.59" x2="332.74" y1="158.45" y2="158.45" gradientTransform="matrix(1 0 0 -1 0 378)" gradientUnits="userSpaceOnUse"><stop offset=".49" stop-color="#ebeff2"/><stop offset="1" stop-color="#fff"/></linearGradient><linearGradient id="j" x1="146.64" x2="200.92" y1="35.61" y2="35.61" gradientTransform="matrix(1 0 0 -1 0 378)" gradientUnits="userSpaceOnUse"><stop offset="0" stop-color="#0593ff"/><stop offset="1" stop-color="#0270ca"/></linearGradient><linearGradient id="k" x1="104.41" x2="200.91" y1="35.39" y2="35.39" gradientTransform="matrix(1 0 0 -1 0 378)" gradientUnits="userSpaceOnUse"><stop offset="0" stop-color="#0593ff"/><stop offset="1" stop-color="#20415b"/></linearGradient><linearGradient id="l" x1="120.34" x2="94.74" y1="3.54" y2="35.73" gradientTransform="matrix(1 0 0 -1 0 378)" gradientUnits="userSpaceOnUse"><stop offset="0" stop-color="#ffc444"/><stop offset="1" stop-color="#f36f56"/></linearGradient><linearGradient id="m" x1="65.39" x2="51.89" y1="36.62" y2="9.63" gradientTransform="matrix(1 0 0 -1 0 378)" gradientUnits="userSpaceOnUse"><stop offset="0" stop-color="#0593ff"/><stop offset="1" stop-color="#0270ca"/></linearGradient><linearGradient id="n" x1="58.42" x2="103.22" y1="-13.3" y2="82.98" gradientTransform="matrix(1 0 0 -1 0 378)" gradientUnits="userSpaceOnUse"><stop offset="0" stop-color="#ff7d07"/><stop offset="1" stop-color="#ffcf1b"/></linearGradient><linearGradient id="o" x1="66.22" x2="132.24" y1="41" y2="41" gradientTransform="matrix(1 0 0 -1 0 378)" gradientUnits="userSpaceOnUse"><stop offset="0" stop-color="#aa80f9"/><stop offset="1" stop-color="#6165d7"/></linearGradient><linearGradient id="p" x1="30.96" x2="77.06" y1="-5.57" y2="93.5" gradientTransform="matrix(1 0 0 -1 0 378)" gradientUnits="userSpaceOnUse"><stop offset=".08" stop-color="#ff6100"/><stop offset="1" stop-color="#ffc444"/></linearGradient><linearGradient id="q" x1="100.01" x2="122.52" y1="125.39" y2="138.98" gradientTransform="matrix(1 0 0 -1 0 378)" gradientUnits="userSpaceOnUse"><stop offset="0" stop-color="#173044"/><stop offset="1" stop-color="#20415b"/></linearGradient><linearGradient id="r" x1="101.64" x2="124.17" y1="122.67" y2="136.27" gradientTransform="matrix(1 0 0 -1 0 378)" gradientUnits="userSpaceOnUse"><stop offset="0" stop-color="#173044"/><stop offset="1" stop-color="#20415b"/></linearGradient><linearGradient id="s" x1="115.93" x2="118.32" y1="127.56" y2="127.56" gradientTransform="matrix(1 0 0 -1 0 378)" gradientUnits="userSpaceOnUse"><stop offset="0" stop-color="#ff6100"/><stop offset="1" stop-color="#ffcf1b"/></linearGradient><linearGradient id="t" x1="84.05" x2="166.32" y1="57.48" y2="57.48" gradientTransform="matrix(1 0 0 -1 0 378)" gradientUnits="userSpaceOnUse"><stop offset="0" stop-color="#444b8c"/><stop offset="1" stop-color="#26264f"/></linearGradient><linearGradient id="u" x1="85.61" x2="166.39" y1="56.71" y2="56.71" gradientTransform="matrix(1 0 0 -1 0 378)" gradientUnits="userSpaceOnUse"><stop offset="0" stop-color="#0270ca"/><stop offset="1" stop-color="#20415b"/></linearGradient><linearGradient id="v" x1="85.6" x2="160.27" y1="55.77" y2="55.77" gradientTransform="matrix(1 0 0 -1 0 378)" gradientUnits="userSpaceOnUse"><stop offset="0" stop-color="#444b8c"/><stop offset="1" stop-color="#26264f"/></linearGradient><mask id="b" width="241.81" height="187.87" x="12.02" y="2.64" maskUnits="userSpaceOnUse"><use xlink:href="#a" stroke-width="0"/></mask><mask id="d" width="244.72" height="193.6" x="13.3" y="-9.19" maskUnits="userSpaceOnUse"><use xlink:href="#a" stroke-width="0"/></mask><mask id="e" width="268.08" height="82.45" x="129.21" y="99.18" maskUnits="userSpaceOnUse"><path fill="#fff" stroke-width="0" d="m133.63 120.19-4.43 38.14s20.78 18.51 31.88 8.15c11.1-10.35 32.4 3.73 44.6 9.8 33.1 16.47 44.6-24.87 88.81-7.41 11.76 4.64 32.63 17.77 45.91 10.71 15.13-8.04 7.93-21.13 19.72-25.48 18.43-6.8 30.71-24.82 20.7-42.42-9.88-17.37-43.26-14.24-78.85 12.32-27.46 16-33.26 14.13-46.37 6.82-9.18-5.12-30.7-25.09-45.92-14.83-15.23 10.26-30.04 16.84-38.95 7.03-13.56-14.92-37.08-2.84-37.08-2.84Z"/></mask></defs><path fill="#e6f7fe" d="M193.78 2.78C97.76-.14 14.58 71.54 2.02 165.59-11.72 268.42 63.9 360.95 156.95 375.77c115.73 18.43 227.99-88.2 217.91-203.88-7.6-87.16-83.48-166.15-181.08-169.11Z"/><g mask="url(#b)"><path fill="url(#c)" d="M181.47 27.06c-13.54 39.58-51.35 65.73-71.28 41.61C92.58 47.35 77.5 65.18 65.83 88c-6.91 13.52-17.86 45.34-50.07 39.16.03.52-.02 1.07-.18 1.64-.87 20.59-2.48 41.14-3.55 61.72 9.04-2.43 16.75-8.47 23.5-17.2 15.64-20.23 39.84-2.38 69.48 3.74 34.69 7.16 29.3-32.36 55.14-39.73 25.84-7.38 77.55-9.68 90.08-61.33 20.98-86.47-55.49-87.68-68.74-48.94Z"/></g><g fill="#fff" mask="url(#d)" opacity=".5"><path d="M227.25-9.19c-.11 84.53-72.81 125.28-133.77 144.57-27.92 8.84-56 14.11-79.18 17.25l-.07 1.1c23.27-3.14 51.48-8.43 79.55-17.31 38.99-12.34 70.07-29.1 92.38-49.82 27.93-25.93 42.12-58.16 42.16-95.79h-1.08Z"/><path d="m174.04 96.93-.07-1.08c35.9-2.42 83.11-25.43 83.58-25.66l.48.97c-.48.23-47.87 23.33-83.98 25.77Zm18.14-17.79c15.34-40.05-1.8-71.38-1.98-71.69l.94-.53c.18.32 17.57 32.06 2.04 72.61l-1.01-.39Zm-142.7 67.58c47.74-21.56 46.84-92.02 46.77-92.71l1.07-.17c.13.67.77 72.11-47.39 93.87l-.44-.99Zm21.26-3.79.02-1.08c33.42.46 62.28 31.04 62.57 31.35l-.79.74c-.29-.31-28.83-30.55-61.79-31.01Zm-40.55 38.73c-3.23-2.97-9.48-8.73-16.82-14.07l-.08 1.27c7.04 5.18 13.04 10.71 16.17 13.59a25.96 25.96 0 0 0 2.21 1.95l.55-.93a35.8 35.8 0 0 1-2.03-1.82Z"/></g><path fill="#ffcf1b" d="M170.72 123.03c-7.79-8.58-19-7.78-27.02-5.94-.39 1.04-.88 1.55-1.5 2.51-5.61 8.7-6.15 13.6-10.33 23.05-.9 2.03-1.73 8.8-1.89 11.59l-.21 5.2s20.22 17.39 31.32 7.04c11.1-10.35 32.4 3.73 44.6 9.8 7.49 3.73 12.11 3.03 15.08 3.96 31.47 9.82 37.08 22.54 49.28 19.45 13.46-3.42 10.47-19.91 24.92-24.4 16.31-5.07 31.07 12.55 45.44 4.3 2.46-1.42 4.95-2.94 7.23-5.96 5.63-7.47 3.31-16.14 12.48-19.52 18.43-6.8 30.71-24.82 20.7-42.42-9.88-17.37-43.26-14.24-78.85 12.32-27.46 16-33.26 14.13-46.37 6.82-9.18-5.12-30.7-25.09-45.93-14.83s-30.04 16.84-38.95 7.03Z"/><g fill="#ffcf1b" mask="url(#e)" opacity=".5"><path d="m133.35 137.46-.18.74c4.08 1.01 8.2 1.98 12.26 2.87 30.05 6.62 59.65 9.97 88 9.95a334.53 334.53 0 0 0 69.72-7.21 287.98 287.98 0 0 0 51.12-15.95 236.7 236.7 0 0 0 31.46-15.97c1.67-1.02 3.33-2.16 4.94-3.26 2.14-1.47 4.35-2.99 6.61-4.24l-.31-.67a80.22 80.22 0 0 0-6.67 4.27c-1.6 1.1-3.25 2.24-4.91 3.24a237.61 237.61 0 0 1-31.36 15.92 286.93 286.93 0 0 1-51 15.91 333.79 333.79 0 0 1-69.58 7.2c-28.3.02-57.86-3.32-87.86-9.93a469.3 469.3 0 0 1-12.24-2.87Z"/><path d="m275.79 147.67.04.76c30.27-2.9 73.29 27.22 73.72 27.52l.4-.64c-.43-.31-43.65-30.56-74.17-27.64Zm-85.15.14-.04.76c20.72.61 48.41-31.01 48.69-31.33l-.51-.51c-.27.32-27.74 31.69-48.14 31.08Zm-11.7-1.44-.16.74c13.19 2.97 29.5 14.64 45.94 32.85q.83.92.96.95l.17-.74-.09.37.21-.31c-.06-.05-.37-.4-.74-.8-16.53-18.32-32.97-30.06-46.29-33.06Zm-38.12-7.18.04.76c14.9-1.36 27.77-21.09 27.89-21.29l-.58-.42c-.13.2-12.8 19.62-27.36 20.95Zm-7.91-.67c9.93 7.01 18.24 17.38 25.4 31.68l.62-.37c-7.21-14.42-15.59-24.87-25.62-31.95l-.4.64Zm211.61-7.56.08.75c16.77-2.62 34.86-1.2 40.8-.74 1.44.11 1.95.15 2.12.13l-.05-.76c-.14.01-.96-.05-2-.13-5.96-.47-24.1-1.89-40.95.75Zm-26.78 8.58.29.69c14.48-7.31 25.8-39.43 26.28-40.8l-.66-.25c-.11.33-11.69 33.19-25.9 40.36Z"/></g><path fill="url(#f)" d="M363.66 35.05C351.26-8.35 284.61 14.57 258 58.58c-7.72 12.77-14.11 19.24-19.83 21.85-17.29 6.62-29.27 14.78-37.01 21.01-22.45 18.08-26.59 33.85-47.64 45.49-13.3 7.35-26.42 9.22-35.27 9.67.21 1.93.17 3.94-.16 6.02l-1.77 11.13c7.66 4.79 15.76 7.89 21.12-2.67 8.32-16.4 37.3-10.74 46.59-3.81 11.49 8.58 38.65 27.97 51.89 2.82 11.02-20.93 14.12-36.79 41.52-32.65 27.4 4.14 47.37-8 50.86-34.42 3.67-27.8 42.49-43.06 35.37-67.97Z"/><g fill="#fff" opacity=".5"><path d="M250.62 109.82a298.24 298.24 0 0 1-66.3 23.68c-1.53.8-3.08 1.59-4.63 2.35a299.05 299.05 0 0 0 73.4-25.81c-.82-.09-1.65-.17-2.47-.23Zm110.43-92.8c-25.37 34.96-58.38 63.87-95.53 84.9l.77.77.18.18c37.15-21.1 70.17-50.06 95.57-85.05l-.99-.8ZM178.41 136.49l-1.85.88c33.87 8.26 54.28 44.35 54.49 44.72l1.08-.68c-.21-.37-20.25-35.82-53.71-44.92Zm15.61-72.75c.44-1.53.67-2.41.69-2.49l-1.2-.33c-.02.08-.27 1.05-.75 2.71l1.27.11Zm73.72 40.47c.35.38.74.82 1.14 1.29 26.37-.36 55.64 20.69 55.97 20.92l.71-1.09c-.33-.24-30.74-22.1-57.82-21.12Z"/><path d="m308.8 72.42.91.89C332.14 47.7 331.49.72 331.48.25l-1.25.04c.01.47.65 46.92-21.43 72.13Z"/></g><path fill="url(#g)" d="m339.15 321.39-310.03 28c-4.63.38-11.27-5.74-11.27-10.39V104.16a7.95 7.95 0 0 1 7.84-7.95l312.71-4.33c4.43-.06 12.81 3.21 12.81 7.64l-4.75 213.93a7.94 7.94 0 0 1-7.3 7.92Z"/><path fill="url(#h)" d="M345.46 323.56 32.75 349.09a7.94 7.94 0 0 1-8.59-7.92V106.33A7.95 7.95 0 0 1 32 98.38l312.71-4.33a7.96 7.96 0 0 1 8.06 7.95v213.63a7.94 7.94 0 0 1-7.3 7.92Z"/><path fill="url(#i)" d="m60.37 339.56 264.87-21.1a8.14 8.14 0 0 0 7.49-8.11V107.66a8.14 8.14 0 0 0-8.26-8.14L59.6 103.59a8.14 8.14 0 0 0-8.01 8.14v219.71a8.13 8.13 0 0 0 8.78 8.11Z"/><path fill="#20415b" d="M343.8 215.78a2.77 2.77 0 0 1-2.77-2.77v-20.54a2.77 2.77 0 1 1 5.54 0v20.54a2.77 2.77 0 0 1-2.77 2.77Z"/><path fill="#fff" d="M285.98 273.3c-24.12-21.05-43.46-12.82-68.98-34.2-31.68-26.55-15.9-51.03-43.79-74.41-34.87-29.23-77-5.52-103.17-34.8-6.85-7.66-10.66-16.79-12.66-25.94a8.13 8.13 0 0 0-5.78 7.79v219.71a8.13 8.13 0 0 0 8.78 8.11l253.64-20.21c-4.64-15.74-12.9-32.84-28.04-46.05Z" opacity=".9"/><path fill="#8d93a1" d="m295.83 206.68-206.06 7.76c-3.49.13-6.33-2.4-6.33-5.65V195c0-3.23 2.83-5.93 6.31-6.03l205.27-5.93c3-.09 5.51 2.26 5.61 5.25l.45 12.75c.11 3-2.24 5.53-5.25 5.64ZM98.07 219.32l18.68 68.34c1.19 4.36 5.39 7.19 10.17 6.87l138.78-9.18a9.82 9.82 0 0 0 8.89-7.72l14.18-65.84-190.72 7.53Zm52.94 62.45a5.44 5.44 0 0 1-5.14 5.32l-4.97.32c-2.89.18-5.25-1.91-5.27-4.67l-.45-53.41a5.26 5.26 0 0 1 5.14-5.13l4.92-.21a4.84 4.84 0 0 1 5.2 4.68l.57 53.12Zm27.37-1.7a5.33 5.33 0 0 1-5.02 5.26l-4.87.31a4.75 4.75 0 0 1-5.19-4.63l-.68-52.88a5.17 5.17 0 0 1 5.02-5.08l4.82-.2a4.8 4.8 0 0 1 5.12 4.63l.8 52.6Zm26.85-1.67a5.21 5.21 0 0 1-4.9 5.2l-4.78.31a4.71 4.71 0 0 1-5.12-4.59l-.89-52.36a5.05 5.05 0 0 1 4.9-5.03l4.73-.2a4.74 4.74 0 0 1 5.04 4.59l1.01 52.08Zm26.34-1.64a5.12 5.12 0 0 1-4.79 5.15l-4.69.3a4.67 4.67 0 0 1-5.04-4.55l-1.11-51.86a4.95 4.95 0 0 1 4.79-4.98l4.64-.19a4.7 4.7 0 0 1 4.97 4.55l1.22 51.58Zm25.84-1.61a5.03 5.03 0 0 1-4.68 5.1l-4.6.29a4.63 4.63 0 0 1-4.97-4.51l-1.31-51.36a4.86 4.86 0 0 1 4.68-4.93l4.56-.19a4.66 4.66 0 0 1 4.9 4.51l1.42 51.09Zm-75.33-153.7c-1.04-1.1-3.14-.94-4.7.37l-64.9 54.49c-1.66 1.4-2.14 3.45-1.05 4.58s3.31.91 4.97-.49l64.73-54.58c1.56-1.31 1.98-3.27.94-4.37Zm25.58-.25c.99-1.1 3.07-.95 4.66.34l63 51.27c1.54 1.25 2.03 3.18 1.1 4.3-.94 1.12-2.95 1.01-4.5-.25l-63.17-51.31c-1.59-1.29-2.08-3.24-1.09-4.34Z" opacity=".3"/><path fill="#ff6100" d="M251.49 211.48c-2.79 30.15-29.48 53.97-59.72 53.2-30.34-.77-52.74-26-49.93-56.34 2.81-30.34 29.74-54.15 60.06-53.19 30.22.96 52.38 26.18 49.59 56.33Z"/><path fill="#fff" d="M197.38 244.57c-19.1 0-34.64-15.54-34.64-34.65s15.54-34.65 34.64-34.65 34.64 15.54 34.64 34.65-15.54 34.65-34.64 34.65Zm0-56.56c-12.07 0-21.9 9.83-21.9 21.91s9.82 21.91 21.9 21.91 21.9-9.83 21.9-21.91-9.82-21.91-21.9-21.91Z"/><path fill="#fff" d="M181.35 233.85a6.37 6.37 0 0 1-4.52-10.86l34.58-34.8a6.37 6.37 0 1 1 9.04 8.98l-34.58 34.8a6.37 6.37 0 0 1-4.52 1.88Z"/><path fill="#ff6100" d="M192.14 250.16c-3.97-7.03 4.07-12.82 4.39-26.84.5-21.29-17.54-29.01-15.13-46.98.67-4.99 3.15-12.46 12.46-20.86-26.91 3.02-49.48 25.24-52.03 52.86-2.81 30.34 19.59 55.56 49.93 56.34a57.3 57.3 0 0 0 28.97-7.11c-11.32.76-24.4.03-28.6-7.41Z" opacity=".2"/><path fill="#0270ca" d="m106.84 338.16 77.02-19.27 3.85 18.72-70.51 32.56-55.83-13.8-33.68-33.08 79.15 14.88Z"/><path fill="url(#j)" d="M104.42 364.07a208.89 208.89 0 0 0 34.29-22.89c15.1-12.44 22.03-21.82 37.31-25.53 2.73-.66 18.3-4.44 23.32 2.48 5.56 7.66-5.25 23.67-6.56 25.61-19.53 28.92-69.27 27.57-84.87 26.63l-3.49-6.3Z"/><path fill="url(#k)" d="M199.33 318.13c-1.47-2.02-3.85-3.11-6.53-3.65.89 3.1.98 6-.14 8.54-3.05 6.93-12.09 4.8-18.44 12.94-6.23 7.99-1.92 15.7-7.43 18.99-6.32 3.78-14.15-5.05-20.91-.83-4.6 2.87-3.17 8.32-8.53 11.29-3.7 2.05-7.34 1.08-11.56.55a59.52 59.52 0 0 0-19.78 1l1.89 3.41c15.6.94 65.34 2.29 84.87-26.63 1.31-1.94 12.12-17.95 6.56-25.61Z" opacity=".3"/><path fill="#20415b" d="M115.99 368.4s2.81-2.01 6.88-.64c4.07 1.37 10.53 2.48 10.52 4.47 0 1.99-6.48 3.24-10.95 2.42-4.28-.78-7.64-4.5-6.46-6.25Z"/><path fill="url(#l)" d="m111.88 365 7.49 2.41s1.22 2.03-.43 3.31c-1.64 1.29-7.35-1.43-7.35-1.43l.28-4.29Z"/><path fill="url(#m)" d="M7.75 330.45c-2.21 12.88 25.58 26.82 31.95 30.01 12.97 6.5 37.37 15.68 73.58 12.17l1.44-8.67a171.72 171.72 0 0 1-20.1-8.35c-14.04-6.91-19.37-11.84-38.85-23.63-21.56-13.04-27.84-14.71-34.26-13.1-5.49 1.38-12.73 5.58-13.76 11.56Z"/><path fill="url(#n)" d="M36.71 305.95c-4.7-17 3.06-39.94 19.4-51 13.34-9.03 28.97-8.44 33.85-8.26 5.34.2 4.79.89 21.59 4 23.33 4.32 25.48 3.27 32.27 6.52 12.76 6.12 18.95 17.24 20.11 19.4 5.93 11.07 10.76 31.65-.51 41.71-6.4 5.72-15.38 5.7-20.43 5.16l-1.03-6.81c1.03-.8 7.09-5.66 7.84-14.25.86-9.87-6.03-16.24-6.81-16.93a66.89 66.89 0 0 0-5.21 48.35 79.9 79.9 0 0 1-29.66 9.46c-10.01 1.11-22.41-1.01-30.34-7.21-11.18-8.74-12.13-28.02-1.08-51.72-4.04 2.71-9.9 7.61-12.33 15.37-.37 1.17-.99 3.48-1.24 12.39-.45 16.01-21.55 11.42-26.42-6.19Z"/><path fill="#ff6100" d="M112.46 317.72c-5.63.69-7.16 6.54-12.38 6.19-11.36-.74-20.49-20.42-15.69-31.18 3.13-7.01 11.29-8.23 10.73-12.8-.45-3.66-6.11-6.47-10.73-6.61-7.2-.21-11.95 6.06-13.62 8.26-3.9 5.14-4.74 10.79-4.83 14.42 2.86-5.62 7.42-9.38 10.76-11.62-11.05 23.7-10.1 42.54 1.08 51.29 7.93 6.2 20.32 8.76 30.34 7.65a79.43 79.43 0 0 0 25.75-7.44c-6.04-9.83-13.73-19.1-21.42-18.16Z" opacity=".3"/><path fill="url(#o)" d="m132.08 333.76-65.86-.98 17.51 8.45 48.51-3.18-.17-4.29Z"/><path fill="url(#p)" d="M39.91 294.62c5.08-4.81 17.55-1.78 22.2 5.13 3.42 5.09.59 9.28 3.1 15.69 3.07 7.86 14.65 14.96 21.76 17.32-1.11 2.4-.79 3.02-1.9 5.42-4.53-.57-37.24-5.58-45.25-25.01-.42-1.01-5.36-13.39.09-18.55Z"/><path fill="#fff" d="M114.16 243.89s-5.33 5.76-9.75 6.36c-4.42.6-10.81-.58-11.91 0-1.1.57 5.55 2.94 10.83 4.39 5.28 1.45 14.86 4.34 17.51 3.71 2.65-.63-2.89-4.03-5.09-4.93-2.19-.9.95-5.53.95-5.53l-2.53-4Z"/><path fill="url(#q)" d="M122.06 247.19a5.34 5.34 0 0 0 3.66-4.93c-.02-1.93-1.37-3.24-2.18-4.03-2.35-2.28-6.43-3.71-9.38-2.21-1.75.89-2.55 4.93-2.73 5.63-.2.79.11 1.35.19 2.14.12 1.08.29 2.79.54 5.63.5-.4 1.14-.86 1.93-1.3.3-.17 1.51-.81 2.81-1.11 2.6-.6 3.33.7 5.16.2Z"/><path fill="#fff" d="M111.06 246.33s-.45 4.08 3.1 6.46c3.17 2.13 8.83-4.3 8.01-7.23a4.84 4.84 0 0 0-2.68-2.68c-.75-.3-1.16-.21-2.38-.73-1.12-.48-1.31-.79-1.78-.77-.58.02-1.4.56-2.34 2.99-.13-1.03-.65-1.78-1.31-1.93a1.35 1.35 0 0 0-.7.08c-1.02.45-1.07 1.98.1 3.79Z"/><path fill="url(#r)" d="M115.5 240.88c.06.22-.8.42-1.43 1.16-1.21 1.44-1.08 4.4.34 5.74.84.79 1.51.43 3.14 1.44a8.83 8.83 0 0 1 2.1 1.82c-.79 2-2.49 3.29-4.17 3.21-1.81-.09-2.93-1.75-3.4-2.44-.31-.46-1.32-1.94-1.08-3.72.26-1.85 1.58-2.08 1.41-3.6-.09-.77-.5-1.39-.39-2.66.03-.35.09-.63.14-.81 1.42-.23 3.24-.46 3.33-.14Z"/><path fill="url(#s)" d="M118.1 250.8s-.91-.16-1.99-1.09c-.05-.04-.13-.07-.15-.05-.11.09.25 1.12 1.05 1.45.58.23 1.29.07 1.31-.1.01-.07-.1-.15-.22-.21Z"/><path fill="url(#t)" d="m88.71 299.66-4.64 42.28c-.16 1.46 1.88 3.63 3.35 3.56l68.1-4.18a2.39 2.39 0 0 0 2.24-1.98l8.55-40.84c.25-1.49-2.42-3.02-3.92-2.98l-71.36 2.01a2.39 2.39 0 0 0-2.31 2.13Z"/><path fill="url(#u)" d="m90.26 300.89-4.64 42.28a2.4 2.4 0 0 0 2.49 2.65l68.96-3.27a2.39 2.39 0 0 0 2.24-1.98l7.05-41.02a2.38 2.38 0 0 0-2.42-2.79l-71.36 2.01a2.39 2.39 0 0 0-2.31 2.13Z"/><path fill="url(#v)" d="M130.75 332.65c-6.02-2.55-3.9-7.42-11.01-13.49-9.38-8-18.94-4.53-22.29-10.74-1.04-1.93-1.54-4.94.28-9.8l-5.17.15a2.39 2.39 0 0 0-2.31 2.13l-4.64 42.28a2.4 2.4 0 0 0 2.49 2.65l68.96-3.27a2.39 2.39 0 0 0 2.24-1.98l.97-5.66a26.36 26.36 0 0 0-7.51-2.82c-10.12-2.05-15.08 3.49-22.01.55Z" opacity=".3"/><path fill="#fff" d="M82.99 336.72c2.88 2.7 4.81 2.46 5.45 2.31 1.08-.25 1.23-.85 3.98-3.01 2.46-1.92 3.23-2.14 3.2-2.8-.05-1.26-2.92-2.36-5.25-2.47-3.27-.16-5.74 1.59-6.71 2.37l-.68 3.6Z"/></svg>