<svg xmlns="http://www.w3.org/2000/svg" width="268" height="24" fill="none"><g clip-path="url(#a)"><path fill="#FF5A00" d="M24.8 2.54H14.5v18.67h10.3V2.54Z"/><path fill="#EB001B" d="M15.2 11.88c0-3.8 1.76-7.16 4.47-9.34C17.67.96 15.16 0 12.42 0A11.8 11.8 0 0 0 .67 11.88a11.8 11.8 0 0 0 11.75 11.87c2.74 0 5.25-.96 7.25-2.54a11.9 11.9 0 0 1-4.48-9.33Z"/><path fill="#F79E1B" d="M38.67 11.88A11.8 11.8 0 0 1 26.9 23.75a11.6 11.6 0 0 1-7.24-2.54 11.95 11.95 0 0 0 0-18.67A11.6 11.6 0 0 1 26.9 0c6.5 0 11.76 5.35 11.76 11.88Z"/></g><g clip-path="url(#b)"><path fill="#1434CB" d="M102.42 1.03c-5.2 0-9.85 2.5-9.85 7.1 0 5.28 8.24 5.64 8.24 8.3 0 1.1-1.38 2.1-3.75 2.1-3.35 0-5.86-1.39-5.86-1.39l-1.07 4.65s2.89 1.18 6.72 1.18c5.69 0 10.17-2.62 10.17-7.3 0-5.58-8.28-5.93-8.28-8.4 0-.87 1.13-1.82 3.5-1.82a12.7 12.7 0 0 1 4.82 1.01l1.05-4.48s-2.36-.95-5.69-.95Zm-47.6.34-.12.68s2.2.37 4.16 1.1c2.54.85 2.72 1.35 3.15 2.88l4.66 16.59h6.24l9.62-21.25H76.3l-6.18 14.45L67.6 3.57c-.23-1.4-1.4-2.2-2.84-2.2h-9.93Zm30.21 0-4.88 21.25h5.94l4.87-21.25h-5.93Zm33.13 0c-1.43 0-2.19.71-2.75 1.95l-8.7 19.3h6.23l1.2-3.22h7.6l.73 3.22h5.5l-4.8-21.25h-5Zm.81 5.74 1.85 7.97h-4.95l3.1-7.97Z"/></g><g clip-path="url(#c)"><path fill="#5F6368" d="M167.63 12.4v5.87h-1.88V3.78h4.88c1.18 0 2.3.44 3.18 1.26a4.02 4.02 0 0 1 1.31 3.09 4.1 4.1 0 0 1-1.3 3.08 4.52 4.52 0 0 1-3.2 1.26l-3-.06Zm0-6.86v5.04h3.12a2.4 2.4 0 0 0 1.81-.75c1-.95 1-2.52.06-3.47l-.06-.06c-.5-.5-1.12-.82-1.81-.76h-3.13Zm11.81 2.52c1.37 0 2.44.38 3.25 1.14a3.91 3.91 0 0 1 1.19 3.02v6.05h-1.75v-1.39h-.07a3.55 3.55 0 0 1-3.06 1.7c-1.06 0-2-.31-2.75-.94a3.36 3.36 0 0 1-1.13-2.46c0-1 .38-1.83 1.13-2.46a4.67 4.67 0 0 1 3.06-.88c1.13 0 2 .2 2.69.63v-.44c0-.63-.25-1.26-.75-1.64a2.72 2.72 0 0 0-1.81-.69c-1.06 0-1.88.44-2.44 1.32l-1.63-1a4.75 4.75 0 0 1 4.07-1.96Zm-2.38 7.18c0 .5.25.95.63 1.2.44.32.94.5 1.44.5.75 0 1.5-.31 2.06-.88.62-.56.94-1.26.94-2.01a3.88 3.88 0 0 0-2.44-.7c-.75 0-1.38.2-1.88.57-.5.32-.75.76-.75 1.32ZM194 8.38l-6.19 14.3h-1.87l2.31-4.98-4.06-9.26h2l2.94 7.12h.06l2.87-7.12H194v-.06Z"/><path fill="#4285F4" d="M160.19 11.15c0-.57-.06-1.13-.13-1.7h-7.81v3.21h4.44c-.19 1-.75 1.95-1.63 2.52v2.08h2.69a8.14 8.14 0 0 0 2.44-6.11Z"/><path fill="#34A853" d="M152.25 19.28c2.25 0 4.13-.76 5.5-2.02l-2.69-2.08a4.96 4.96 0 0 1-7.44-2.64h-2.75v2.14a8.25 8.25 0 0 0 7.38 4.6Z"/><path fill="#FBBC04" d="M147.63 12.54a4.69 4.69 0 0 1 0-3.22V7.18h-2.75a8.33 8.33 0 0 0 0 7.5l2.75-2.14Z"/><path fill="#EA4335" d="M152.25 5.92c1.19 0 2.31.44 3.19 1.26l2.37-2.4a7.87 7.87 0 0 0-5.5-2.13c-3.12 0-6 1.76-7.37 4.6l2.75 2.14a4.77 4.77 0 0 1 4.56-3.47Z"/></g><g clip-path="url(#d)"><path fill="#000" d="M220.6 3.1c-.68.8-1.76 1.44-2.85 1.35a4.1 4.1 0 0 1 1.02-2.98A4.25 4.25 0 0 1 221.6 0a4.36 4.36 0 0 1-1 3.1Zm.99 1.57c-1.58-.1-2.93.9-3.67.9-.76 0-1.9-.85-3.15-.83a4.65 4.65 0 0 0-3.96 2.42c-1.7 2.94-.44 7.3 1.2 9.7.81 1.2 1.77 2.5 3.04 2.45 1.2-.05 1.68-.79 3.13-.79 1.46 0 1.88.79 3.15.76 1.31-.02 2.14-1.18 2.94-2.37a10.4 10.4 0 0 0 1.32-2.73c-.03-.02-2.54-1-2.56-3.92-.03-2.44 1.98-3.6 2.07-3.67a4.48 4.48 0 0 0-3.51-1.92Zm9.1-3.31v17.8h2.74v-6.09h3.8c3.46 0 5.9-2.4 5.9-5.87s-2.4-5.84-5.82-5.84h-6.63Zm2.74 2.33h3.16c2.38 0 3.73 1.28 3.73 3.53s-1.35 3.54-3.75 3.54h-3.14V3.69Zm14.7 15.6a4.5 4.5 0 0 0 4.04-2.27h.06v2.14h2.54V10.3c0-2.57-2.04-4.23-5.18-4.23-2.91 0-5.06 1.68-5.14 3.99h2.47c.2-1.1 1.21-1.82 2.6-1.82 1.67 0 2.6.8 2.6 2.24v.98l-3.41.2c-3.19.2-4.9 1.52-4.9 3.8 0 2.3 1.77 3.84 4.32 3.84Zm.74-2.1c-1.47 0-2.4-.71-2.4-1.8 0-1.12.9-1.77 2.61-1.87l3.05-.2v1c0 1.68-1.4 2.86-3.26 2.86Zm9.28 6.81c2.68 0 3.94-1.03 5.04-4.14l4.8-13.61h-2.78l-3.23 10.51h-.05L258.7 6.25h-2.87l4.65 12.95-.25.8c-.42 1.33-1.1 1.84-2.31 1.84-.22 0-.64-.02-.8-.04v2.13c.15.05.83.07 1.03.07Z"/></g><defs><clipPath id="a"><path fill="#fff" d="M.67 0h38v24h-38z"/></clipPath><clipPath id="b"><path fill="#fff" d="M54.67 1H128v22H54.67z"/></clipPath><clipPath id="c"><path fill="#fff" d="M144 0h50v24h-50z"/></clipPath><clipPath id="d"><path fill="#fff" d="M210 0h58v24h-58z"/></clipPath></defs></svg>