<?xml version="1.0" standalone="no"?>
<!DOCTYPE svg PUBLIC "-//W3C//DTD SVG 20010904//EN"
 "http://www.w3.org/TR/2001/REC-SVG-20010904/DTD/svg10.dtd">
<svg version="1.0" xmlns="http://www.w3.org/2000/svg"
 width="260.000000pt" height="260.000000pt" viewBox="0 0 260.000000 260.000000"
 preserveAspectRatio="xMidYMid meet">
<metadata>
Created by potrace 1.14, written by Peter Selinger 2001-2017
</metadata>
<g transform="translate(0.000000,260.000000) scale(0.100000,-0.100000)"
fill="#000000" stroke="none">
<path d="M184 2045 c-16 -7 -40 -25 -54 -40 -25 -26 -25 -30 -28 -214 -3 -188
-3 -188 22 -218 17 -20 43 -35 86 -47 92 -25 153 -73 192 -151 31 -60 4 -160
-62 -226 -37 -37 -109 -78 -138 -79 -29 0 -80 -32 -91 -56 -7 -16 -11 -89 -11
-195 0 -189 5 -210 62 -251 l33 -23 1098 -1 c1218 -1 1137 -6 1184 65 l23 34
-1 616 c0 339 -3 624 -7 633 -15 36 -125 148 -156 157 -49 15 -2116 11 -2152
-4z"/>
</g>
</svg>
