<svg xmlns="http://www.w3.org/2000/svg" width="161" height="24" fill="none"><path fill="#000" fill-rule="evenodd" d="M6.27 7.89a6.43 6.43 0 0 1 6.4-6.49c3.56 0 6.4 2.9 6.4 6.49v.1a2.84 2.84 0 0 1 1.8 2.64v9.14a2.82 2.82 0 0 1-2.8 2.83H7.27a2.82 2.82 0 0 1-2.8-2.83v-9.14c0-1.2.74-2.23 1.8-2.64v-.1Zm2-.09h8.8c-.05-2.46-2-4.4-4.4-4.4a4.43 4.43 0 0 0-4.4 4.4Zm-1 2c-.43 0-.8.36-.8.83v9.14c0 .47.37.83.8.83h10.8c.42 0 .8-.36.8-.83v-9.14a.82.82 0 0 0-.8-.83H7.27Zm5.4 3a1 1 0 0 1 1 1v2.4a1 1 0 1 1-2 0v-2.4a1 1 0 0 1 1-1Z" clip-rule="evenodd"/><path fill="#000" d="m40.84 6.96-.13 1.17h-5.24V18h-1.41V6.96l1.71-.06a46.26 46.26 0 0 1 3.4 0c.56 0 1.12.03 1.67.06Zm-3.04 4.75c.92 0 1.64.1 2.16.32.54.2.91.54 1.14 1.01.22.47.33 1.1.33 1.92a5 5 0 0 1-.24 1.71c-.16.42-.4.73-.72.95-.32.2-.72.35-1.21.41-.48.08-1.05.11-1.7.11A40.23 40.23 0 0 1 34.1 18l.22-1.12 1.27.03 2.22.02a4.5 4.5 0 0 0 1.36-.16 1 1 0 0 0 .66-.6c.13-.3.19-.72.19-1.27 0-.53-.06-.94-.18-1.24-.1-.3-.32-.5-.64-.64-.32-.13-.78-.2-1.39-.2h-3.5v-1.1h3.5Zm8.9-1.7c1.18 0 2.03.22 2.55.65.54.42.8 1.06.82 1.9 0 .7-.15 1.24-.45 1.63-.29.39-.76.58-1.4.58h-4.57V13.7h4.21c.34 0 .57-.12.67-.35.12-.25.17-.51.16-.8 0-.5-.14-.86-.43-1.07-.29-.22-.78-.32-1.49-.32-.56 0-1.01.08-1.34.25a1.4 1.4 0 0 0-.69.87c-.13.4-.2.97-.2 1.71 0 .83.09 1.47.25 1.9.17.44.44.74.8.9.36.16.84.24 1.44.24a21.22 21.22 0 0 0 2.72-.2l.13.92c-.24.1-.54.18-.9.24a12.34 12.34 0 0 1-2.13.2 5 5 0 0 1-2.16-.4 2.47 2.47 0 0 1-1.18-1.32c-.25-.6-.37-1.4-.37-2.4 0-1.02.12-1.83.37-2.42a2.3 2.3 0 0 1 1.17-1.26c.52-.26 1.2-.38 2.03-.38Zm7.48.07c.86 0 1.55.06 2.06.18.52.1.88.3 1.1.6.24.3.36.73.36 1.3 0 .55-.12.98-.37 1.28-.23.3-.66.47-1.28.53v.05c.7.05 1.19.24 1.47.57.3.33.45.83.45 1.49 0 .54-.1.97-.33 1.26-.23.3-.58.51-1.08.63-.49.12-1.13.17-1.93.17a19.68 19.68 0 0 1-3.09-.24l.11-1.04c.35.04.8.07 1.31.1l1.57.03c.8 0 1.33-.08 1.6-.24.3-.17.43-.49.43-.96 0-.33-.06-.58-.19-.77-.11-.18-.32-.3-.62-.38a4.93 4.93 0 0 0-1.19-.11H52.7v-1l1.86-.01c.47 0 .83-.03 1.09-.1.26-.07.45-.2.56-.36.1-.17.16-.41.16-.72s-.07-.54-.21-.7a1.08 1.08 0 0 0-.66-.31 6.2 6.2 0 0 0-1.3-.1 24.4 24.4 0 0 0-2.3.13l-.1-1.04c.43-.1.85-.17 1.27-.2.43-.02.8-.04 1.12-.04Zm12.58.13V18H65.4v-7.8h1.35Zm-5.35 0V18H60.1v-7.8h1.32Zm4.15 0-.02 1.1h-4.2v-1.1h4.22Zm6.93-.2c1.17 0 2.02.22 2.54.65.54.42.8 1.06.82 1.9 0 .7-.15 1.24-.45 1.63-.29.39-.76.58-1.4.58h-4.57V13.7h4.21c.34 0 .57-.12.67-.35.12-.25.17-.51.16-.8 0-.5-.14-.86-.43-1.07-.29-.22-.78-.32-1.49-.32-.56 0-1.01.08-1.34.25a1.4 1.4 0 0 0-.69.87c-.13.4-.2.97-.2 1.71 0 .83.09 1.47.25 1.9.17.44.44.74.8.9.36.16.84.24 1.44.24a21.22 21.22 0 0 0 2.72-.2l.13.92c-.24.1-.54.18-.9.24a12.34 12.34 0 0 1-2.13.2 5 5 0 0 1-2.16-.4 2.47 2.47 0 0 1-1.18-1.32c-.25-.6-.37-1.4-.37-2.4 0-1.02.12-1.83.37-2.42.26-.6.64-1.01 1.17-1.26.52-.26 1.2-.38 2.03-.38Zm6.4.2v2.93c0 .38.08.65.24.81.17.15.44.23.82.23a6.68 6.68 0 0 0 2.75-.61l.13 1.04a9.05 9.05 0 0 1-3.33.69c-.65 0-1.14-.14-1.47-.42-.32-.29-.48-.72-.48-1.3v-3.37h1.34Zm5 0V18h-1.35v-7.8h1.36Zm3.9 0V18h-1.34v-7.8h1.34Zm4.24 3.13v1.04h-4.34v-1.04h4.34Zm1.2-3.13V18h-1.34v-7.8h1.34Zm6.22-.2c.58 0 1.06.09 1.46.25.4.15.7.4.9.76.2.37.3.86.3 1.5V18h-1.07l-.21-1.7-.08-.17V12.5c-.01-.48-.12-.82-.34-1.02-.2-.22-.63-.32-1.24-.32-.42 0-.94.02-1.56.06l-1.8.15-.13-1.01a22.86 22.86 0 0 1 3.77-.35Zm2.02 3.19-.02 1.02-3.7.02c-.38.01-.65.11-.8.3-.16.19-.23.44-.23.77v.5c0 .4.1.7.29.9.2.18.5.27.92.27.3 0 .64-.06 1.01-.16a5.03 5.03 0 0 0 2.21-1.43v1.01a5.55 5.55 0 0 1-2.29 1.57c-.37.12-.77.17-1.2.17-.46 0-.86-.08-1.21-.24a1.89 1.89 0 0 1-.82-.73c-.2-.33-.29-.73-.29-1.2v-.85c0-.6.19-1.08.56-1.4a2.3 2.3 0 0 1 1.6-.52h3.97Zm10-3.18c.89 0 1.6.13 2.14.4.53.26.91.7 1.15 1.3.24.6.36 1.4.36 2.4 0 .98-.12 1.78-.36 2.4a2.38 2.38 0 0 1-1.16 1.29c-.53.26-1.24.4-2.14.4-.9 0-1.61-.14-2.16-.4a2.4 2.4 0 0 1-1.17-1.3c-.23-.6-.35-1.4-.35-2.4 0-.99.12-1.78.35-2.38a2.4 2.4 0 0 1 1.17-1.31c.55-.27 1.27-.4 2.16-.4Zm0 1.15a2.8 2.8 0 0 0-1.35.27c-.33.17-.57.47-.7.9-.15.42-.22 1.01-.22 1.77s.07 1.35.21 1.78c.14.42.38.73.7.91a3 3 0 0 0 1.35.26c.57 0 1-.09 1.33-.26.33-.18.56-.49.7-.91a6 6 0 0 0 .21-1.78 6 6 0 0 0-.2-1.77 1.46 1.46 0 0 0-.71-.9 2.71 2.71 0 0 0-1.33-.27Zm12.5-.96V18h-1.35v-7.8h1.34Zm-5.35 0V18h-1.33v-7.8h1.33Zm4.14 0-.02 1.1h-4.2v-1.1h4.22Zm9.97 0v1.07h-2.84c-.34 0-.58.07-.72.22-.14.14-.24.4-.3.76a41.39 41.39 0 0 1-.4 2.86c-.1.46-.2.87-.34 1.23-.13.38-.3.69-.53.95-.23.25-.5.44-.82.57a3 3 0 0 1-1.1.21l-.15-1.04c.3-.07.52-.16.7-.26.17-.1.31-.2.4-.35.11-.14.2-.3.28-.48.1-.25.18-.55.26-.88a14.63 14.63 0 0 0 .31-2.1l.12-.94c.07-.6.26-1.05.57-1.36.32-.3.8-.46 1.46-.46h3.1Zm.21 0V18h-1.36v-7.8h1.36Zm6.23-.2c.58 0 1.06.09 1.46.25.4.15.7.4.9.76.2.37.3.86.3 1.5V18h-1.07l-.21-1.7-.08-.17V12.5c-.01-.48-.12-.82-.34-1.02-.21-.22-.63-.32-1.25-.32-.41 0-.93.02-1.55.06l-1.8.15-.13-1.01a22.95 22.95 0 0 1 3.77-.35Zm2.02 3.19-.02 1.02-3.7.02c-.38.01-.65.11-.8.3-.16.19-.23.44-.23.77v.5c0 .4.1.7.28.9.2.18.52.27.93.27.3 0 .64-.06 1.01-.16a5.03 5.03 0 0 0 2.2-1.43v1.01c-.1.15-.26.33-.49.53a5.54 5.54 0 0 1-1.79 1.04c-.37.12-.77.17-1.2.17-.46 0-.86-.08-1.22-.24a1.89 1.89 0 0 1-.81-.73c-.2-.33-.29-.73-.29-1.2v-.85c0-.6.19-1.08.56-1.4.38-.35.92-.52 1.6-.52h3.97Zm6.46-3V18h-1.36v-7.8h1.36Zm2.81 0v1.13h-7V10.2h7Zm5.38-.18c.58 0 1.07.08 1.46.24.4.15.7.4.9.76.2.37.3.86.3 1.5V18h-1.07l-.2-1.7-.09-.17V12.5c-.01-.48-.12-.82-.33-1.02-.22-.22-.63-.32-1.25-.32-.42 0-.94.02-1.56.06l-1.8.15-.13-1.01a22.64 22.64 0 0 1 3.78-.35Zm2.02 3.18-.02 1.02-3.7.02c-.38.01-.65.11-.8.3-.16.19-.23.44-.23.77v.5c0 .4.1.7.29.9.2.18.5.27.92.27.3 0 .64-.06 1.01-.16a5.03 5.03 0 0 0 2.21-1.43v1.01a5.6 5.6 0 0 1-2.29 1.57c-.37.12-.77.17-1.2.17-.46 0-.86-.08-1.21-.24a1.89 1.89 0 0 1-.82-.73c-.2-.33-.29-.73-.29-1.2v-.85c0-.6.19-1.08.56-1.4a2.3 2.3 0 0 1 1.6-.52h3.97Z"/></svg>