<svg xmlns="http://www.w3.org/2000/svg" width="80" height="80" viewBox="0 0 80 80"><path d="m55.83,18.69l6.21-10.75c.22-.38.7-.5,1.07-.29l4.22,2.43c-.64,1.78.06,3.82,1.76,4.8,1.7.98,3.82.57,5.04-.87l4.22,2.43c.38.22.51.7.29,1.07l-9.35,16.18" fill="none" stroke="#ff6100" stroke-linecap="round" stroke-linejoin="round" stroke-width="2.5"/><path d="m61.09,19.11l.28.16" fill="none" stroke="#ff6100" stroke-linecap="round" stroke-linejoin="round" stroke-width="2.5"/><path d="m65.12,21.43l.28.16" fill="none" stroke="#ff6100" stroke-linecap="round" stroke-linejoin="round" stroke-width="2.5"/><path d="m69.15,23.76l.28.16" fill="none" stroke="#ff6100" stroke-linecap="round" stroke-linejoin="round" stroke-width="2.5"/><path d="m20.17,66.43v6.36c0,1.3-1.06,2.36-2.36,2.36h-2.55c-1.3,0-2.36-1.05-2.36-2.36v-3.68" fill="none" stroke="#0270ca" stroke-linecap="round" stroke-linejoin="round" stroke-width="2.5"/><path d="m36.65,10v-4.36c0-.43.35-.79.79-.79h4.87c.34,1.86,1.97,3.28,3.93,3.28s3.59-1.41,3.93-3.28h4.87c.44,0,.79.35.79.79v28.05" fill="none" stroke="#ff6100" stroke-linecap="round" stroke-linejoin="round" stroke-width="2.5"/><path d="m36.65,27.38v-12.68" fill="none" stroke="#ff6100" stroke-linecap="round" stroke-linejoin="round" stroke-width="2.5"/><path d="m41.42,15.79h.33" fill="none" stroke="#ff6100" stroke-linecap="round" stroke-linejoin="round" stroke-width="2.5"/><path d="m46.08,15.79h.33" fill="none" stroke="#ff6100" stroke-linecap="round" stroke-linejoin="round" stroke-width="2.5"/><path d="m50.73,15.79h.33" fill="none" stroke="#ff6100" stroke-linecap="round" stroke-linejoin="round" stroke-width="2.5"/><path d="m16.54,66.43h10.13c0,1.18.48,2.26,1.26,3.03.78.78,1.85,1.26,3.04,1.26h2.43m-24.12-4.29H1.25m8.02-27.38H1.25m15.29,0h5.26l7.56-13.18c.91-1.59,2.61-2.57,4.44-2.57h2.75v10.38h24.8m-23.25,37.04h21.63c2.53,0,4.66-1.98,4.73-4.5.07-2.62-2.03-4.76-4.63-4.76h3c2.53,0,4.66-1.98,4.73-4.5.07-2.62-2.03-4.76-4.63-4.76h3c2.53,0,4.66-1.98,4.73-4.5.07-2.62-2.03-4.76-4.63-4.76h3.12c2.6,0,4.7-2.14,4.63-4.76-.07-2.52-2.2-4.5-4.73-4.5h-3.02" fill="none" stroke="#0593ff" stroke-linecap="round" stroke-linejoin="round" stroke-width="2.5"/><path d="m9.27,47.01h7.27" fill="none" stroke="#0270ca" stroke-linecap="round" stroke-linejoin="round" stroke-width="2.5"/><path d="m9.27,38.73v28.03c0,1.3,1.06,2.36,2.36,2.36h2.55c1.3,0,2.36-1.05,2.36-2.36v-28.03c0-1.3-1.06-2.36-2.36-2.36h-2.55c-1.3,0-2.36,1.05-2.36,2.36Z" fill="none" stroke="#0270ca" stroke-linecap="round" stroke-linejoin="round" stroke-width="2.5"/><path d="m12.9,51.43v.16" fill="none" stroke="#0270ca" stroke-linecap="round" stroke-linejoin="round" stroke-width="2.5"/><path d="m12.9,56.38v.16" fill="none" stroke="#0270ca" stroke-linecap="round" stroke-linejoin="round" stroke-width="2.5"/><path d="m12.9,61.34v.16" fill="none" stroke="#0270ca" stroke-linecap="round" stroke-linejoin="round" stroke-width="2.5"/><path d="m59.83,61.46h-2.84" fill="none" stroke="#0593ff" stroke-linecap="round" stroke-linejoin="round" stroke-width="2.5"/><path d="m62.93,52.2h-3.41" fill="none" stroke="#0593ff" stroke-linecap="round" stroke-linejoin="round" stroke-width="2.5"/><path d="m66.02,42.94h-4.64" fill="none" stroke="#0593ff" stroke-linecap="round" stroke-linejoin="round" stroke-width="2.5"/></svg>