<svg xmlns="http://www.w3.org/2000/svg" width="588" height="410"><defs><linearGradient id="a" x1="455.03" x2="455.03" y1="302.29" y2="89.55" gradientTransform="matrix(1 0 0 -1 0 410)" gradientUnits="userSpaceOnUse"><stop offset="0" stop-color="#ffcf1b"/><stop offset=".6" stop-color="#ff6100"/></linearGradient><linearGradient id="c" x1="506.11" x2="833.44" y1="133.32" y2="129.94" gradientTransform="matrix(1 0 0 -1 0 410)" gradientUnits="userSpaceOnUse"><stop offset="0" stop-color="#ffcf1b"/><stop offset=".3" stop-color="#ff6100"/></linearGradient><linearGradient id="e" x1="46.54" x2="46.54" y1="62.53" y2="43.74" gradientTransform="matrix(1 0 0 -1 0 410)" gradientUnits="userSpaceOnUse"><stop offset="0" stop-color="#0270ca"/><stop offset="1" stop-color="#20415b"/></linearGradient><linearGradient id="f" x1="79.63" x2="79.63" y1="70.13" y2="23.27" gradientTransform="matrix(1 0 0 -1 0 410)" gradientUnits="userSpaceOnUse"><stop offset="0" stop-color="#0270ca"/><stop offset="1" stop-color="#20415b"/></linearGradient><linearGradient id="g" x1="66.74" x2="66.74" y1="62.37" y2="151.83" gradientTransform="matrix(1 0 0 -1 0 410)" gradientUnits="userSpaceOnUse"><stop offset="0" stop-color="#ffcf1b"/><stop offset="1" stop-color="#ff8709"/></linearGradient><mask id="b" width="135.88" height="232.7" x="390.93" y="97.52" maskUnits="userSpaceOnUse"><path fill="#fff" stroke-width="0" d="M429.03 316.05c-28.7-12.95-40.43-51.03-30.66-64.03 5.08-6.76 13.88-3.94 18.17-11.66 4.76-8.56-3.69-16.26-6.92-36.41-1.67-10.41-4.7-29.29 4.82-38.21 9.44-8.85 21.81.91 32.5-8.05 10.1-8.48 2.88-20.42 14.26-35.31 1.06-1.38 13.15-16.82 25.97-14.41 13.02 2.45 22.18 22.45 18.83 36.99-3.04 13.21-15.52 18.04-13.25 24.94 2.5 7.6 18.47 4.23 21.79 11.79 4.8 10.93-25.07 25.96-21.9 44.18 1.86 10.72 13.02 10.33 18.3 23.23 6.82 16.66-3.41 37.76-13.74 49.42-14.98 16.9-43.3 28.75-68.17 17.53Z"/></mask><mask id="d" width="176.67" height="193.4" x="408.64" y="172.82" maskUnits="userSpaceOnUse"><path fill="#fff" stroke-width="0" d="M419.51 344.94c-18.79-25.2-10.49-64.17 4.38-70.81 7.74-3.45 14.05 3.27 21.57-1.41 8.33-5.18 4.7-16 11.68-35.18 3.61-9.91 10.15-27.88 22.82-31.08 12.57-3.17 18.63 11.34 32.34 8.67 12.96-2.52 12.47-16.46 29.66-23.98 1.6-.7 19.69-8.35 29.72-.04 10.19 8.43 8.46 30.35-1.55 41.45-9.1 10.08-22.36 8.27-23.73 15.4-1.52 7.86 14.09 12.63 13.31 20.85-1.13 11.88-34.56 10.57-40.66 28.04-3.59 10.27 6.36 15.33 4.69 29.16-2.15 17.86-21.37 31.37-36.09 36.56-21.33 7.53-51.86 4.2-68.14-17.64Z"/></mask></defs><path fill="#e6f7fe" d="M581.01 154.67C547.03 65.81 427.58 100.6 355.1 94.43 277.04 87.78 315.84 41.99 214 6.64 120.64-25.75-23.13 74.36 3.16 227.81 35.58 417.23 347.9 445.5 477.04 370.88c90.48-52.28 109.91-135.64 110.9-173.9a110.24 110.24 0 0 0-6.93-42.31Z"/><path fill="url(#a)" d="M429.03 316.05c-28.7-12.95-40.43-51.03-30.66-64.03 5.08-6.76 13.88-3.94 18.17-11.66 4.76-8.56-3.69-16.26-6.92-36.41-1.67-10.41-4.7-29.29 4.82-38.21 9.44-8.85 21.81.91 32.5-8.05 10.1-8.48 2.88-20.42 14.26-35.31 1.06-1.38 13.15-16.82 25.97-14.41 13.02 2.45 22.18 22.45 18.83 36.99-3.04 13.21-15.52 18.04-13.25 24.94 2.5 7.6 18.47 4.23 21.79 11.79 4.8 10.93-25.07 25.96-21.9 44.18 1.86 10.72 13.02 10.33 18.3 23.23 6.82 16.66-3.41 37.76-13.74 49.42-14.98 16.9-43.3 28.75-68.17 17.53Z"/><g fill="#fff" mask="url(#b)"><path d="m445.35 330.23-1-.05c1.77-38.49 5.61-74.66 11.41-107.52 4.64-26.29 10.54-50.53 17.53-72.05 11.91-36.67 23.04-52.93 23.15-53.09l.82.57c-.11.16-11.18 16.35-23.04 52.9-10.96 33.74-24.86 92.22-28.86 179.24Z"/><path d="M472.27 154.17c-11.6-28.59-6.89-54.84-6.84-55.1l.98.18c-.05.26-4.7 26.24 6.79 54.54l-.93.37Zm-17.43 73.19c-21.73-25.68-30.6-45.25-34.2-57.15-3.93-12.96-2.7-19.73-2.64-20.01l.98.19c-.01.07-1.24 6.89 2.65 19.65 3.59 11.79 12.4 31.19 33.98 56.69l-.76.64Zm-8.21 70.2c-47.15-35.24-55.62-68.82-55.7-69.16l.97-.23c.02.08 2.24 8.78 10.5 21.83 7.27 11.49 20.95 28.92 44.83 46.77l-.6.8Zm20.68-82.63a91.01 91.01 0 0 1-10.02 3.27l-.26-.96c22.62-5.94 40.15-20.27 50.88-31.25 11.63-11.9 17.97-22.51 18.03-22.62l.86.51c-.06.11-6.47 10.82-18.18 22.8-9.17 9.39-23.3 21.21-41.32 28.25Zm-13.67 67.9a78.58 78.58 0 0 1-5.36 1.88l-.3-.95c23.29-7.22 38.5-23.82 47.16-36.47 9.39-13.72 13.32-25.86 13.36-25.99l.95.3c-.04.12-4.01 12.41-13.49 26.25-8.07 11.78-21.78 26.96-42.33 34.98Z"/></g><path fill="url(#c)" d="M419.51 344.94c-18.79-25.2-10.49-64.17 4.38-70.81 7.74-3.45 14.05 3.27 21.57-1.41 8.33-5.18 4.7-16 11.68-35.18 3.61-9.91 10.15-27.88 22.82-31.08 12.57-3.17 18.63 11.34 32.34 8.67 12.96-2.52 12.47-16.46 29.66-23.98 1.6-.7 19.69-8.35 29.72-.04 10.19 8.43 8.46 30.35-1.55 41.45-9.1 10.08-22.36 8.27-23.73 15.4-1.52 7.86 14.09 12.63 13.31 20.85-1.13 11.88-34.56 10.57-40.66 28.04-3.59 10.27 6.36 15.33 4.69 29.16-2.15 17.86-21.37 31.37-36.09 36.56-21.33 7.53-51.86 4.2-68.14-17.64Z"/><g fill="#fff" mask="url(#d)"><path d="m426.87 365.22-.85-.52c20.29-32.79 41.27-62.57 62.34-88.49 16.86-20.74 33.82-39.09 50.42-54.52 28.27-26.3 45.92-35.14 46.1-35.22l.44.89c-.17.09-17.73 8.89-45.91 35.11-26.01 24.2-66.65 68.62-112.53 142.76Z"/><path d="M536.15 224.31c3.78-30.61 20.68-51.28 20.85-51.49l.77.63c-.17.2-16.89 20.67-20.63 50.97l-.99-.12Zm-50.89 55.56c-6.49-32.97-4.71-54.36-2.07-66.51 2.88-13.23 7.25-18.56 7.44-18.78l.77.64c-.04.05-4.44 5.43-7.25 18.46-2.6 12.04-4.35 33.27 2.1 65.99l-.98.19Zm-41.37 57.41c-24.06-53.61-15.11-87.07-15.02-87.41l.96.27c-.02.08-2.32 8.76-1.45 24.16.76 13.56 4.23 35.42 16.42 62.57l-.91.41Zm58.33-62.24a91.52 91.52 0 0 1-10.35-1.99l.25-.96c22.67 5.74 44.98 1.69 59.7-2.72 15.96-4.78 26.68-10.99 26.78-11.05l.51.86c-.11.06-10.93 6.33-27 11.15-12.59 3.77-30.7 7.28-49.88 4.72Zm-45.02 52.75a80.87 80.87 0 0 1-5.6-.95l.2-.97c23.88 4.94 45.26-2.21 59-9.08 14.9-7.45 24.24-16.17 24.34-16.26l.69.72c-.09.09-9.55 8.91-24.57 16.42-12.8 6.4-32.17 13.04-54.05 10.12Z"/></g><path fill="#ffbe00" d="M335.17 176.84c0 2.5-1.09 4.89-3.01 6.66a10.78 10.78 0 0 1-7.26 2.76c2.72 0 5.33.99 7.26 2.75a9 9 0 0 1 3.01 6.65 9.04 9.04 0 0 1 3-6.65 10.75 10.75 0 0 1 7.25-2.75c-2.72 0-5.33-1-7.25-2.76a9.05 9.05 0 0 1-3-6.65Zm-93.91 111.73c0 2.5-1.08 4.89-3.01 6.66a10.75 10.75 0 0 1-7.26 2.76c2.72 0 5.33.99 7.26 2.75a9.03 9.03 0 0 1 3.01 6.65 9.04 9.04 0 0 1 3-6.65 10.75 10.75 0 0 1 7.25-2.75 10.95 10.95 0 0 1-7.26-2.76 9.35 9.35 0 0 1-2.22-3.06 8.68 8.68 0 0 1-.78-3.6Z"/><path fill="#20415b" d="M451.36 179.48H133.54c-3.72 0-6.73 2.76-6.73 6.17v178.17c0 3.41 3.01 6.17 6.73 6.17h317.82c3.72 0 6.73-2.76 6.73-6.17V185.65c0-3.41-3.01-6.17-6.73-6.17Z"/><path fill="#8eceff" d="M445.63 190.46H139.26v168.55h306.37V190.46Z"/><path fill="#0270ca" d="M113.65 369.99H471.2v3.59c0 1.73-.37 3.44-1.09 5.03a13.11 13.11 0 0 1-3.11 4.27 14.46 14.46 0 0 1-4.65 2.85c-1.74.66-3.61 1-5.49 1H128.05c-1.89 0-3.76-.33-5.51-.98a14.38 14.38 0 0 1-4.67-2.85 13 13 0 0 1-3.12-4.27c-.72-1.6-1.1-3.31-1.1-5.04V370Z"/><path fill="#0270ca" d="M257.24 369.99h70.4v2.68c0 1.51-.65 2.96-1.82 4.02a6.48 6.48 0 0 1-4.39 1.67h-57.99a6.5 6.5 0 0 1-4.39-1.67 5.47 5.47 0 0 1-1.82-4.02v-2.68Z"/><path fill="#20415b" d="M131.95 386.73h321c2.45 0 4.88-.45 7.13-1.33a18.39 18.39 0 0 0 5.99-3.79H118.82a18.39 18.39 0 0 0 5.99 3.79c2.25.88 4.68 1.33 7.13 1.33Z" opacity=".2"/><path fill="#e3f1fe" d="M420.85 272.17H139.34v25.17h281.51v-25.17Z"/><path fill="#e3f1fe" d="M287.52 301.75H139.34v45.73h148.18v-45.73Z" opacity=".5"/><path fill="#e3f1fe" d="M420.84 301.75H299.22v7.97h121.62v-7.97Zm0 12.59H299.22v7.97h121.62v-7.97Zm0 12.58H299.22v7.97h121.62v-7.97Zm0 12.59H299.22v7.97h121.62v-7.97Z"/><path fill="#0593ff" d="M457.62 78.63H262.41c-2.97 0-5.38 2.21-5.38 4.94v53.66c0 2.73 2.41 4.94 5.38 4.94h195.21c2.97 0 5.38-2.21 5.38-4.94V83.57c0-2.73-2.41-4.94-5.38-4.94Z"/><path fill="#0593ff" d="m330.06 134.74-4.48 34.43 25.98-30.32-21.49-4.11Z"/><path fill="#0270ca" d="M398.66 88.88H265.82v6.7h132.84v-6.7Zm0 12.12H265.82v6.7h132.84V101Zm0 12.11H265.82v6.7h132.84v-6.7Zm-34.98 12.11h-97.86v6.7h97.86v-6.7Zm62.55-17.79-8.72 3.7 8.72 3.63v4.68l-13.46-5.84v-4.94l13.46-5.82v4.59Zm9.62-12.12h4.63l-9.03 30.19h-4.62l9.02-30.19Zm18.36 13.36v4.94l-13.46 5.84v-4.68l8.72-3.63-8.75-3.7v-4.68l13.49 5.91Z" opacity=".8"/><path fill="#0270ca" d="M186.9 102.76c-7.3 0-14.29 2.66-19.45 7.39a24.22 24.22 0 0 0-8.06 17.84c0 21.77 27.51 38.26 27.51 38.26s27.51-17.12 27.51-38.26c0-6.69-2.9-13.11-8.06-17.84a28.84 28.84 0 0 0-19.45-7.39Zm0 38.1c-2.78 0-5.49-.77-7.79-2.19a13.13 13.13 0 0 1-5.15-5.79 11.82 11.82 0 0 1-.78-7.43c.55-2.5 1.89-4.79 3.85-6.58a14.45 14.45 0 0 1 7.19-3.51 15.2 15.2 0 0 1 8.1.74c2.56.98 4.75 2.63 6.29 4.74a12.13 12.13 0 0 1 2.36 7.15c0 1.69-.37 3.37-1.07 4.94-.71 1.56-1.75 2.99-3.05 4.18s-2.86 2.14-4.57 2.79c-1.71.65-3.54.97-5.38.97Z"/><path fill="#003aa5" d="M79.62 386.73c3.81 0 7.58-.68 11.1-2.02a29.3 29.3 0 0 0 9.41-5.76 26.64 26.64 0 0 0 6.29-8.63 24.69 24.69 0 0 0 2.21-10.18v-20.28a89.6 89.6 0 0 1-58 0v20.28c0 7.05 3.05 13.81 8.49 18.8a30.36 30.36 0 0 0 20.5 7.79Z"/><path fill="#20415b" d="M108.62 339.86a89.6 89.6 0 0 1-58 0 89.48 89.48 0 0 1 58 0Z"/><path fill="#0593ff" d="M108.62 345.22a89.48 89.48 0 0 1-58 0 89.6 89.6 0 0 1 58 0Z"/><path fill="url(#e)" d="M49.39 366.22h4.9v-5.05h-4.9a4.99 4.99 0 0 1-3.67-1.09 4.52 4.52 0 0 1-1.16-1.46 4.06 4.06 0 0 1 1.16-5 4.84 4.84 0 0 1 1.71-.9c.63-.19 1.3-.25 1.96-.19h3.86v-5.05h-3.86a10.97 10.97 0 0 0-7.48 2.63 9.52 9.52 0 0 0-2.32 3.09 8.7 8.7 0 0 0 0 7.34 9.52 9.52 0 0 0 2.32 3.09c.99.88 2.16 1.56 3.45 2.01 1.29.45 2.66.66 4.03.61v-.04Z"/><path fill="url(#f)" d="M79.62 386.73c3.81 0 7.58-.68 11.1-2.02a29.3 29.3 0 0 0 9.41-5.76 26.64 26.64 0 0 0 6.29-8.63 24.69 24.69 0 0 0 2.21-10.18v-20.28a89.6 89.6 0 0 1-58 0v20.28c0 7.05 3.05 13.81 8.49 18.8a30.36 30.36 0 0 0 20.5 7.79Z"/><path fill="#0593ff" d="M108.62 348.22v11.17a89.6 89.6 0 0 1-58 0v-11.17a89.6 89.6 0 0 0 58 0Z"/><path fill="url(#g)" d="M37.99 264.01a16 16 0 0 1 7.01-7.23 11.2 11.2 0 0 1 10.25.09c6.43 3.84 5.52 14.26 12.54 17.1 6.07 2.47 14.15-2.73 19.35 1.04 3.16 2.3 3.22 6.79 1.74 10.22-1.48 3.43-4.13 6.37-5.67 9.79-1.53 3.42-1.64 7.88 1.35 10.29s8.44 1.84 11.37 4.59c2.69 2.47 2.06 6.89-.15 9.81-2.21 2.93-5.56 4.94-8.41 7.3A30 30 0 0 0 77.64 342s-.11-6.73 2.54-11.74c1.05-1.99 3.01-3.62 3.38-5.8.52-3.09-2.01-6.04-5.05-7.4-3.04-1.37-6.53-1.64-9.89-2.09-4.32-.58-8.79-1.63-11.95-4.39s-4.41-7.68-1.71-10.81c.92-.85 1.78-1.76 2.56-2.72 1.76-2.84-.75-6.47-3.89-8.01s-6.84-1.9-9.97-3.44a15.14 15.14 0 0 1-4.94-4.05 13.56 13.56 0 0 1-2.64-5.58 17.55 17.55 0 0 1 1.9-11.96Z"/><path fill="#ff6100" d="m349.12 270.37-15.9 14.58 55.07 50.51 15.9-14.58-55.07-50.51Z"/><path fill="#0593ff" d="m374.73 289.67-20.46 18.76a1.23 1.23 0 0 0 0 1.85l29.72 27.26c.56.51 1.46.51 2.02 0l20.46-18.76c.56-.51.56-1.34 0-1.85l-29.72-27.26a1.52 1.52 0 0 0-2.02 0Z"/><path fill="#ff6100" d="M345.82 281.93a73.64 73.64 0 0 1-36.59 17.94 77.48 77.48 0 0 1-41.29-3.73c-13.06-4.96-24.22-13.36-32.08-24.14-7.85-10.78-12.04-23.45-12.04-36.41s4.19-25.63 12.04-36.41c7.85-10.78 19.02-19.18 32.08-24.14a77.48 77.48 0 0 1 41.29-3.73 73.64 73.64 0 0 1 36.59 17.94c13.38 12.3 20.9 28.96 20.9 46.34s-7.51 34.04-20.9 46.34Zm-91.74-84.13a52.28 52.28 0 0 0-15.95 27.36 49.34 49.34 0 0 0 3.32 30.88 54.75 54.75 0 0 0 21.46 23.98c9.58 5.87 20.85 9.01 32.38 9.01s22.79-3.13 32.38-9.01a54.75 54.75 0 0 0 21.46-23.98 49.34 49.34 0 0 0 3.32-30.88 52.2 52.2 0 0 0-15.95-27.36c-10.94-10.01-25.76-15.63-41.21-15.63s-30.27 5.62-41.21 15.63Z"/><path fill="#e6f7fe" d="M254.08 197.8a52.28 52.28 0 0 0-15.95 27.36 49.34 49.34 0 0 0 3.32 30.88 54.75 54.75 0 0 0 21.46 23.98c9.58 5.87 20.85 9.01 32.38 9.01s22.79-3.13 32.38-9.01a54.75 54.75 0 0 0 21.46-23.98 49.34 49.34 0 0 0 3.32-30.88 52.2 52.2 0 0 0-15.95-27.36c-10.94-10.01-25.76-15.63-41.21-15.63s-30.27 5.62-41.21 15.63Z" opacity=".6"/><path fill="#fff" d="M254.96 206.4c-13.46 15.23-13.2 42.82-7.83 47.74 2.58 2.37 6.09 3.69 9.74 3.69s7.15-1.33 9.74-3.69c5.38-4.94 3.84-31.76 2.42-38.59-2.23-10.6-8.76-14.07-14.06-9.15Z" opacity=".3"/></svg>