<svg xmlns="http://www.w3.org/2000/svg" width="80" height="80" viewBox="0 0 80 80"><path d="m.04,62c0,2.85,2.38,5.16,5.29,5.16l38.41-.04c2.52,3.99,6.09,7.4,9.83,9.76,1.52.96,3.49.97,5.04-.04,4.5-2.92,7.48-6.23,9.62-9.74h6.48c2.92,0,5.3-2.33,5.29-5.17v-8.74c0-.67-.57-1.21-1.26-1.21-.69,0-1.25.54-1.25,1.21v8.74c.01,1.54-1.22,2.74-2.79,2.74h-5.15c3.35-6.91,2.83-12.49,3.01-14.8-.09-1.9-1.7-3.4-3.66-3.43-3.69-.05-7.64-1.56-10.78-3.41-1.31-.77-2.95-.69-4.18.21-3.13,2.28-6.89,3.33-10.56,3.26h-.08c-1.96,0-3.59,1.45-3.73,3.33-.41,5.38.54,10.35,2.8,14.86l-37.05.03c-1.56,0-2.79-1.2-2.79-2.74l-.02-23.4,74.96-.07v7.72c0,.67.57,1.21,1.26,1.21.69,0,1.25-.54,1.25-1.21l-.02-21.19c0-2.12-1.2-3.1-1.44-3.69l-6.45-15.71c-1.08-2.68-4.08-3.96-6.85-2.91L19.74,19.99H5.28C2.32,20.01,0,22.26,0,25.13c0-.12.02,23.82.04,36.87Zm42.03-11.99c.05-.62.59-1.09,1.24-1.09h.03c4.23.08,8.52-1.13,12.11-3.75.4-.3.95-.32,1.38-.07,3.56,2.1,7.91,3.71,12.04,3.76.64,0,1.17.5,1.2,1.12-.02.17.63,7.88-3.6,15.23-2.22,3.88-5.31,7.06-9.28,9.63-.68.45-1.57.45-2.31-.02-8.28-5.22-13.63-14.04-12.82-24.81ZM2.51,36.18v-3.92s74.96-.07,74.96-.07v3.92s-74.96.07-74.96.07ZM66.13,5.01c1.46-.55,3.05.12,3.62,1.54l5.52,13.44c-1.16-.12,3.61-.02-48.65-.01l39.51-14.97ZM5.28,22.43l69.38-.07c1.57,0,2.8,1.18,2.8,2.7v4.71s-74.96.07-74.96.07v-4.71c0-1.51,1.22-2.7,2.78-2.7Z" fill="#0593ff"/><path d="m50.76,67.99h8.58c1.02,0,1.85-.87,1.85-1.92v-6.27c0-.86-.56-1.58-1.32-1.82v-1.55c0-2.74-2.17-4.97-4.83-4.97-2.66,0-4.82,2.24-4.82,4.98v1.55c-.76.24-1.31.96-1.31,1.82v6.27c0,1.05.84,1.91,1.86,1.91Zm7.93-2.59h-7.28s0-4.93,0-4.93h7.22s.07,0,.07,0v4.93Zm-5.97-8.97c0-1.32,1.04-2.4,2.32-2.4,1.28,0,2.33,1.07,2.33,2.4v1.46s-4.65,0-4.65,0v-1.46Z" fill="#ff6100"/><path d="m12.85,45c-2.14,0-3.89,1.8-3.88,4.01v7.45c0,2.21,1.75,4.01,3.9,4h7.22c2.14,0,3.89-1.81,3.88-4.02v-7.45c0-2.21-1.75-4.01-3.9-4h-7.22Zm8.61,4v7.45c0,.79-.61,1.43-1.38,1.43h-7.22c-.77,0-1.39-.63-1.39-1.42v-7.45c0-.79.61-1.43,1.38-1.43h7.22c.77,0,1.39.63,1.39,1.42Z" fill="#0270ca"/></svg>