<svg xmlns="http://www.w3.org/2000/svg" width="486" height="309"><defs><linearGradient id="b" x1="477" x2="-9" y1="317" y2="8" gradientTransform="matrix(1 0 0 -1 9 317)" gradientUnits="userSpaceOnUse"><stop offset="0" stop-color="#20415b"/><stop offset=".42" stop-color="#0270ca" stop-opacity=".8"/><stop offset="1" stop-color="#1d4667"/></linearGradient><clipPath id="a"><rect width="486" height="309" fill="none" stroke-width="0" rx="12" ry="12"/></clipPath></defs><g clip-path="url(#a)"><path fill="#20415b" d="M0 0h486v309H0V0Z"/><path fill="url(#b)" d="M0 0h486v309H0V0Z"/><path fill="#fff" d="M38.73 255.96c.6 0 1.12.01 1.54.04.43.03.82.07 1.18.14.36.05.74.13 1.12.24l-.2 1.5c-.4-.04-.77-.07-1.12-.08-.84-.07-1.68-.1-2.52-.08-.85 0-1.52.17-2.02.5s-.84.9-1.06 1.68c-.2.77-.3 1.84-.3 3.2s.1 2.43.3 3.22c.14.66.52 1.25 1.06 1.66.5.33 1.17.5 2.02.5 1.31.04 2.62-.04 3.92-.22l.2 1.5c-.58.17-1.2.3-1.82.36-.61.08-1.38.12-2.3.12a6.65 6.65 0 0 1-3.22-.68 3.97 3.97 0 0 1-1.74-2.26c-.4-1.36-.59-2.78-.54-4.2 0-1.76.18-3.16.54-4.2a3.9 3.9 0 0 1 1.74-2.24c.82-.47 1.89-.7 3.22-.7Zm11 4.04c.75 0 1.38.1 1.89.3.52.19.9.51 1.16.98s.4 1.1.4 1.92v6.8h-1.52l-.3-2.12-.12-.24v-4.44c0-.57-.14-.99-.4-1.24-.27-.25-.78-.38-1.52-.38-.51 0-1.15.03-1.92.08l-2.26.16-.18-1.38c1.58-.28 3.18-.43 4.78-.44h-.01Zm2.57 3.98-.02 1.36-4.6.02c-.46.01-.78.13-.96.36-.19.26-.28.58-.26.9v.6c0 .48.11.83.34 1.06.24.21.61.32 1.12.32a5.42 5.42 0 0 0 3.9-1.94v1.26a5.73 5.73 0 0 1-2.84 2.02c-1 .34-2.08.32-3.06-.06-.43-.2-.79-.52-1.04-.92a2.8 2.8 0 0 1-.38-1.5v-1.06c0-.76.24-1.35.72-1.78.58-.46 1.3-.69 2.04-.64h5.04Zm5.3-3.74.23 1.88.18.28v7.6H56.1v-9.76h1.5Zm4.77-.24-.2 1.8h-.62c-.54 0-1.1.1-1.68.32-.56.21-1.24.52-2.06.92l-.14-1.18a9.24 9.24 0 0 1 2.14-1.36 5.36 5.36 0 0 1 2.12-.5h.44Zm4.93 0c.65 0 1.3.09 1.92.26a5.6 5.6 0 0 1 1.78.8l-.12 1.12c-.59-.19-1.11-.33-1.58-.44-.45-.1-.95-.16-1.48-.16s-.97.1-1.3.28c-.32.19-.56.53-.72 1.04-.15.5-.22 1.23-.22 2.16s.07 1.64.22 2.16c.15.5.38.86.7 1.06s.73.3 1.22.3c.71 0 1.4-.21 1.98-.6.33-.21.73-.48 1.18-.8l.16 1.24c-.5.5-1.1.94-1.78 1.3-.67.35-1.4.52-2.22.52-1.23 0-2.1-.43-2.64-1.3-.53-.88-.8-2.17-.8-3.86 0-1.28.13-2.29.4-3.02.21-.66.65-1.22 1.24-1.58a3.99 3.99 0 0 1 2.06-.48Zm5.28-4v14h-1.52l-.22-1.72-.2-.16v-6.64l.12-.3c-.05-.37-.09-.74-.1-1.1l-.02-1.14V256h1.94Zm9.1 4c1.78 0 2.66.9 2.66 2.68V270h-1.96v-6.76c0-.61-.1-1.03-.3-1.26-.18-.24-.52-.36-1-.36-.57 0-1.14.13-1.72.4-.57.25-1.26.63-2.06 1.14l-.1-1.28c.69-.55 1.44-1.01 2.24-1.38.76-.33 1.51-.5 2.24-.5Zm-4.18-4 .02 3.78c0 .79-.08 1.57-.22 2.34l.2.28v7.6h-1.92v-14h1.92Zm14 4c.94-.04 1.88.13 2.74.5.7.33 1.19.88 1.48 1.64.31.75.46 1.74.46 2.98s-.15 2.26-.46 3.02a2.9 2.9 0 0 1-1.48 1.62c-.68.33-1.59.5-2.74.5a6.3 6.3 0 0 1-2.74-.5 2.98 2.98 0 0 1-1.48-1.62 8.16 8.16 0 0 1-.46-3.02c0-1.24.16-2.23.46-2.98.27-.72.8-1.3 1.48-1.64.7-.33 1.61-.5 2.74-.5Zm0 1.56c-.66 0-1.19.1-1.58.32-.41.24-.7.64-.82 1.1-.18.7-.26 1.42-.24 2.14 0 .92.08 1.64.24 2.16.16.52.44.89.82 1.1.39.2.92.3 1.58.3s1.2-.1 1.58-.3c.4-.21.68-.58.84-1.1.16-.52.24-1.24.24-2.16s-.08-1.63-.24-2.14a1.76 1.76 0 0 0-.84-1.1 3.18 3.18 0 0 0-1.58-.32Zm9.17-5.56-.02 11.22c0 .41.11.73.34.94.24.21.57.32.98.32h.92l.22 1.42c-.18.08-.37.13-.56.16-.24.04-.48.07-.72.08-.24.03-.45.04-.62.04-.66.03-1.31-.2-1.8-.64-.44-.43-.66-1.05-.66-1.86V256h1.92Zm7.37 4c.66 0 1.3.09 1.92.26a5.6 5.6 0 0 1 1.78.8l-.12 1.12c-.52-.17-1.05-.32-1.58-.44-.45-.1-.94-.16-1.48-.16s-.96.1-1.3.28c-.32.19-.56.53-.72 1.04-.14.5-.22 1.23-.22 2.16s.08 1.64.22 2.16c.15.5.38.86.7 1.06s.73.3 1.22.3c.71 0 1.4-.21 1.98-.6.34-.21.73-.48 1.18-.8l.16 1.24c-.5.5-1.1.94-1.78 1.3-.66.35-1.4.52-2.22.52-1.22 0-2.1-.43-2.64-1.3-.53-.88-.8-2.17-.8-3.86 0-1.28.14-2.29.4-3.02.21-.66.65-1.22 1.24-1.58a3.99 3.99 0 0 1 2.06-.48Zm5.28-4v14h-1.52l-.22-1.72-.2-.16v-6.64l.12-.3a9.99 9.99 0 0 1-.1-1.1l-.02-1.14V256h1.94Zm7.13 4c1.5 0 2.59.27 3.26.82.68.53 1.02 1.33 1.02 2.38 0 .88-.18 1.56-.58 2.04-.39.48-1.02.72-1.9.72h-5.64v-1.38h5.14c.44 0 .72-.14.86-.42.13-.28.2-.6.2-.96-.02-.6-.2-1.03-.54-1.28s-.92-.38-1.74-.38c-.68 0-1.22.1-1.6.3-.39.2-.66.55-.82 1.04-.15.5-.22 1.19-.22 2.08 0 1 .09 1.77.28 2.3.2.52.51.88.94 1.08.44.2 1.02.3 1.74.3 1.15 0 2.3-.09 3.44-.24l.2 1.26c-.32.13-.71.25-1.16.34-.9.16-1.81.24-2.72.24a6.23 6.23 0 0 1-2.76-.52c-.7-.35-1.2-.9-1.52-1.64a7.74 7.74 0 0 1-.48-2.98c0-1.28.16-2.3.48-3.04a2.9 2.9 0 0 1 1.5-1.58 6.2 6.2 0 0 1 2.62-.48Zm8.22.24.24 1.88.18.28v7.6h-1.92v-9.76h1.5Zm4.78-.24-.2 1.8h-.62c-.55 0-1.11.1-1.68.32-.56.21-1.25.52-2.06.92l-.14-1.18a9.24 9.24 0 0 1 2.14-1.36c.73-.33 1.44-.5 2.12-.5h.44Zm11.95 0c1.77 0 2.66.9 2.66 2.68V270h-1.94v-6.76c0-.61-.1-1.03-.3-1.26-.2-.24-.54-.36-1.03-.36-.57 0-1.14.14-1.72.42-.57.27-1.25.64-2.06 1.12l-.07-1.3a9.72 9.72 0 0 1 2.24-1.38c.7-.31 1.45-.47 2.22-.48Zm-4.5.24.17 1.88.15.28v7.6h-1.93v-9.76h1.61Zm14.8-.24c.74 0 1.37.1 1.87.3.52.19.91.51 1.16.98.27.47.4 1.1.4 1.92v6.8h-1.52l-.3-2.12-.12-.24v-4.44c0-.57-.13-.99-.4-1.24-.26-.25-.77-.38-1.52-.38-.5 0-1.14.03-1.92.08l-2.26.16-.18-1.38c1.58-.28 3.18-.43 4.78-.44Zm2.55 3.98-.02 1.36-4.6.02c-.45.01-.77.13-.96.36-.19.26-.28.58-.26.9v.6c0 .48.12.83.34 1.06.24.21.62.32 1.12.32a5.42 5.42 0 0 0 3.9-1.94v1.26a5.68 5.68 0 0 1-4.34 2.26c-.58 0-1.1-.1-1.56-.3-.43-.2-.79-.52-1.04-.92a2.8 2.8 0 0 1-.38-1.5v-1.06c0-.76.24-1.35.72-1.78.5-.43 1.18-.64 2.04-.64h5.04Zm15.78-3.98c.85 0 1.5.23 1.94.68.45.45.68 1.12.68 2V270h-1.92v-6.76c0-.56-.11-.97-.34-1.22-.21-.27-.58-.4-1.1-.4-.32 0-.63.05-.92.16-.81.38-1.57.84-2.28 1.38l-.1-1.3c.7-.63 1.36-1.1 2.02-1.4a4.7 4.7 0 0 1 2.02-.46Zm-10.4.24.14 1.88.2.28v7.6h-1.92v-9.76h1.58Zm4.06-.24c.84 0 1.48.23 1.92.68.44.44.66 1.1.68 2V270h-1.86v-6.76c0-.59-.12-1-.36-1.24-.24-.25-.6-.38-1.08-.38-.32 0-.63.05-.92.16-.3.1-.63.25-1 .48-.36.21-.8.51-1.32.9l-.12-1.3a8.3 8.3 0 0 1 2.02-1.4c.65-.3 1.33-.46 2.04-.46Zm16.02 0c1.5 0 2.6.27 3.26.82.68.53 1.02 1.33 1.02 2.38 0 .88-.18 1.56-.58 2.04-.39.48-1.02.72-1.9.72h-5.64v-1.38H185c.44 0 .73-.14.86-.42s.2-.6.2-.96c0-.6-.2-1.03-.54-1.28s-.91-.38-1.74-.38c-.68 0-1.22.1-1.6.3-.39.2-.66.55-.82 1.04-.15.5-.22 1.19-.22 2.08 0 1 .1 1.77.28 2.3.2.52.51.88.94 1.08.44.2 1.02.3 1.74.3 1.15 0 2.3-.09 3.44-.24l.2 1.26c-.32.13-.7.25-1.16.34-.9.16-1.81.24-2.72.24a6.23 6.23 0 0 1-2.76-.52c-.7-.35-1.2-.9-1.52-1.64a7.74 7.74 0 0 1-.48-2.98c0-1.28.16-2.3.48-3.04a2.9 2.9 0 0 1 1.5-1.58 6.2 6.2 0 0 1 2.62-.48h.01Zm-77.79-157.68c1.7 0 3.04.34 4.03 1.03a5.63 5.63 0 0 1 2.13 3.22c.43 1.48.64 3.4.64 5.77s-.21 4.3-.64 5.77a5.7 5.7 0 0 1-2.13 3.25 7.04 7.04 0 0 1-4.03 1 7.23 7.23 0 0 1-4.03-1 5.7 5.7 0 0 1-2.13-3.25 21.16 21.16 0 0 1-.64-5.77c0-2.37.21-4.3.64-5.77a5.63 5.63 0 0 1 2.13-3.22 7.05 7.05 0 0 1 4.03-1.03Zm-.03 2.38c-.76 0-1.4.14-1.93.42-.53.29-.96.74-1.23 1.28a8.07 8.07 0 0 0-.67 2.36c-.13.97-.2 2.16-.2 3.58s.07 2.6.2 3.58c.15.97.37 1.76.67 2.36.32.6.73 1.03 1.23 1.31.52.26 1.17.4 1.93.4s1.44-.14 1.96-.4c.53-.28.95-.72 1.26-1.31.32-.6.54-1.39.67-2.36.14-.98.2-2.18.2-3.58s-.06-2.61-.2-3.58a6.94 6.94 0 0 0-.67-2.36c-.27-.55-.72-1-1.26-1.28a4.15 4.15 0 0 0-1.96-.42Zm17.07-2.38c1.7 0 3.04.34 4.03 1.03a5.63 5.63 0 0 1 2.13 3.22c.42 1.48.64 3.4.64 5.77s-.22 4.3-.64 5.77a5.7 5.7 0 0 1-2.13 3.25c-1 .67-2.34 1-4.03 1a7.16 7.16 0 0 1-4.04-1 5.7 5.7 0 0 1-2.13-3.25 21.16 21.16 0 0 1-.64-5.77c0-2.37.22-4.3.64-5.77a5.63 5.63 0 0 1 2.13-3.22 7.08 7.08 0 0 1 4.04-1.03Zm-.03 2.38a4.07 4.07 0 0 0-1.94.42c-.5.26-.9.69-1.23 1.28a8.07 8.07 0 0 0-.67 2.36c-.13.97-.2 2.16-.2 3.58s.07 2.6.2 3.58c.15.97.38 1.76.67 2.36.32.6.73 1.03 1.24 1.31.52.26 1.16.4 1.93.4s1.44-.14 1.96-.4c.52-.28.94-.72 1.26-1.31.31-.6.54-1.39.67-2.36.13-.98.2-2.18.2-3.58s-.07-2.61-.2-3.58a6.94 6.94 0 0 0-.67-2.36c-.27-.55-.72-1-1.26-1.28a4.15 4.15 0 0 0-1.96-.42Zm17.06-2.38c1.7 0 3.04.34 4.03 1.03a5.63 5.63 0 0 1 2.13 3.22c.43 1.48.64 3.4.64 5.77s-.21 4.3-.64 5.77a5.7 5.7 0 0 1-2.13 3.25 7.04 7.04 0 0 1-4.03 1 7.23 7.23 0 0 1-4.03-1 5.7 5.7 0 0 1-2.13-3.25c-.43-1.48-.64-3.4-.64-5.77s.21-4.3.64-5.77a5.63 5.63 0 0 1 2.13-3.22 7.05 7.05 0 0 1 4.03-1.03Zm-.03 2.38c-.76 0-1.4.14-1.93.42-.53.29-.96.74-1.23 1.28-.3.6-.52 1.38-.67 2.36-.13.97-.2 2.16-.2 3.58s.07 2.6.2 3.58c.15.97.37 1.76.67 2.36.32.6.73 1.03 1.23 1.31.52.26 1.17.4 1.93.4s1.44-.14 1.96-.4c.53-.28.95-.72 1.26-1.31.32-.6.54-1.39.67-2.36.14-.98.2-2.18.2-3.58s-.06-2.61-.2-3.58a6.94 6.94 0 0 0-.67-2.36c-.27-.55-.72-1-1.26-1.28a4.15 4.15 0 0 0-1.96-.42Zm17.07-2.38c1.7 0 3.04.34 4.03 1.03a5.63 5.63 0 0 1 2.13 3.22c.43 1.48.64 3.4.64 5.77s-.22 4.3-.64 5.77a5.7 5.7 0 0 1-2.13 3.25c-1 .67-2.34 1-4.03 1a7.16 7.16 0 0 1-4.04-1 5.74 5.74 0 0 1-2.12-3.25c-.43-1.48-.65-3.4-.65-5.77s.22-4.3.65-5.77a5.57 5.57 0 0 1 2.12-3.22 7.08 7.08 0 0 1 4.04-1.03Zm-.03 2.38c-.77 0-1.41.14-1.93.42-.5.26-.92.69-1.24 1.28-.3.6-.52 1.38-.67 2.36-.13.97-.2 2.16-.2 3.58s.07 2.6.2 3.58c.15.97.38 1.76.67 2.36.32.6.73 1.03 1.24 1.31.52.26 1.16.4 1.93.4s1.44-.14 1.96-.4c.52-.28.94-.72 1.26-1.31.31-.6.54-1.39.67-2.36.13-.98.2-2.18.2-3.58s-.07-2.61-.2-3.58a6.94 6.94 0 0 0-.67-2.36c-.27-.55-.72-1-1.26-1.28a4.15 4.15 0 0 0-1.96-.42Zm23.27-2.38c1.7 0 3.04.34 4.03 1.03a5.63 5.63 0 0 1 2.13 3.22c.43 1.48.64 3.4.64 5.77s-.21 4.3-.64 5.77a5.7 5.7 0 0 1-2.13 3.25 7.04 7.04 0 0 1-4.03 1 7.23 7.23 0 0 1-4.03-1 5.7 5.7 0 0 1-2.13-3.25c-.48-1.88-.7-3.83-.65-5.77 0-2.37.22-4.3.65-5.77a5.63 5.63 0 0 1 2.13-3.22 7.05 7.05 0 0 1 4.03-1.03Zm-.03 2.38c-.77 0-1.4.14-1.93.42-.5.26-.92.69-1.23 1.28-.3.6-.53 1.38-.68 2.36-.13.97-.2 2.16-.2 3.58s.07 2.6.2 3.58c.15.97.38 1.76.68 2.36.31.6.72 1.03 1.23 1.31.52.26 1.16.4 1.93.4s1.44-.14 1.96-.4c.52-.28.94-.72 1.26-1.31.32-.6.54-1.39.67-2.36.13-.98.2-2.18.2-3.58s-.07-2.61-.2-3.58a6.94 6.94 0 0 0-.67-2.36c-.27-.55-.72-1-1.26-1.28a4.15 4.15 0 0 0-1.96-.42Zm17.06-2.38c1.7 0 3.05.34 4.03 1.03a5.63 5.63 0 0 1 2.13 3.22c.43 1.48.65 3.4.65 5.77s-.22 4.3-.65 5.77a5.7 5.7 0 0 1-2.13 3.25c-.98.67-2.33 1-4.03 1a7.23 7.23 0 0 1-4.03-1 5.7 5.7 0 0 1-2.13-3.25 21.16 21.16 0 0 1-.64-5.77c0-2.37.21-4.3.64-5.77a5.63 5.63 0 0 1 2.13-3.22 7.05 7.05 0 0 1 4.03-1.03Zm-.03 2.38c-.76 0-1.4.14-1.93.42-.53.29-.96.74-1.23 1.28-.3.6-.52 1.38-.67 2.36-.13.97-.2 2.16-.2 3.58s.07 2.6.2 3.58c.15.97.37 1.76.67 2.36.32.6.73 1.03 1.23 1.31.53.26 1.17.4 1.94.4s1.43-.14 1.96-.4c.52-.28.94-.72 1.25-1.31.32-.6.55-1.39.68-2.36.13-.98.2-2.18.2-3.58s-.07-2.61-.2-3.58a6.94 6.94 0 0 0-.67-2.36c-.27-.55-.72-1-1.26-1.28a4.07 4.07 0 0 0-1.97-.42Zm17.07-2.38c1.7 0 3.04.34 4.03 1.03a5.63 5.63 0 0 1 2.13 3.22c.43 1.48.64 3.4.64 5.77s-.21 4.3-.64 5.77a5.7 5.7 0 0 1-2.13 3.25 7.04 7.04 0 0 1-4.03 1 7.23 7.23 0 0 1-4.03-1 5.7 5.7 0 0 1-2.13-3.25c-.48-1.88-.7-3.83-.65-5.77 0-2.37.22-4.3.65-5.77a5.63 5.63 0 0 1 2.13-3.22 7.05 7.05 0 0 1 4.03-1.03Zm-.03 2.38c-.77 0-1.4.14-1.93.42-.5.26-.92.69-1.23 1.28a8.09 8.09 0 0 0-.68 2.36c-.13.97-.2 2.16-.2 3.58s.07 2.6.2 3.58c.15.97.38 1.76.68 2.36.31.6.72 1.03 1.23 1.31.52.26 1.16.4 1.93.4s1.44-.14 1.96-.4c.52-.28.94-.72 1.26-1.31.32-.6.54-1.39.67-2.36.13-.98.2-2.18.2-3.58s-.07-2.61-.2-3.58a6.94 6.94 0 0 0-.67-2.36c-.27-.55-.72-1-1.26-1.28a4.15 4.15 0 0 0-1.96-.42Zm17.06-2.38c1.7 0 3.05.34 4.03 1.03a5.63 5.63 0 0 1 2.13 3.22c.43 1.48.65 3.4.65 5.77s-.22 4.3-.65 5.77a5.7 5.7 0 0 1-2.13 3.25c-.98.67-2.33 1-4.03 1a7.23 7.23 0 0 1-4.03-1 5.7 5.7 0 0 1-2.13-3.25 21.16 21.16 0 0 1-.64-5.77c0-2.37.21-4.3.64-5.77a5.63 5.63 0 0 1 2.13-3.22 7.05 7.05 0 0 1 4.03-1.03Zm-.03 2.38c-.76 0-1.4.14-1.93.42-.53.29-.96.74-1.23 1.28a8.07 8.07 0 0 0-.67 2.36c-.13.97-.2 2.16-.2 3.58s.07 2.6.2 3.58c.15.97.37 1.76.67 2.36.32.6.73 1.03 1.23 1.31.53.26 1.17.4 1.94.4s1.43-.14 1.96-.4c.52-.28.94-.72 1.25-1.31.32-.6.55-1.39.68-2.36.13-.98.2-2.18.2-3.58s-.07-2.61-.2-3.58a7.2 7.2 0 0 0-.68-2.36c-.27-.55-.71-1-1.25-1.28a4.07 4.07 0 0 0-1.97-.42Zm23.28-2.38c1.7 0 3.04.34 4.03 1.03a5.63 5.63 0 0 1 2.13 3.22c.43 1.48.64 3.4.64 5.77s-.22 4.3-.64 5.77a5.7 5.7 0 0 1-2.13 3.25c-1 .67-2.34 1-4.03 1a7.16 7.16 0 0 1-4.04-1 5.74 5.74 0 0 1-2.12-3.25c-.43-1.48-.65-3.4-.65-5.77s.22-4.3.65-5.77a5.57 5.57 0 0 1 2.12-3.22 7.08 7.08 0 0 1 4.04-1.03Zm-.03 2.38c-.77 0-1.41.14-1.93.42-.5.26-.92.69-1.24 1.28-.3.6-.52 1.38-.67 2.36-.13.97-.2 2.16-.2 3.58s.07 2.6.2 3.58c.15.97.38 1.76.67 2.36.32.6.73 1.03 1.24 1.31.52.26 1.16.4 1.93.4s1.44-.14 1.96-.4c.52-.28.94-.72 1.26-1.31.31-.6.54-1.39.67-2.36.13-.98.2-2.18.2-3.58s-.07-2.61-.2-3.58a6.94 6.94 0 0 0-.67-2.36c-.27-.55-.72-1-1.26-1.28a4.15 4.15 0 0 0-1.96-.42Zm17.06-2.38c1.7 0 3.04.34 4.03 1.03a5.63 5.63 0 0 1 2.13 3.22c.43 1.48.64 3.4.64 5.77s-.21 4.3-.64 5.77a5.7 5.7 0 0 1-2.13 3.25 7.04 7.04 0 0 1-4.03 1 7.23 7.23 0 0 1-4.03-1 5.7 5.7 0 0 1-2.13-3.25c-.43-1.48-.64-3.4-.64-5.77s.21-4.3.64-5.77a5.63 5.63 0 0 1 2.13-3.22 7.05 7.05 0 0 1 4.03-1.03Zm-.03 2.38c-.76 0-1.4.14-1.93.42-.53.29-.96.74-1.23 1.28-.3.6-.52 1.38-.67 2.36-.13.97-.2 2.16-.2 3.58s.07 2.6.2 3.58c.15.97.37 1.76.67 2.36.32.6.73 1.03 1.23 1.31.52.26 1.17.4 1.93.4s1.44-.14 1.96-.4c.53-.28.94-.72 1.26-1.31.32-.6.54-1.39.68-2.36.13-.98.2-2.18.2-3.58s-.08-2.61-.2-3.58a7.2 7.2 0 0 0-.68-2.36c-.27-.55-.72-1-1.26-1.28a4.15 4.15 0 0 0-1.96-.42Zm17.07-2.38c1.7 0 3.04.34 4.03 1.03a5.63 5.63 0 0 1 2.13 3.22c.42 1.48.64 3.4.64 5.77s-.22 4.3-.64 5.77a5.7 5.7 0 0 1-2.13 3.25c-1 .67-2.34 1-4.03 1a7.16 7.16 0 0 1-4.04-1 5.74 5.74 0 0 1-2.12-3.25c-.43-1.48-.65-3.4-.65-5.77s.22-4.3.65-5.77a5.57 5.57 0 0 1 2.12-3.22 7.08 7.08 0 0 1 4.04-1.03Zm-.03 2.38c-.77 0-1.41.14-1.93.42-.5.26-.92.69-1.24 1.28-.3.6-.52 1.38-.67 2.36-.13.97-.2 2.16-.2 3.58s.07 2.6.2 3.58c.15.97.38 1.76.67 2.36.32.6.73 1.03 1.24 1.31.52.26 1.16.4 1.93.4s1.44-.14 1.96-.4c.52-.28.94-.72 1.26-1.31.31-.6.54-1.39.67-2.36.13-.98.2-2.18.2-3.58s-.07-2.61-.2-3.58a6.94 6.94 0 0 0-.67-2.36c-.27-.55-.72-1-1.26-1.28a4.15 4.15 0 0 0-1.96-.42Zm17.06-2.38c1.7 0 3.04.34 4.03 1.03a5.63 5.63 0 0 1 2.13 3.22c.43 1.48.64 3.4.64 5.77s-.21 4.3-.64 5.77a5.7 5.7 0 0 1-2.13 3.25 7.04 7.04 0 0 1-4.03 1 7.23 7.23 0 0 1-4.03-1 5.7 5.7 0 0 1-2.13-3.25 21.16 21.16 0 0 1-.64-5.77c0-2.37.21-4.3.64-5.77a5.63 5.63 0 0 1 2.13-3.22 7.05 7.05 0 0 1 4.03-1.03Zm-.03 2.38c-.76 0-1.4.14-1.93.42-.53.29-.96.74-1.23 1.28-.3.6-.52 1.38-.67 2.36-.13.97-.2 2.16-.2 3.58s.07 2.6.2 3.58c.15.97.37 1.76.67 2.36.32.6.73 1.03 1.23 1.31.52.26 1.17.4 1.93.4s1.44-.14 1.96-.4c.53-.28.95-.72 1.26-1.31.32-.6.54-1.39.67-2.36.14-.98.2-2.18.2-3.58s-.06-2.61-.2-3.58a6.94 6.94 0 0 0-.67-2.36c-.27-.55-.72-1-1.26-1.28a4.15 4.15 0 0 0-1.96-.42Zm23.27-2.38c1.7 0 3.05.34 4.04 1.03a5.57 5.57 0 0 1 2.12 3.22c.43 1.48.65 3.4.65 5.77s-.22 4.3-.65 5.77a5.7 5.7 0 0 1-2.13 3.25c-.98.67-2.33 1-4.03 1a7.23 7.23 0 0 1-4.03-1 5.7 5.7 0 0 1-2.13-3.25 21.16 21.16 0 0 1-.64-5.77c0-2.37.21-4.3.64-5.77a5.63 5.63 0 0 1 2.13-3.22 7.05 7.05 0 0 1 4.03-1.03Zm-.02 2.38a4.07 4.07 0 0 0-1.94.42c-.53.29-.96.74-1.23 1.28a8.07 8.07 0 0 0-.67 2.36c-.13.97-.2 2.16-.2 3.58s.07 2.6.2 3.58c.15.97.37 1.76.67 2.36.32.6.73 1.03 1.23 1.31.53.26 1.17.4 1.94.4s1.43-.14 1.95-.4c.53-.28.95-.72 1.26-1.31.32-.6.55-1.39.68-2.36.13-.98.2-2.18.2-3.58s-.07-2.61-.2-3.58a7.2 7.2 0 0 0-.68-2.36c-.27-.55-.71-1-1.25-1.28a4.15 4.15 0 0 0-1.96-.42Zm17.06-2.38c1.7 0 3.04.34 4.03 1.03a5.63 5.63 0 0 1 2.13 3.22c.43 1.48.64 3.4.64 5.77s-.21 4.3-.64 5.77a5.7 5.7 0 0 1-2.13 3.25 7.04 7.04 0 0 1-4.03 1 7.23 7.23 0 0 1-4.03-1 5.7 5.7 0 0 1-2.13-3.25c-.48-1.88-.7-3.83-.65-5.77 0-2.37.22-4.3.65-5.77a5.63 5.63 0 0 1 2.13-3.22 7.05 7.05 0 0 1 4.03-1.03Zm-.03 2.38c-.77 0-1.4.14-1.93.42-.5.26-.92.69-1.23 1.28a8.09 8.09 0 0 0-.68 2.36c-.13.97-.2 2.16-.2 3.58s.07 2.6.2 3.58c.15.97.38 1.76.68 2.36.31.6.72 1.03 1.23 1.31.52.26 1.16.4 1.93.4s1.44-.14 1.96-.4c.52-.28.94-.72 1.26-1.31.32-.6.54-1.39.67-2.36.13-.98.2-2.18.2-3.58s-.07-2.61-.2-3.58a6.94 6.94 0 0 0-.67-2.36c-.27-.55-.72-1-1.26-1.28a4.15 4.15 0 0 0-1.96-.42Zm17.06-2.38c1.7 0 3.05.34 4.04 1.03a5.57 5.57 0 0 1 2.12 3.22c.43 1.48.65 3.4.65 5.77s-.22 4.3-.65 5.77a5.7 5.7 0 0 1-2.13 3.25c-.98.67-2.33 1-4.03 1a7.23 7.23 0 0 1-4.03-1 5.7 5.7 0 0 1-2.13-3.25 21.16 21.16 0 0 1-.64-5.77c0-2.37.21-4.3.64-5.77a5.63 5.63 0 0 1 2.13-3.22 7.05 7.05 0 0 1 4.03-1.03Zm-.02 2.38a4.07 4.07 0 0 0-1.94.42c-.53.29-.96.74-1.23 1.28a8.07 8.07 0 0 0-.67 2.36c-.13.97-.2 2.16-.2 3.58s.07 2.6.2 3.58c.15.97.37 1.76.67 2.36.32.6.73 1.03 1.23 1.31.53.26 1.17.4 1.94.4s1.43-.14 1.95-.4c.55-.3.99-.76 1.27-1.31.31-.6.54-1.39.67-2.36.13-.98.2-2.18.2-3.58s-.07-2.61-.2-3.58a6.94 6.94 0 0 0-.67-2.36c-.28-.55-.72-1-1.27-1.28a4.14 4.14 0 0 0-1.95-.42Zm17.06-2.38c1.7 0 3.04.34 4.03 1.03a5.63 5.63 0 0 1 2.13 3.22c.43 1.48.64 3.4.64 5.77s-.21 4.3-.64 5.77a5.7 5.7 0 0 1-2.13 3.25 7.04 7.04 0 0 1-4.03 1 7.23 7.23 0 0 1-4.03-1 5.7 5.7 0 0 1-2.13-3.25c-.43-1.48-.65-3.4-.65-5.77s.22-4.3.65-5.77a5.63 5.63 0 0 1 2.13-3.22 7.05 7.05 0 0 1 4.03-1.03Zm-.03 2.38c-.77 0-1.4.14-1.93.42-.5.26-.92.69-1.23 1.28-.3.6-.53 1.38-.68 2.36-.13.97-.2 2.16-.2 3.58s.07 2.6.2 3.58c.15.97.38 1.76.68 2.36.31.6.73 1.03 1.23 1.31.52.26 1.16.4 1.93.4s1.44-.14 1.96-.4c.52-.28.94-.72 1.26-1.31.32-.6.54-1.39.67-2.36.13-.98.2-2.18.2-3.58s-.07-2.61-.2-3.58a6.94 6.94 0 0 0-.67-2.36c-.27-.55-.72-1-1.26-1.28a4.15 4.15 0 0 0-1.96-.42Zm-222.31 47.48h2.04c.7 0 1.37 0 2.04.04.68 0 1.33.04 1.94.08l-.08 1.54h-5.5c-.4 0-.7.1-.88.3-.19.2-.28.52-.28.96v8c0 .44.1.77.28.98.19.2.48.3.88.3h5.5l.08 1.52c-1.33.06-2.65.09-3.98.1l-2.04.02c-.83 0-1.49-.22-1.98-.66a2.4 2.4 0 0 1-.74-1.8v-8.92c0-.76.26-1.36.74-1.8.5-.44 1.15-.66 1.98-.66Zm-2.36 5.78h7.52v1.54h-7.52v-1.54Zm19.4-1.72-3 4.74 3.25 5.02h-2.06l-3.14-5.02 2.9-4.74h2.06Zm-7.35 0 2.9 4.74-3.12 5.02h-2.06l3.22-5.02-3-4.74h2.06Zm3.8 3.98v1.42h-2.28v-1.42h2.28Zm11.44-4.22c1.2 0 2.06.44 2.58 1.32s.78 2.17.78 3.86c0 1.27-.13 2.27-.4 3.02a2.88 2.88 0 0 1-1.22 1.58c-.63.33-1.34.49-2.06.46-.65 0-1.3-.09-1.92-.26a6.9 6.9 0 0 1-1.78-.84l.12-1.08c.59.17 1.1.31 1.56.42.47.1.96.16 1.48.16.55 0 .98-.1 1.3-.28.34-.19.58-.53.72-1.04.15-.5.22-1.22.22-2.14s-.07-1.61-.22-2.12c-.13-.52-.35-.89-.66-1.1-.3-.23-.69-.34-1.18-.34s-1 .12-1.5.36c-.6.3-1.17.66-1.7 1.08l-.2-1.2c.7-.77 1.6-1.34 2.6-1.62.5-.16 1-.24 1.48-.24Zm-4.16.24.2 1.98.14.26v6.28l-.08.24c.08.74.11 1.49.08 2.24v2.74h-1.92v-13.74h1.58Zm12.08 0V166h-1.9v-9.76h1.9Zm-.5-4.18c.39 0 .58.2.58.58v1.14c0 .39-.2.58-.58.58h-.9c-.39 0-.58-.2-.58-.58v-1.14c0-.39.2-.58.58-.58h.9Zm5.08 4.18.24 1.88.18.28v7.6h-1.92v-9.76h1.5Zm4.78-.24-.2 1.8h-.62c-.55 0-1.1.1-1.68.32-.56.21-1.25.52-2.06.92l-.14-1.18a9.24 9.24 0 0 1 2.14-1.36c.73-.33 1.44-.5 2.12-.5h.44Zm5.73 0c1.5 0 2.6.27 3.26.82.68.53 1.02 1.33 1.02 2.38 0 .88-.18 1.56-.58 2.04-.39.48-1.02.72-1.9.72h-5.64v-1.38h5.14c.44 0 .73-.14.86-.42s.2-.6.2-.96c0-.6-.2-1.03-.54-1.28-.33-.25-.91-.38-1.74-.38-.68 0-1.21.1-1.6.3s-.66.55-.82 1.04c-.15.5-.22 1.19-.22 2.08 0 1 .1 1.77.28 2.3.2.52.51.88.94 1.08.44.2 1.02.3 1.74.3 1.15 0 2.3-.09 3.44-.24l.2 1.26c-.32.13-.7.25-1.16.34-.9.16-1.81.24-2.72.24a6.23 6.23 0 0 1-2.76-.52c-.7-.35-1.2-.9-1.52-1.64a7.74 7.74 0 0 1-.48-2.98c0-1.28.16-2.3.48-3.04a2.9 2.9 0 0 1 1.5-1.58 6.2 6.2 0 0 1 2.62-.48Zm14.41 0c.66 0 1.3.09 1.92.26a5.6 5.6 0 0 1 1.78.8l-.12 1.12c-.52-.17-1.05-.32-1.58-.44-.45-.1-.94-.16-1.48-.16s-.96.1-1.3.28c-.32.19-.56.53-.72 1.04-.14.5-.22 1.23-.22 2.16s.08 1.64.22 2.16c.15.5.38.86.7 1.06.32.2.73.3 1.22.3.71 0 1.4-.21 1.98-.6.34-.21.73-.48 1.18-.8l.16 1.24c-.5.5-1.1.94-1.78 1.3-.66.35-1.4.52-2.22.52-1.22 0-2.1-.43-2.64-1.3-.53-.88-.8-2.17-.8-3.86 0-1.28.14-2.29.4-3.02.21-.66.65-1.22 1.24-1.58a3.99 3.99 0 0 1 2.06-.48Zm5.28-4v14h-1.52l-.22-1.72-.2-.16v-6.64l.12-.3a9.99 9.99 0 0 1-.1-1.1l-.02-1.14V152h1.94Zm7.7 4c.75 0 1.38.1 1.89.3.52.19.9.51 1.16.98.26.47.4 1.1.4 1.92v6.8h-1.52l-.3-2.12-.12-.24v-4.44c0-.57-.14-.99-.4-1.24-.27-.25-.78-.38-1.52-.38-.5 0-1.15.03-1.92.08l-2.26.16-.18-1.38a29.5 29.5 0 0 1 4.78-.44h-.01Zm2.57 3.98-.02 1.36-4.6.02c-.46 0-.78.13-.96.36-.19.26-.28.58-.26.9v.6c0 .48.11.83.34 1.06.24.21.61.32 1.12.32a5.42 5.42 0 0 0 3.9-1.94v1.26a5.68 5.68 0 0 1-4.34 2.26c-.59 0-1.1-.1-1.56-.3-.43-.2-.79-.52-1.04-.92a2.8 2.8 0 0 1-.38-1.5v-1.06c0-.76.24-1.35.72-1.78a3 3 0 0 1 2.04-.64h5.04Zm6.5-6.6v9.84c0 .45.09.78.27.98.2.19.53.28 1 .28h1.44l.22 1.42c-.54.13-1.09.21-1.64.24-.28.03-.5.04-.68.04-.83 0-1.46-.23-1.9-.68-.44-.45-.66-1.1-.66-1.96v-10.16h1.95Zm3.03 2.86v1.44h-6.74v-1.34l1.92-.1h4.82Zm6.1-.24c1.5 0 2.59.27 3.26.82.68.53 1.02 1.33 1.02 2.38.01.88-.18 1.56-.58 2.04-.39.48-1.02.72-1.9.72h-5.64v-1.38h5.14c.44 0 .72-.14.86-.42.13-.28.2-.6.2-.96-.02-.6-.2-1.03-.54-1.28s-.92-.38-1.74-.38c-.68 0-1.22.1-1.6.3-.39.2-.66.55-.82 1.04-.15.5-.22 1.19-.22 2.08 0 1 .09 1.77.28 2.3.2.52.51.88.94 1.08.44.2 1.02.3 1.74.3 1.15 0 2.3-.09 3.44-.24l.2 1.26c-.32.13-.71.25-1.16.34-.9.16-1.81.24-2.72.24a6.23 6.23 0 0 1-2.76-.52c-.7-.35-1.2-.9-1.52-1.64a7.74 7.74 0 0 1-.48-2.98c0-1.28.16-2.3.48-3.04a2.9 2.9 0 0 1 1.5-1.58 6.2 6.2 0 0 1 2.62-.48Zm7.84 1.16c.26 0 .45.05.56.16.1.1.16.27.16.54v1.06c0 .27-.06.45-.16.56-.11.1-.3.16-.56.16h-.58c-.27 0-.46-.05-.56-.16-.11-.1-.16-.3-.16-.56v-1.06c0-.27.05-.45.16-.54.1-.1.29-.16.56-.16h.58Zm0 6.36c.26 0 .45.05.56.16.1.1.16.27.16.54v1.06c0 .27-.06.45-.16.56-.11.1-.3.16-.56.16h-.58c-.27 0-.46-.05-.56-.16-.11-.1-.16-.3-.16-.56v-1.06c0-.27.05-.45.16-.54.1-.1.29-.16.56-.16h.58Zm20.1-7.52c.85 0 1.5.23 1.94.68.45.45.68 1.12.68 2V166h-1.93v-6.76c0-.56-.1-.97-.33-1.22-.22-.27-.58-.4-1.1-.4-.32 0-.63.05-.92.16-.3.1-.63.27-.99.5-.36.21-.79.5-1.3.88l-.1-1.3a8.35 8.35 0 0 1 2.03-1.4c.63-.3 1.31-.46 2.01-.46Zm-10.4.24.13 1.88.2.28v7.6h-1.92v-9.76h1.59Zm4.06-.24c.83 0 1.47.23 1.91.68.44.44.67 1.1.69 2V166h-1.86v-6.76c0-.59-.13-1-.37-1.24-.24-.25-.6-.38-1.08-.38-.31 0-.62.05-.91.16-.3.1-.63.25-1 .48-.37.21-.8.51-1.32.9l-.13-1.3a8.58 8.58 0 0 1 2.02-1.4c.64-.3 1.34-.46 2.05-.46Zm23.87 0c.86 0 1.5.23 1.94.68.46.45.68 1.12.68 2V166h-1.92v-6.76c0-.56-.1-.97-.34-1.22-.2-.27-.58-.4-1.1-.4-.32 0-.62.05-.92.16-.29.1-.62.27-.98.5-.36.21-.79.5-1.3.88l-.1-1.3a8.58 8.58 0 0 1 2.02-1.4 4.7 4.7 0 0 1 2.02-.46Zm-10.4.24.14 1.88.2.28v7.6h-1.92v-9.76h1.58Zm4.06-.24c.84 0 1.48.23 1.92.68.44.44.67 1.1.68 2V166h-1.86v-6.76c0-.59-.12-1-.36-1.24-.24-.25-.6-.38-1.08-.38-.32 0-.62.05-.92.16-.29.1-.62.25-1 .48-.36.21-.8.51-1.32.9l-.12-1.3a8.58 8.58 0 0 1 2.02-1.4c.64-.3 1.33-.46 2.04-.46Zm20.36-3.8-7.86 15.14h-1.58l7.86-15.14h1.58Zm10.74 4.04-3.85 10.22a6.69 6.69 0 0 1-1.52 2.46 4.07 4.07 0 0 1-2.95 1.18l-.19-1.22a4.66 4.66 0 0 0 1.84-1c.45-.43.81-.94 1.05-1.52l.5-1.2.31-.92.3-.9 2.42-7.1h2.09Zm-8 0 2.45 7.1.19.62c.06.2.12.4.16.62h.47l-.62 1.42h-.56a.73.73 0 0 1-.41-.12.79.79 0 0 1-.27-.38l-3.47-9.26h2.06Zm18.72 0-3.84 10.22c-.17.45-.38.89-.62 1.3-.24.43-.54.81-.9 1.16a4.09 4.09 0 0 1-2.96 1.18l-.18-1.22c.8-.25 1.41-.59 1.84-1 .45-.43.8-.95 1.04-1.52l.5-1.2.32-.92c.1-.35.2-.65.3-.9l2.42-7.1h2.08Zm-8 0 2.46 7.1c.06.2.13.4.18.62.06.2.12.4.16.62h.48l-.62 1.42h-.56a.76.76 0 0 1-.42-.12.84.84 0 0 1-.26-.38l-3.48-9.26h2.06Z"/></g></svg>