<svg xmlns="http://www.w3.org/2000/svg" width="380" height="380" fill="none"><path fill="url(#a)" d="M347.23 201.16C353.4 114.32 288 38.93 201.16 32.76 114.32 26.6 38.93 92 32.76 178.85 26.6 265.68 92 341.07 178.85 347.24c86.84 6.16 162.23-59.24 168.4-146.08Z"/><path fill="#fff" d="M190 347.62c-86.92 0-157.63-70.7-157.63-157.63 0-86.92 70.72-157.63 157.63-157.63 86.92 0 157.63 70.71 157.63 157.63S276.93 347.62 190 347.62Zm0-312.95c-85.64 0-155.32 69.68-155.32 155.32 0 85.64 69.68 155.32 155.32 155.32 85.65 0 155.33-69.68 155.33-155.32 0-85.64-69.67-155.32-155.32-155.32Z" style="mix-blend-mode:overlay"/><path fill="#B5B5B5" d="M190 345.32c-85.64 0-155.32-69.69-155.32-155.33 0-85.64 69.68-155.32 155.32-155.32 85.64 0 155.32 69.68 155.32 155.32 0 85.64-69.68 155.33-155.32 155.33Zm0-309.3C105.1 36.03 36.03 105.1 36.03 190c0 84.9 69.08 153.97 153.97 153.97 84.9 0 153.97-69.07 153.97-153.97 0-84.89-69.06-153.96-153.97-153.96Z" opacity=".4" style="mix-blend-mode:multiply"/><path fill="#fff" d="M190 325.92c-74.95 0-135.93-60.98-135.93-135.93 0-74.94 60.98-135.92 135.93-135.92 74.95 0 135.93 60.98 135.93 135.92 0 74.95-60.98 135.93-135.93 135.93Zm0-269.07C116.58 56.85 56.86 116.6 56.86 190c0 73.41 59.73 133.15 133.14 133.15 73.4 0 133.14-59.73 133.14-133.15 0-73.42-59.72-133.14-133.14-133.14Z" style="mix-blend-mode:overlay"/><path fill="#B5B5B5" d="M190 323.15c-73.42 0-133.14-59.72-133.14-133.14 0-73.42 59.72-133.16 133.14-133.16 73.42 0 133.14 59.74 133.14 133.15 0 73.4-59.73 133.14-133.14 133.14Zm0-264.42c-72.4 0-131.28 58.89-131.28 131.28 0 72.38 58.89 131.27 131.28 131.27s131.28-58.88 131.28-131.27c0-72.4-58.9-131.3-131.28-131.3v.02Z" opacity=".4" style="mix-blend-mode:multiply"/><mask id="b" width="316" height="316" x="32" y="32" maskUnits="userSpaceOnUse" style="mask-type:luminance"><path fill="#fff" d="M347.23 201.16C353.4 114.32 288 38.93 201.16 32.76 114.32 26.6 38.93 92 32.76 178.85 26.6 265.68 92 341.07 178.85 347.24c86.84 6.16 162.23-59.24 168.4-146.08Z"/></mask><g mask="url(#b)"><path fill="#fff" d="m311.27 80.83-40.2-49.3L13.34 241.66l40.2 49.3L311.26 80.83Zm36.37 44.97-16.68-20.46L73.22 315.47l16.68 20.45L347.64 125.8Z" opacity=".3" style="mix-blend-mode:overlay"/></g><path fill="#fff" d="M276.88 172.31H103.13a4.26 4.26 0 0 0-4.16 4.15 358 358 0 0 0 0 34.3 4.26 4.26 0 0 0 4.16 4.15h173.75a4.26 4.26 0 0 0 4.16-4.15 357.74 357.74 0 0 0 0-34.3 4.26 4.26 0 0 0-4.16-4.15Z"/><defs><linearGradient id="a" x1="32.37" x2="347.63" y1="189.99" y2="189.99" gradientUnits="userSpaceOnUse"><stop stop-color="#FFC23B"/><stop offset="1" stop-color="#FF4949"/></linearGradient></defs></svg>