<svg xmlns="http://www.w3.org/2000/svg" xmlns:xlink="http://www.w3.org/1999/xlink" style="display:none"><symbol id="airplane"><path d="M25.81 13.15l4.66-4.39.03-.03a5.116 5.116 0 000-7.24C29.54.54 28.24 0 26.88 0s-2.66.54-3.62 1.5l-.03.03-4.39 4.66L5.57 1.36c-.23-.08-.48-.1-.71-.05-.24.05-.46.17-.63.34L.38 5.49c-.13.13-.24.3-.3.47-.06.18-.09.37-.07.56.02.19.08.37.18.53.1.16.23.3.39.41l10.22 6.81-2.37 2.36H5.12c-.34 0-.66.13-.9.37L.38 20.84A1.305 1.305 0 00.03 22c.04.21.13.4.27.56.14.16.31.29.5.37l5.89 2.36 2.35 5.88v.03c.09.2.22.37.39.5s.36.23.57.26c.21.04.43.03.63-.04s.39-.18.53-.33l3.82-3.82c.12-.12.21-.26.28-.41.07-.16.1-.32.1-.49v-3.31l2.36-2.36 6.81 10.22c.11.16.24.29.41.39s.34.16.53.18c.19.02.38 0 .56-.07s.34-.17.47-.3l3.84-3.84c.17-.17.29-.39.34-.63.05-.24.04-.49-.05-.71L25.8 13.15zm-.01 15.56l-6.81-10.22c-.1-.16-.24-.29-.41-.39-.16-.1-.34-.16-.53-.18h-.13c-.17 0-.33.03-.49.1-.16.06-.3.16-.42.28l-3.84 3.84c-.24.24-.38.56-.38.9v3.31l-2.09 2.09-1.84-4.6a1.23 1.23 0 00-.71-.71l-4.6-1.84 2.09-2.09h3.31c.17 0 .33-.03.49-.1.16-.06.3-.16.42-.28l3.84-3.84c.13-.13.24-.3.3-.47.06-.18.09-.37.07-.56-.02-.19-.08-.37-.18-.53-.1-.16-.23-.3-.39-.41L3.29 6.2l2.16-2.16 13.31 4.84c.23.09.49.1.73.04.24-.06.46-.18.64-.36l4.95-5.27c.48-.47 1.13-.73 1.8-.72.67 0 1.32.27 1.79.75.48.48.74 1.12.75 1.79 0 .67-.26 1.32-.72 1.8l-5.26 4.95c-.18.17-.31.39-.36.64-.06.24-.04.5.04.73l4.84 13.31-2.16 2.16z"/></symbol><symbol id="burger"><path d="M1.95 6.4c0-.69.56-1.25 1.25-1.25h25.6a1.25 1.25 0 010 2.5H3.2c-.69 0-1.25-.56-1.25-1.25zm0 9.6c0-.69.56-1.25 1.25-1.25h25.6a1.25 1.25 0 010 2.5H3.2c-.69 0-1.25-.56-1.25-1.25zm0 9.6c0-.69.56-1.25 1.25-1.25h25.6a1.25 1.25 0 010 2.5H3.2c-.69 0-1.25-.56-1.25-1.25z" fill-rule="evenodd"/></symbol><symbol id="bus"><path d="M5.49 0C3.84 0 2.5 1.34 2.5 3v23.05c0 1.66 1.34 3 2.99 3h.64v1.69a1.261 1.261 0 002.52 0v-1.69h14.73v1.69a1.261 1.261 0 002.52 0v-1.69h.64c1.65 0 2.99-1.34 2.99-3V3c0-1.66-1.34-3-2.99-3H5.49zm.98 2.36c-.83 0-1.49.67-1.49 1.5v12.17h22.03V3.86c0-.83-.67-1.5-1.49-1.5H6.47zM4.98 25.19v-6.73h22.03v6.73c0 .83-.67 1.5-1.49 1.5H6.47c-.83 0-1.49-.67-1.49-1.5zm4.28-.14c1.04 0 1.88-.83 1.88-1.86s-.85-1.86-1.88-1.86-1.88.83-1.88 1.86.84 1.86 1.88 1.86zm15.34-1.86c0 1.03-.84 1.86-1.88 1.86s-1.88-.83-1.88-1.86.84-1.86 1.88-1.86 1.88.83 1.88 1.86zM13.21 5.7c0-.68.55-1.23 1.23-1.23h3.1c.68 0 1.24.55 1.24 1.23s-.55 1.23-1.24 1.23h-3.1c-.68 0-1.23-.55-1.23-1.23z" fill-rule="evenodd"/></symbol><symbol id="chevron-down"><path d="M12 15.4c-.27 0-.52-.11-.71-.29l-4.8-4.8A.996.996 0 117.9 8.9l4.09 4.09 4.09-4.09a.996.996 0 111.41 1.41l-4.8 4.8a.99.99 0 01-.71.29z"/></symbol><symbol id="chevron-left"><path d="M14.4 17.8c-.26 0-.51-.1-.71-.29l-4.8-4.8c-.19-.19-.29-.44-.29-.71s.11-.52.29-.71l4.8-4.8A.996.996 0 1115.1 7.9l-4.09 4.09 4.09 4.09a.996.996 0 01-.71 1.7z"/></symbol><symbol id="chevron-right"><path d="M9.6 17.8c-.26 0-.51-.1-.71-.29a.996.996 0 010-1.41l4.09-4.09-4.09-4.09a.996.996 0 111.41-1.41l4.8 4.8c.19.19.29.44.29.71s-.11.52-.29.71l-4.8 4.8c-.2.2-.45.29-.71.29z"/></symbol><symbol id="chevron-up"><path d="M16.8 15.4c-.26 0-.51-.1-.71-.29L12 11.02l-4.09 4.09A.996.996 0 116.5 13.7l4.8-4.8a.996.996 0 011.41 0l4.8 4.8a.996.996 0 01-.71 1.7z"/></symbol><symbol id="globe"><path d="M16 2C8.27 2 2 8.27 2 16s6.27 14 14 14 14-6.27 14-14S23.73 2 16 2zm11.56 17.06s-.04-.01-.06-.01h-4.96c.1-.98.16-2 .16-3.04 0-.76-.03-1.5-.09-2.23h4.75c.14 0 .26-.03.38-.08.15.75.23 1.52.23 2.31 0 1.06-.15 2.08-.41 3.06zM11.33 16c0-.77.03-1.51.09-2.23h9.15c.06.72.09 1.47.09 2.23 0 1.06-.06 2.07-.17 3.04H11.5c-.11-.97-.17-1.99-.17-3.04zm15.84-4.26h-4.79c-.29-2.01-.79-3.83-1.44-5.33-.26-.6-.55-1.15-.88-1.66 3.27 1.18 5.87 3.74 7.11 6.98zM17.5 4.77c.55.54 1.1 1.36 1.58 2.46.54 1.24.97 2.78 1.25 4.51h-8.67c.27-1.73.7-3.27 1.25-4.51.48-1.1 1.03-1.92 1.58-2.46.55-.53 1.06-.74 1.51-.74s.96.2 1.51.74h-.01zm-5.58-.01c-.32.5-.61 1.06-.88 1.66-.66 1.5-1.15 3.32-1.44 5.33H4.81c1.24-3.24 3.84-5.8 7.11-6.98zM4.25 13.7c.12.05.25.08.38.08h4.75c-.05.73-.09 1.47-.09 2.23a30 30 0 00.16 3.04H4.76c-.11 0-.22.03-.32.07a11.751 11.751 0 01-.19-5.42zm.91 7.38h4.57c.3 1.69.75 3.22 1.31 4.52.26.6.55 1.15.88 1.66a11.993 11.993 0 01-6.76-6.17zm9.33 6.16c-.55-.54-1.1-1.36-1.58-2.46-.46-1.05-.83-2.3-1.11-3.7h8.39c-.27 1.4-.65 2.66-1.11 3.7-.48 1.1-1.03 1.92-1.58 2.46-.55.53-1.06.74-1.51.74s-.96-.2-1.51-.74h.01zm5.58.01c.32-.5.61-1.06.88-1.66.57-1.29 1.01-2.83 1.31-4.52h4.57a11.96 11.96 0 01-6.76 6.17z"/></symbol><symbol id="switch-direction"><path d="M28.99 6.99H5.47l3.14-3.14c.4-.4.4-1.04 0-1.43s-1.04-.4-1.43 0L2.3 7.28c-.09.09-.17.21-.22.33-.1.25-.1.53 0 .78.05.12.13.24.22.33l4.87 4.87a1.015 1.015 0 001.44 0c.4-.4.4-1.04 0-1.43L5.47 9.02h23.52c.56 0 1.01-.45 1.01-1.01S29.55 7 28.99 7zM29.92 24.39c.1-.25.1-.53 0-.77a1.06 1.06 0 00-.22-.33l-4.87-4.87c-.4-.4-1.04-.4-1.43 0s-.4 1.04 0 1.43l3.14 3.14H3.01C2.45 22.99 2 23.44 2 24s.45 1.01 1.01 1.01h23.52l-3.14 3.14c-.4.4-.4 1.04 0 1.43a1.015 1.015 0 001.44 0l4.87-4.87c.09-.09.17-.21.22-.33z"/></symbol><symbol id="train"><path d="M24.64 0H7.39c-1.3 0-2.55.48-3.48 1.34-.92.86-1.44 2.02-1.44 3.23v18.29c0 1.21.52 2.38 1.44 3.23.92.86 2.18 1.34 3.48 1.34h1.23L6.4 30.17a1.101 1.101 0 00-.24.85c.02.15.08.29.16.42s.19.24.32.33.28.16.43.19c.16.04.32.05.48.02.16-.02.31-.07.45-.15.14-.08.26-.18.36-.3l3.32-4.11h8.62l3.32 4.11c.2.24.49.4.81.45.32.04.65-.04.91-.22s.43-.45.48-.75-.04-.6-.23-.85l-2.22-2.74h1.23c1.31 0 2.56-.48 3.48-1.34s1.44-2.02 1.44-3.23V4.57c0-1.21-.52-2.38-1.44-3.23C27.18.48 25.93 0 24.63 0zM4.93 13.71V8h9.85v5.71H4.93zM17.24 8h9.85v5.71h-9.85V8zM7.39 2.29h17.23c.65 0 1.28.24 1.74.67s.72 1.01.72 1.62v1.14H4.93V4.58c0-.61.26-1.19.72-1.62.46-.43 1.09-.67 1.74-.67zm17.23 22.86H7.39c-.65 0-1.28-.24-1.74-.67s-.72-1.01-.72-1.62V16h22.15v6.86c0 .61-.26 1.19-.72 1.62s-1.09.67-1.74.67zm-13.54-4c0 .34-.11.67-.31.95-.2.28-.49.5-.83.63s-.71.16-1.07.1c-.36-.07-.69-.23-.95-.47s-.43-.55-.51-.88c-.07-.33-.03-.68.11-.99.14-.31.38-.58.68-.77s.66-.29 1.03-.29c.49 0 .96.18 1.31.5s.54.76.54 1.21zm13.54 0c0 .34-.11.67-.31.95-.2.28-.49.5-.83.63s-.71.16-1.07.1c-.36-.07-.69-.23-.95-.47s-.43-.55-.51-.88c-.07-.33-.03-.68.11-.99.14-.31.38-.58.68-.77.3-.19.66-.29 1.03-.29.49 0 .96.18 1.31.5s.54.76.54 1.21z"/></symbol><symbol id="user"><path d="M16 30C8.28 30 2 23.72 2 16S8.28 2 16 2s14 6.28 14 14-6.28 14-14 14zm-7.31-4.53c2.02 1.56 4.56 2.5 7.31 2.5s5.48-1 7.53-2.67c-.95-1.09-2.49-2.41-3.01-2.46h-8.94c-.4.19-1.5 1.17-2.88 2.63h-.01zM16 4.02c-6.6 0-11.97 5.37-11.97 11.97 0 3.12 1.2 5.97 3.16 8.1 3.07-3.29 3.91-3.29 4.28-3.29h9.05c1.45 0 3.38 1.87 4.46 3.09a11.92 11.92 0 002.99-7.9c0-6.6-5.37-11.97-11.97-11.97zm0 13.06c-3.12 0-5.67-2.47-5.67-5.52S12.87 6.04 16 6.04s5.67 2.47 5.67 5.52-2.54 5.52-5.67 5.52zm0-9c-2.01 0-3.64 1.56-3.64 3.49s1.63 3.49 3.64 3.49 3.64-1.56 3.64-3.49S18.01 8.08 16 8.08z"/></symbol></svg>