<svg xmlns="http://www.w3.org/2000/svg" width="80" height="80" xmlns:xlink="http://www.w3.org/1999/xlink" viewBox="0 0 80 80"><defs><clipPath id="b"><rect width="80" height="80" fill="none"/></clipPath></defs><g clip-path="url(#b)"><path d="m18.98,61.91c-2.49,0-4.93-.74-7.01-2.13-2.07-1.39-3.69-3.36-4.64-5.66-.95-2.3-1.2-4.84-.72-7.29.49-2.45,1.69-4.69,3.45-6.46,1.76-1.76,4.01-2.96,6.46-3.45,2.45-.49,4.98-.24,7.29.72,2.3.95,4.27,2.57,5.66,4.64,1.39,2.07,2.13,4.51,2.13,7.01,0,3.34-1.33,6.55-3.7,8.91-2.36,2.36-5.57,3.69-8.91,3.7Zm0-22.09c-1.88,0-3.71.56-5.27,1.6-1.56,1.04-2.78,2.52-3.49,4.26-.72,1.73-.91,3.64-.54,5.48.37,1.84,1.27,3.53,2.6,4.86,1.33,1.33,3.02,2.23,4.86,2.6s3.75.18,5.48-.54c1.73-.72,3.21-1.93,4.26-3.49,1.04-1.56,1.6-3.39,1.6-5.27,0-2.51-1-4.93-2.78-6.7-1.78-1.78-4.19-2.78-6.7-2.78h0Z" fill="#ff6100"/><path d="m34.36,80H3.6c-.41,0-.81-.16-1.1-.46-.29-.29-.46-.69-.46-1.1v-3.16c0-6.72,5.28-11.41,12.85-11.41h8.2c7.56,0,12.85,4.69,12.85,11.41v3.16c0,.41-.16.81-.46,1.1-.29.29-.69.46-1.1.46Zm-29.2-3.12h27.64v-1.6c0-5.72-4.88-8.29-9.72-8.29h-8.2c-4.84,0-9.72,2.56-9.72,8.29v1.6Z" fill="#ff6100"/><path d="m40,80c-.41,0-.81-.16-1.1-.46-.29-.29-.46-.69-.46-1.1s.16-.81.46-1.1c.29-.29.69-.46,1.1-.46,7.29,0,14.42-2.16,20.49-6.21,6.06-4.05,10.79-9.81,13.58-16.55,2.79-6.74,3.52-14.15,2.1-21.31-1.42-7.15-4.93-13.72-10.09-18.88-5.16-5.16-11.73-8.67-18.88-10.09-7.15-1.42-14.57-.69-21.31,2.1-6.74,2.79-12.5,7.52-16.55,13.58-4.05,6.06-6.21,13.19-6.21,20.49,0,.41-.16.81-.46,1.1-.29.29-.69.46-1.1.46s-.81-.16-1.1-.46c-.29-.29-.46-.69-.46-1.1,0-7.91,2.35-15.64,6.74-22.22,4.4-6.58,10.64-11.7,17.95-14.73C32,.02,40.04-.77,47.8.77c7.76,1.54,14.89,5.35,20.48,10.95,5.59,5.59,9.4,12.72,10.95,20.48,1.54,7.76.75,15.8-2.28,23.11-3.03,7.31-8.15,13.56-14.73,17.95-6.58,4.4-14.31,6.74-22.22,6.74Z" fill="#0593ff"/><path d="m49.22,46.88c-.27,0-.54-.07-.78-.21l-9.22-5.32c-.24-.14-.43-.33-.57-.57-.14-.24-.21-.51-.21-.78v-22c0-.21.04-.41.12-.6.08-.19.19-.36.34-.51.15-.15.32-.26.51-.34.19-.08.39-.12.6-.12s.41.04.6.12c.19.08.36.19.51.34.15.15.26.32.34.51.08.19.12.39.12.6v21.09l8.44,4.87c.3.17.53.44.66.76.13.32.15.67.07,1-.09.33-.29.63-.56.84-.27.21-.61.32-.95.32h0Z" fill="#0270ca"/><path d="m40,72.6c-.41,0-.81-.16-1.1-.46-.29-.29-.46-.69-.46-1.1s.16-.81.46-1.1c.29-.29.69-.46,1.1-.46,5.64,0,11.16-1.61,15.91-4.65,4.75-3.04,8.53-7.38,10.89-12.5,2.36-5.12,3.2-10.81,2.42-16.4-.78-5.58-3.14-10.83-6.8-15.11-3.67-4.28-8.48-7.43-13.88-9.06-5.4-1.63-11.15-1.68-16.57-.14-5.42,1.54-10.29,4.6-14.03,8.82-3.74,4.22-6.19,9.43-7.06,15-.03.2-.1.4-.21.58s-.25.33-.41.45c-.17.12-.35.21-.55.26-.2.05-.41.06-.61.03-.2-.03-.4-.1-.58-.21-.18-.11-.33-.25-.45-.42-.12-.17-.21-.36-.26-.56-.05-.2-.05-.41-.02-.61.96-6.16,3.67-11.91,7.81-16.58,4.13-4.67,9.52-8.05,15.51-9.75,6-1.7,12.36-1.65,18.32.16,5.97,1.8,11.29,5.28,15.35,10.01,4.05,4.74,6.66,10.53,7.52,16.71.86,6.17-.07,12.46-2.68,18.13-2.61,5.66-6.78,10.46-12.03,13.82-5.25,3.36-11.35,5.15-17.59,5.15Z" fill="#0593ff"/></g></svg>