<svg xmlns="http://www.w3.org/2000/svg" xmlns:xlink="http://www.w3.org/1999/xlink" style="display:none"><symbol id="airplane"><path d="M25.81 13.15l4.66-4.39.03-.03a5.116 5.116 0 000-7.24C29.54.54 28.24 0 26.88 0s-2.66.54-3.62 1.5l-.03.03-4.39 4.66L5.57 1.36c-.23-.08-.48-.1-.71-.05-.24.05-.46.17-.63.34L.38 5.49c-.13.13-.24.3-.3.47-.06.18-.09.37-.07.56.02.19.08.37.18.53.1.16.23.3.39.41l10.22 6.81-2.37 2.36H5.12c-.34 0-.66.13-.9.37L.38 20.84A1.305 1.305 0 00.03 22c.04.21.13.4.27.56.14.16.31.29.5.37l5.89 2.36 2.35 5.88v.03c.09.2.22.37.39.5s.36.23.57.26c.21.04.43.03.63-.04s.39-.18.53-.33l3.82-3.82c.12-.12.21-.26.28-.41.07-.16.1-.32.1-.49v-3.31l2.36-2.36 6.81 10.22c.11.16.24.29.41.39s.34.16.53.18c.19.02.38 0 .56-.07s.34-.17.47-.3l3.84-3.84c.17-.17.29-.39.34-.63.05-.24.04-.49-.05-.71L25.8 13.15zm-.01 15.56l-6.81-10.22c-.1-.16-.24-.29-.41-.39-.16-.1-.34-.16-.53-.18h-.13c-.17 0-.33.03-.49.1-.16.06-.3.16-.42.28l-3.84 3.84c-.24.24-.38.56-.38.9v3.31l-2.09 2.09-1.84-4.6a1.23 1.23 0 00-.71-.71l-4.6-1.84 2.09-2.09h3.31c.17 0 .33-.03.49-.1.16-.06.3-.16.42-.28l3.84-3.84c.13-.13.24-.3.3-.47.06-.18.09-.37.07-.56-.02-.19-.08-.37-.18-.53-.1-.16-.23-.3-.39-.41L3.29 6.2l2.16-2.16 13.31 4.84c.23.09.49.1.73.04.24-.06.46-.18.64-.36l4.95-5.27c.48-.47 1.13-.73 1.8-.72.67 0 1.32.27 1.79.75.48.48.74 1.12.75 1.79 0 .67-.26 1.32-.72 1.8l-5.26 4.95c-.18.17-.31.39-.36.64-.06.24-.04.5.04.73l4.84 13.31-2.16 2.16z"/></symbol><symbol id="arrow-right"><path d="M12.14 6.78a.979.979 0 011.41.04l4.17 4.48c.37.4.37 1.02 0 1.41l-4.17 4.48a.987.987 0 01-1.41.04c-.4-.39-.42-1.04-.03-1.45l2.56-2.75H7c-.55 0-1-.46-1-1.02s.45-1.02 1-1.02h7.67l-2.56-2.75c-.38-.41-.37-1.06.03-1.45z" fill-rule="evenodd"/></symbol><symbol id="battery"><path d="M22.18 27.07H4.53c-2.5 0-4.53-2.26-4.53-5.03V9.95c0-2.77 2.03-5.03 4.53-5.03h17.65c2.5 0 4.53 2.26 4.53 5.03v12.09c0 2.77-2.03 5.03-4.53 5.03zM4.53 6.93C3.14 6.93 2 8.29 2 9.96v12.09c0 1.67 1.13 3.03 2.53 3.03h17.65c1.39 0 2.53-1.36 2.53-3.03V9.96c0-1.67-1.13-3.03-2.53-3.03H4.53zm8.82 15.11a.99.99 0 01-.66-.25c-.42-.36-.46-1-.09-1.41L15.56 17H9.82c-.39 0-.75-.23-.91-.59s-.1-.78.16-1.07l4.41-5.04c.36-.42 1-.46 1.41-.09.42.36.46 1 .09 1.41L12.02 15h5.74c.39 0 .75.23.91.59s.1.78-.16 1.07L14.1 21.7c-.2.23-.47.34-.75.34zM31 20.03c-.55 0-1-.45-1-1v-6.04c0-.55.45-1 1-1s1 .45 1 1v6.04c0 .55-.45 1-1 1z"/></symbol><symbol id="bell"><path d="M15.39 4.14c-.95-.77-2.16-1.16-3.43-1.14-.55.01-1.01-.43-1.02-.98-.01-.55.43-1.01.98-1.02 1.7-.03 3.39.5 4.73 1.58a1.002 1.002 0 11-1.26 1.56zM8.6 3.96c-.32-.56-1.02-.74-1.57-.42s-.74 1.03-.42 1.59 1.02.74 1.57.42.74-1.03.42-1.59zm2.15.65c.01-.56-.12-1.13-.42-1.64a3.148 3.148 0 00-4.31-1.16C4.51 2.68 4 4.62 4.87 6.13c.3.52.73.93 1.22 1.2a7.85 7.85 0 00-.74 8.9L6.33 18c.56.98.63 2.05.53 2.89-.08.65.26 1.18.63 1.46.37.29 1.04.53 1.69.15l1.13-.65c1.29 1.3 3.39 1.54 5.06.57 1.67-.97 2.51-2.91 2.03-4.69l4.86-2.82c.64-.37.77-1.05.71-1.51-.06-.46-.33-1.02-.92-1.29l-.34.76.34-.76c-.75-.34-1.62-.95-2.19-1.94l-.93-1.68v-.01a7.885 7.885 0 00-8.18-3.86zm4.78 14.19l-3.35 1.95c.62.34 1.45.36 2.19-.07s1.14-1.16 1.16-1.87zM9.17 7.28c-2.75 1.6-3.7 5.15-2.09 7.95s0 .01 0 .01l.98 1.77c.65 1.14.84 2.33.83 3.33l11.65-6.77c-.86-.5-1.78-1.28-2.43-2.42s0-.01 0-.01l-.93-1.68c-1.63-2.84-5.22-3.8-8.01-2.18zm-5.75-.9c.47.29.62.9.33 1.38a5.383 5.383 0 00-.71 3.57c.08.55-.3 1.05-.85 1.13a.995.995 0 01-1.13-.85c-.24-1.69.08-3.43.98-4.9.29-.47.9-.62 1.38-.33z" fill-rule="evenodd"/></symbol><symbol id="burger"><path d="M1.95 6.4c0-.69.56-1.25 1.25-1.25h25.6a1.25 1.25 0 010 2.5H3.2c-.69 0-1.25-.56-1.25-1.25zm0 9.6c0-.69.56-1.25 1.25-1.25h25.6a1.25 1.25 0 010 2.5H3.2c-.69 0-1.25-.56-1.25-1.25zm0 9.6c0-.69.56-1.25 1.25-1.25h25.6a1.25 1.25 0 010 2.5H3.2c-.69 0-1.25-.56-1.25-1.25z" fill-rule="evenodd"/></symbol><symbol id="bus" viewBox="0 0 32 32"><path d="M5.49 0C3.84 0 2.5 1.34 2.5 3v23.05c0 1.66 1.34 3 2.99 3h.64v1.69a1.261 1.261 0 002.52 0v-1.69h14.73v1.69a1.261 1.261 0 002.52 0v-1.69h.64c1.65 0 2.99-1.34 2.99-3V3c0-1.66-1.34-3-2.99-3H5.49zm.98 2.36c-.83 0-1.49.67-1.49 1.5v12.17h22.03V3.86c0-.83-.67-1.5-1.49-1.5H6.47zM4.98 25.19v-6.73h22.03v6.73c0 .83-.67 1.5-1.49 1.5H6.47c-.83 0-1.49-.67-1.49-1.5zm4.28-.14c1.04 0 1.88-.83 1.88-1.86s-.85-1.86-1.88-1.86-1.88.83-1.88 1.86.84 1.86 1.88 1.86zm15.34-1.86c0 1.03-.84 1.86-1.88 1.86s-1.88-.83-1.88-1.86.84-1.86 1.88-1.86 1.88.83 1.88 1.86zM13.21 5.7c0-.68.55-1.23 1.23-1.23h3.1c.68 0 1.24.55 1.24 1.23s-.55 1.23-1.24 1.23h-3.1c-.68 0-1.23-.55-1.23-1.23z" fill-rule="evenodd"/></symbol><symbol id="calendar-20"><path d="M15 19H5c-2.21 0-4-1.68-4-3.74V6.11c0-1.68 1.18-3.1 2.81-3.57V2c0-.55.45-1 1-1s1 .45 1 1v.37H14V2c0-.55.45-1 1-1s1 .45 1 1v.49c1.72.42 3 1.88 3 3.62v9.14c0 2.06-1.79 3.74-4 3.74zM3 8.26v7c0 .96.9 1.74 2 1.74h10c1.1 0 2-.78 2-1.74v-7H3zm0-2h14v-.14c0-.96-.9-1.74-2-1.74H5c-1.1 0-2 .78-2 1.74v.14zm7.5 9.35c-.55 0-1-.41-1-.97v-.07c0-.55.45-1 1-1s1 .45 1 1-.45 1.03-1 1.03zm-4.5 0c-.55 0-1-.41-1-.97v-.07c0-.55.45-1 1-1s1 .45 1 1-.45 1.03-1 1.03zm8.5-3.73c-.55 0-1-.41-1-.97v-.07c0-.55.45-1 1-1s1 .45 1 1-.45 1.03-1 1.03zm-4 0c-.55 0-1-.41-1-.97v-.07c0-.55.45-1 1-1s1 .45 1 1-.45 1.03-1 1.03z"/></symbol><symbol id="calendar-24"><path d="M6.81 2.25c.55 0 1 .45 1 1v.5H16v-.5c0-.55.45-1 1-1s1 .45 1 1v.63c1.73.44 3 2.01 3 3.87v10c0 2.21-1.79 4-4 4H7c-2.21 0-4-1.79-4-4v-10c0-1.79 1.18-3.31 2.81-3.82v-.68c0-.55.45-1 1-1zM7 5.75c-1.1 0-2 .9-2 2V8h14v-.25c0-1.1-.9-2-2-2H7zM19 10H5v7.75c0 1.1.9 2 2 2h10c1.1 0 2-.9 2-2V10zm-6.5 1.92c.55 0 1 .45 1 1V13c0 .55-.45 1-1 1s-1-.45-1-1v-.08c0-.55.45-1 1-1zm4 0c.55 0 1 .45 1 1V13c0 .55-.45 1-1 1s-1-.45-1-1v-.08c0-.55.45-1 1-1zM8 16c.55 0 1 .45 1 1v.08c0 .55-.45 1-1 1s-1-.45-1-1V17c0-.55.45-1 1-1zm4.5 0c.55 0 1 .45 1 1v.08c0 .55-.45 1-1 1s-1-.45-1-1V17c0-.55.45-1 1-1z" fill-rule="evenodd"/></symbol><symbol id="chevron-down"><path d="M12 15.4c-.27 0-.52-.11-.71-.29l-4.8-4.8A.996.996 0 117.9 8.9l4.09 4.09 4.09-4.09a.996.996 0 111.41 1.41l-4.8 4.8a.99.99 0 01-.71.29z"/></symbol><symbol id="chevron-left"><path d="M14.4 17.8c-.26 0-.51-.1-.71-.29l-4.8-4.8c-.19-.19-.29-.44-.29-.71s.11-.52.29-.71l4.8-4.8A.996.996 0 1115.1 7.9l-4.09 4.09 4.09 4.09a.996.996 0 01-.71 1.7z"/></symbol><symbol id="chevron-right"><path d="M9.6 17.8c-.26 0-.51-.1-.71-.29a.996.996 0 010-1.41l4.09-4.09-4.09-4.09a.996.996 0 111.41-1.41l4.8 4.8c.19.19.29.44.29.71s-.11.52-.29.71l-4.8 4.8c-.2.2-.45.29-.71.29z"/></symbol><symbol id="chevron-up"><path d="M16.8 15.4c-.26 0-.51-.1-.71-.29L12 11.02l-4.09 4.09A.996.996 0 116.5 13.7l4.8-4.8a.996.996 0 011.41 0l4.8 4.8a.996.996 0 01-.71 1.7z"/></symbol><symbol id="clock"><path d="M12 3.08c-4.93 0-8.92 3.99-8.92 8.92s4 8.92 8.92 8.92 8.92-4 8.92-8.92S16.93 3.08 12 3.08zM1 12C1 5.92 5.92 1 12 1s11 4.92 11 11-4.92 11-11 11S1 18.08 1 12zm11-5c.57 0 1.04.46 1.04 1.04v4.46l3.03 1.01c.54.18.84.77.66 1.31-.18.54-.77.84-1.31.66l-3.74-1.25c-.42-.14-.71-.54-.71-.98V8.04c0-.57.46-1.04 1.04-1.04H12z" fill-rule="evenodd"/></symbol><symbol id="close"><path d="M13.37 12l8.35-8.36c.38-.38.38-.99 0-1.36a.975.975 0 00-1.37 0l-8.34 8.35-8.35-8.35a.966.966 0 00-1.37 0c-.38.38-.38.98 0 1.36L10.64 12l-8.36 8.36c-.38.38-.38.99 0 1.36.38.38.99.37 1.37 0L12 13.37l8.35 8.35c.38.38.99.38 1.37 0 .38-.37.38-.98 0-1.36L13.37 12z"/></symbol><symbol id="coffee"><path fill-rule="evenodd" clip-rule="evenodd" d="M8.711 2.5a1.606 1.606 0 000 2.273 3.369 3.369 0 010 4.759.879.879 0 11-1.243-1.243 1.606 1.606 0 000-2.273 3.369 3.369 0 010-4.759A.879.879 0 118.711 2.5zm5.274 0a1.606 1.606 0 000 2.273 3.369 3.369 0 010 4.759.879.879 0 11-1.243-1.243 1.606 1.606 0 000-2.273 3.369 3.369 0 010-4.759.879.879 0 111.243 1.243zm5.273 2.273a1.606 1.606 0 010-2.273.879.879 0 10-1.243-1.243 3.369 3.369 0 000 4.759 1.606 1.606 0 010 2.273.879.879 0 101.243 1.243 3.369 3.369 0 000-4.759zM31 16c0 4.362-3.548 7.91-7.91 7.91h-.66c-.45.659-.938 1.266-1.459 1.817h3.877a.88.88 0 01.786 1.271A7.24 7.24 0 0119.158 31H7.568a7.236 7.236 0 01-6.475-4.002.88.88 0 01.786-1.271h3.876C2.542 22.329 1 17.289 1 12.484c0-.485.393-.879.879-.879h22.969c.485 0 .879.394.879.88 0 .293-.006.586-.017.878h2.653A2.64 2.64 0 0131 16zm-2.637-.879h-2.79c-.29 2.492-.99 4.892-2.09 7.019a6.16 6.16 0 005.76-6.14.88.88 0 00-.88-.879zm-9.205 14.121c1.563 0 3.008-.66 4.028-1.77H3.54a5.462 5.462 0 004.028 1.77h11.589zM8.374 25.727h9.979c3.584-2.712 5.403-7.802 5.597-12.364l-21.174-.011c.22 5.162 2.36 9.926 5.598 12.375z"/></symbol><symbol id="facebook"><path d="M16.59 13.25l.56-3.62h-3.44V7.28c0-.99.48-1.96 2.02-1.96h1.59V2.24c-.92-.15-1.86-.23-2.8-.24-2.84 0-4.69 1.74-4.69 4.87v2.76H6.69v3.62h3.14V22h3.88v-8.75h2.89z"/></symbol><symbol id="globe"><path d="M16 2C8.27 2 2 8.27 2 16s6.27 14 14 14 14-6.27 14-14S23.73 2 16 2zm11.56 17.06s-.04-.01-.06-.01h-4.96c.1-.98.16-2 .16-3.04 0-.76-.03-1.5-.09-2.23h4.75c.14 0 .26-.03.38-.08.15.75.23 1.52.23 2.31 0 1.06-.15 2.08-.41 3.06zM11.33 16c0-.77.03-1.51.09-2.23h9.15c.06.72.09 1.47.09 2.23 0 1.06-.06 2.07-.17 3.04H11.5c-.11-.97-.17-1.99-.17-3.04zm15.84-4.26h-4.79c-.29-2.01-.79-3.83-1.44-5.33-.26-.6-.55-1.15-.88-1.66 3.27 1.18 5.87 3.74 7.11 6.98zM17.5 4.77c.55.54 1.1 1.36 1.58 2.46.54 1.24.97 2.78 1.25 4.51h-8.67c.27-1.73.7-3.27 1.25-4.51.48-1.1 1.03-1.92 1.58-2.46.55-.53 1.06-.74 1.51-.74s.96.2 1.51.74h-.01zm-5.58-.01c-.32.5-.61 1.06-.88 1.66-.66 1.5-1.15 3.32-1.44 5.33H4.81c1.24-3.24 3.84-5.8 7.11-6.98zM4.25 13.7c.12.05.25.08.38.08h4.75c-.05.73-.09 1.47-.09 2.23a30 30 0 00.16 3.04H4.76c-.11 0-.22.03-.32.07a11.751 11.751 0 01-.19-5.42zm.91 7.38h4.57c.3 1.69.75 3.22 1.31 4.52.26.6.55 1.15.88 1.66a11.993 11.993 0 01-6.76-6.17zm9.33 6.16c-.55-.54-1.1-1.36-1.58-2.46-.46-1.05-.83-2.3-1.11-3.7h8.39c-.27 1.4-.65 2.66-1.11 3.7-.48 1.1-1.03 1.92-1.58 2.46-.55.53-1.06.74-1.51.74s-.96-.2-1.51-.74h.01zm5.58.01c.32-.5.61-1.06.88-1.66.57-1.29 1.01-2.83 1.31-4.52h4.57a11.96 11.96 0 01-6.76 6.17z"/></symbol><symbol id="info"><path d="M12 3.4c-4.75 0-8.6 3.85-8.6 8.6s3.85 8.6 8.6 8.6 8.6-3.85 8.6-8.6-3.85-8.6-8.6-8.6zM1.4 12C1.4 6.15 6.15 1.4 12 1.4S22.6 6.15 22.6 12 17.85 22.6 12 22.6 1.4 17.85 1.4 12zM12 7.4c.55 0 1 .45 1 1v.04c0 .55-.45 1-1 1s-1-.45-1-1V8.4c0-.55.45-1 1-1zm0 3.6c.55 0 1 .45 1 1v4.8c0 .55-.45 1-1 1s-1-.45-1-1V12c0-.55.45-1 1-1z" fill-rule="evenodd"/></symbol><symbol id="instagram"><path d="M8.67 12c0-1.84 1.49-3.33 3.33-3.33s3.33 1.49 3.33 3.33-1.49 3.33-3.33 3.33S8.67 13.84 8.67 12zm-1.8 0c0 2.84 2.3 5.13 5.14 5.13s5.14-2.3 5.14-5.13-2.3-5.13-5.14-5.13S6.87 9.17 6.87 12zm9.27-5.34c0 .24.07.47.2.67.13.2.32.35.54.44.22.09.46.11.69.07a1.22 1.22 0 00.94-.94c.05-.23.02-.47-.07-.69-.09-.22-.24-.41-.44-.54-.2-.13-.43-.2-.67-.2-.32 0-.62.13-.85.35-.23.22-.35.53-.35.85zM7.96 20.14c-.97-.04-1.5-.21-1.86-.34-.47-.18-.8-.4-1.15-.75a3.06 3.06 0 01-.75-1.15c-.14-.35-.3-.88-.34-1.86-.05-1.05-.06-1.37-.06-4.04s.01-2.99.06-4.04c.04-.97.21-1.5.34-1.86.18-.47.4-.8.75-1.15.35-.35.68-.57 1.15-.75.35-.14.88-.3 1.86-.34C9.01 3.81 9.33 3.8 12 3.8s2.99.01 4.04.06c.97.04 1.5.21 1.86.34.47.18.8.4 1.15.75.35.35.57.68.75 1.15.14.35.3.88.34 1.86.05 1.05.06 1.37.06 4.04s0 2.99-.06 4.04c-.04.97-.21 1.5-.34 1.86-.18.47-.4.8-.75 1.15-.35.35-.68.57-1.15.75-.35.14-.88.3-1.86.34-1.05.05-1.37.06-4.04.06s-2.99 0-4.04-.06zM7.88 2.06c-1.06.05-1.79.22-2.43.46-.66.26-1.21.6-1.77 1.15-.56.56-.9 1.11-1.15 1.77-.25.64-.42 1.36-.46 2.43-.05 1.07-.06 1.41-.06 4.12s.01 3.06.06 4.12c.05 1.06.22 1.79.46 2.43.26.66.6 1.22 1.15 1.77.56.56 1.11.9 1.77 1.15.64.25 1.36.42 2.43.46 1.07.05 1.41.06 4.12.06s3.06-.01 4.12-.06c1.06-.05 1.79-.22 2.43-.46.66-.26 1.21-.6 1.77-1.15.56-.56.9-1.11 1.15-1.77.25-.64.42-1.36.46-2.43.05-1.07.06-1.41.06-4.12s-.01-3.06-.06-4.12c-.05-1.06-.22-1.79-.46-2.43-.26-.66-.6-1.21-1.15-1.77-.56-.56-1.11-.9-1.77-1.15-.64-.25-1.36-.42-2.43-.46C15.05 2.01 14.71 2 12 2s-3.06.01-4.12.06z"/></symbol><symbol id="luggage"><path d="M9 7.5a.75.75 0 01.75.75v10.5a.75.75 0 01-1.5 0V8.25A.75.75 0 019 7.5zm3 0a.75.75 0 01.75.75v10.5a.75.75 0 01-1.5 0V8.25A.75.75 0 0112 7.5zm3 0a.75.75 0 01.75.75v10.5a.75.75 0 01-1.5 0V8.25A.75.75 0 0115 7.5z"/><path d="M9.75 0A.75.75 0 009 .75V4.5H7.5c-.8 0-1.56.32-2.12.88S4.5 6.71 4.5 7.5v12c0 .54.14 1.06.42 1.52.27.46.66.84 1.13 1.1-.06.22-.06.45-.01.68.05.22.14.43.28.62.14.18.32.33.52.43.21.1.43.15.66.15A1.499 1.499 0 009 22.5h6c0 .21.05.42.13.62.09.19.22.37.38.51s.35.25.55.31c.2.06.42.08.63.05.21-.03.41-.1.59-.21s.34-.26.46-.44.2-.37.24-.58c.04-.21.03-.42-.02-.63.47-.26.86-.64 1.13-1.1.27-.46.42-.99.42-1.52V7.5c0-.8-.32-1.56-.88-2.12s-1.33-.88-2.12-.88h-1.5V.75a.75.75 0 00-.75-.75h-4.5zm3.75 4.5h-3v-3h3v3zm4.5 15a1.499 1.499 0 01-1.5 1.5h-9A1.499 1.499 0 016 19.5v-12A1.499 1.499 0 017.5 6h9A1.499 1.499 0 0118 7.5v12z"/></symbol><symbol id="marker"><path d="M12 3.23a6.51 6.51 0 00-6.51 6.51c0 1.02.39 2.21 1.06 3.47.66 1.25 1.56 2.5 2.47 3.62.91 1.12 1.83 2.08 2.52 2.77.17.17.33.32.47.46A38.875 38.875 0 0015 16.83c.92-1.12 1.81-2.37 2.47-3.62.67-1.26 1.06-2.45 1.06-3.47 0-3.6-2.92-6.51-6.51-6.51zm0 18.2l-.66.75-.02-.02s-.04-.03-.07-.06c-.06-.05-.14-.13-.25-.23-.21-.2-.51-.49-.87-.85-.72-.72-1.68-1.74-2.65-2.92-.96-1.18-1.95-2.54-2.69-3.95-.74-1.4-1.29-2.92-1.29-4.41-.01-4.7 3.8-8.51 8.5-8.51s8.51 3.81 8.51 8.51c0 1.49-.55 3.01-1.29 4.41-.75 1.41-1.73 2.77-2.69 3.95-.97 1.18-1.93 2.2-2.65 2.92-.36.36-.66.65-.87.85-.11.1-.19.18-.25.23a.32.32 0 01-.07.06l-.02.02-.67-.75zm0 0l.66.75-.66.59-.66-.59.66-.75zm0-13.4c-.77 0-1.4.63-1.4 1.4s.63 1.4 1.4 1.4 1.4-.63 1.4-1.4-.63-1.4-1.4-1.4zm-3.4 1.4c0-1.88 1.52-3.4 3.4-3.4s3.4 1.52 3.4 3.4-1.52 3.4-3.4 3.4-3.4-1.52-3.4-3.4z" fill-rule="evenodd"/></symbol><symbol id="refund"><path d="M12 2c5.52 0 10 4.48 10 10s-4.48 10-10 10c-2.33 0-4.59-.81-6.38-2.3l-.24-.21.9-1.9a8.008 8.008 0 004.83 2.36c1.83.21 3.68-.22 5.23-1.22 1.55-1 2.71-2.5 3.28-4.26a7.988 7.988 0 00-3.67-9.43 7.995 7.995 0 00-5.29-.92 7.977 7.977 0 00-4.68 2.63 8.017 8.017 0 00-1.96 5V12h2.5l-2.71 5.72A9.915 9.915 0 012.02 12C2 6.48 6.48 2 12 2zm1 4v2h2.5v2H10a.494.494 0 00-.4.8c.08.1.19.17.31.19H14c.66 0 1.3.26 1.77.73s.73 1.1.73 1.77-.26 1.3-.73 1.77-1.1.73-1.77.73h-1v2h-2v-2H8.5v-2H14a.494.494 0 00.4-.8.511.511 0 00-.31-.19H10c-.66 0-1.3-.26-1.77-.73s-.73-1.1-.73-1.77.26-1.3.73-1.77S9.33 8 10 8h1V6h2z"/></symbol><symbol id="seat"><path d="M4.22 22c-.31 0-.58-.11-.79-.32-.21-.21-.32-.48-.32-.79v-3.33c0-.61.22-1.13.65-1.57.44-.43.96-.65 1.57-.65h13.33c.61 0 1.13.22 1.57.65s.65.96.65 1.57v3.33c0 .31-.11.58-.32.79s-.48.32-.79.32c-.31 0-.58-.11-.79-.32-.21-.21-.32-.48-.32-.79v-3.33H5.33v3.33c0 .31-.11.58-.32.79-.21.21-.48.32-.79.32zm-.56-7.78c-.46 0-.86-.16-1.18-.49-.32-.32-.49-.72-.49-1.18 0-.46.16-.86.49-1.18.32-.32.72-.49 1.18-.49.46 0 .86.16 1.18.49.32.32.49.72.49 1.18 0 .46-.16.86-.49 1.18-.32.32-.72.49-1.18.49zm2.78 0v-10c0-.61.22-1.13.65-1.57.44-.43.96-.65 1.57-.65h6.67c.61 0 1.13.22 1.57.65.44.44.65.96.65 1.57v10H6.44zm13.89 0c-.46 0-.86-.16-1.18-.49s-.49-.72-.49-1.18c0-.46.16-.86.49-1.18.32-.32.72-.49 1.18-.49.46 0 .86.16 1.18.49.32.32.49.72.49 1.18 0 .46-.16.86-.49 1.18-.32.32-.72.49-1.18.49zM8.66 12h6.67V4.22H8.66V12z"/></symbol><symbol id="switch-direction"><path d="M28.99 6.99H5.47l3.14-3.14c.4-.4.4-1.04 0-1.43s-1.04-.4-1.43 0L2.3 7.28c-.09.09-.17.21-.22.33-.1.25-.1.53 0 .78.05.12.13.24.22.33l4.87 4.87a1.015 1.015 0 001.44 0c.4-.4.4-1.04 0-1.43L5.47 9.02h23.52c.56 0 1.01-.45 1.01-1.01S29.55 7 28.99 7zM29.92 24.39c.1-.25.1-.53 0-.77a1.06 1.06 0 00-.22-.33l-4.87-4.87c-.4-.4-1.04-.4-1.43 0s-.4 1.04 0 1.43l3.14 3.14H3.01C2.45 22.99 2 23.44 2 24s.45 1.01 1.01 1.01h23.52l-3.14 3.14c-.4.4-.4 1.04 0 1.43a1.015 1.015 0 001.44 0l4.87-4.87c.09-.09.17-.21.22-.33z"/></symbol><symbol id="tel"><path d="M16.72 22.5h-.27c-1.53-.1-2.89-.67-3.91-1.15-2.7-1.31-5.06-3.15-7.02-5.49-1.62-1.95-2.71-3.76-3.44-5.72-.47-1.26-.65-2.27-.57-3.26.07-.76.37-1.42.91-1.96l1.55-1.54c.87-.82 1.96-.79 2.75 0 .28.26.55.54.84.84l1.66 1.66c.43.43.65.9.65 1.4s-.22.97-.65 1.4l-.5.5q-.18.18-.23.21l-.16.13c.27.67.68 1.33 1.32 2.14 1.18 1.45 2.42 2.58 3.79 3.44.16.1.32.18.47.25.19.1.37.19.53.28l.86-.91c.84-.84 2.01-.8 2.77.02l2.48 2.47c.71.71.55 1.82.2 2.55-.05.1-.12.2-.2.28-.43.42-1.18 1.18-1.37 1.39-.68.73-1.48 1.07-2.46 1.07zM5.37 4.78L3.84 6.3c-.21.21-.31.43-.34.73-.06.68.08 1.42.45 2.4.65 1.74 1.63 3.37 3.1 5.14 1.78 2.12 3.92 3.79 6.36 4.98.85.41 1.99.89 3.17.96h.15c.43 0 .71-.11.98-.4.22-.26.98-1.01 1.31-1.34.03-.09.05-.17.06-.24l-2.39-2.38-.86.86c-.5.5-1.03.6-1.39.6a1.92 1.92 0 01-1.01-.29c-.12-.07-.25-.14-.38-.2-.21-.1-.43-.22-.64-.35-1.55-.98-2.95-2.24-4.27-3.87-.77-.97-1.26-1.78-1.62-2.64 0-.03-.03-.09-.04-.12-.3-.96.08-1.62.47-2.01.03-.03.06-.06.1-.09.18-.16.24-.21.27-.23l.14-.15.4-.4-1.68-1.69c-.26-.27-.52-.53-.78-.78s-.03 0-.03 0zm14.48 14.55zm0 0zm-.7-.71zm-2.58-2.59zm1.04-3.91c-.47 0-.89-.34-.98-.82-.17-.98-.64-1.88-1.35-2.59a4.71 4.71 0 00-2.59-1.34c-.54-.09-.9-.6-.81-1.14.09-.54.61-.9 1.14-.81 1.39.23 2.66.89 3.67 1.9a6.73 6.73 0 011.9 3.66.987.987 0 01-.81 1.14c-.06 0-.11.01-.17.01zm3.89-.19c-.47 0-.89-.34-.98-.82a9.255 9.255 0 00-2.61-5.03c-1.39-1.38-3.13-2.29-5.03-2.61-.54-.09-.9-.6-.81-1.14a.98.98 0 011.14-.81c2.31.39 4.42 1.48 6.1 3.16 1.68 1.67 2.77 3.78 3.17 6.1a.987.987 0 01-.81 1.14c-.06 0-.11.01-.17.01z"/></symbol><symbol id="ticket-24"><path d="M22.77 10.17c-.15.15-.35.23-.56.23-.42 0-.82.17-1.11.47-.29.3-.46.71-.46 1.13s.17.83.46 1.13c.29.3.69.47 1.11.47a.787.787 0 01.79.8v4c0 .42-.17.83-.46 1.13-.29.3-.69.47-1.11.47H2.57c-.42 0-.82-.17-1.11-.47-.29-.3-.46-.71-.46-1.13v-4a.787.787 0 01.79-.8c.42 0 .82-.17 1.11-.47.29-.3.46-.71.46-1.13s-.17-.83-.46-1.13c-.29-.3-.69-.47-1.11-.47A.787.787 0 011 9.6v-4c0-.42.17-.83.46-1.13.29-.3.69-.47 1.11-.47h18.86c.42 0 .82.17 1.11.47.29.3.46.71.46 1.13v4c0 .21-.08.42-.23.57zm-1.34 8.23v-3.3c-.67-.18-1.27-.58-1.69-1.14s-.66-1.25-.66-1.96.23-1.4.66-1.96a3.13 3.13 0 011.69-1.14V5.6h-5.5V8h-1.57V5.6H2.57v3.3c.67.18 1.27.58 1.69 1.14.42.56.66 1.25.66 1.96s-.23 1.4-.66 1.96c-.42.56-1.02.96-1.69 1.14v3.3h11.79V16h1.57v2.4h5.5zm-5.5-8.8h-1.57v4.8h1.57V9.6z" fill-rule="evenodd"/></symbol><symbol id="tiktok"><path d="M20.66 6.85v3.45c-.6-.06-1.38-.2-2.25-.51a8.886 8.886 0 01-2.52-1.42v6.97-.02.42c0 3.46-2.81 6.28-6.27 6.28s-6.27-2.82-6.27-6.28 2.81-6.28 6.27-6.28c.34 0 .67.03.99.08v3.4a2.97 2.97 0 101.98 2.8V2h3.44c.01.29.02.58.04.88.02.57.23 1.13.58 1.58a6.48 6.48 0 001.9 1.64c.81.46 1.57.66 2.11.75z"/></symbol><symbol id="train"><path d="M24.64 0H7.39c-1.3 0-2.55.48-3.48 1.34-.92.86-1.44 2.02-1.44 3.23v18.29c0 1.21.52 2.38 1.44 3.23.92.86 2.18 1.34 3.48 1.34h1.23L6.4 30.17a1.101 1.101 0 00-.24.85c.02.15.08.29.16.42s.19.24.32.33.28.16.43.19c.16.04.32.05.48.02.16-.02.31-.07.45-.15.14-.08.26-.18.36-.3l3.32-4.11h8.62l3.32 4.11c.2.24.49.4.81.45.32.04.65-.04.91-.22s.43-.45.48-.75-.04-.6-.23-.85l-2.22-2.74h1.23c1.31 0 2.56-.48 3.48-1.34s1.44-2.02 1.44-3.23V4.57c0-1.21-.52-2.38-1.44-3.23C27.18.48 25.93 0 24.63 0zM4.93 13.71V8h9.85v5.71H4.93zM17.24 8h9.85v5.71h-9.85V8zM7.39 2.29h17.23c.65 0 1.28.24 1.74.67s.72 1.01.72 1.62v1.14H4.93V4.58c0-.61.26-1.19.72-1.62.46-.43 1.09-.67 1.74-.67zm17.23 22.86H7.39c-.65 0-1.28-.24-1.74-.67s-.72-1.01-.72-1.62V16h22.15v6.86c0 .61-.26 1.19-.72 1.62s-1.09.67-1.74.67zm-13.54-4c0 .34-.11.67-.31.95-.2.28-.49.5-.83.63s-.71.16-1.07.1c-.36-.07-.69-.23-.95-.47s-.43-.55-.51-.88c-.07-.33-.03-.68.11-.99.14-.31.38-.58.68-.77s.66-.29 1.03-.29c.49 0 .96.18 1.31.5s.54.76.54 1.21zm13.54 0c0 .34-.11.67-.31.95-.2.28-.49.5-.83.63s-.71.16-1.07.1c-.36-.07-.69-.23-.95-.47s-.43-.55-.51-.88c-.07-.33-.03-.68.11-.99.14-.31.38-.58.68-.77.3-.19.66-.29 1.03-.29.49 0 .96.18 1.31.5s.54.76.54 1.21z"/></symbol><symbol id="tv"><path d="M20.65 1.91c.1.09.18.19.24.31a.983.983 0 01.06.77c-.04.12-.11.24-.19.34L17.6 7.01h3.8c1.82 0 3.29 0 4.45.16 1.2.16 2.21.51 3.01 1.31.8.8 1.15 1.81 1.31 3.01.15 1.16.15 2.63.15 4.45v5.48c0 1.82 0 3.29-.15 4.45-.16 1.2-.51 2.21-1.31 3.01s-1.81 1.15-3.01 1.31c-1.16.15-2.63.15-4.45.15H10.59c-1.82 0-3.29 0-4.45-.15-1.2-.16-2.21-.51-3.01-1.31-.8-.8-1.15-1.81-1.31-3.01-.16-1.16-.16-2.63-.16-4.45v-5.48c0-1.82 0-3.29.16-4.45.16-1.2.51-2.21 1.31-3.01.8-.8 1.81-1.15 3.01-1.31 1.16-.16 2.63-.16 4.45-.16h3.8l-3.16-3.68a.9.9 0 01-.2-.34 1.32 1.32 0 01-.06-.39c0-.13.04-.26.1-.38.06-.12.14-.23.24-.31s.22-.15.35-.19c.13-.04.26-.06.4-.04.13.01.26.05.38.12.12.06.22.15.31.25l3.24 3.78 3.24-3.78c.09-.1.19-.18.31-.24a.983.983 0 01.77-.06c.12.04.24.11.34.19m1.68 7.09v19.33c1.39 0 2.43-.03 3.26-.14.98-.13 1.5-.37 1.87-.74.37-.37.61-.89.74-1.87.13-1.01.14-2.34.14-4.25v-5.33c0-1.91 0-3.25-.14-4.26-.13-.98-.37-1.5-.74-1.87-.37-.37-.89-.61-1.87-.74-.82-.11-1.86-.13-3.25-.14zm-2 19.33V9h-9.67c-1.91 0-3.25 0-4.26.14-.98.13-1.5.37-1.87.74-.37.37-.61.89-.74 1.87-.13 1.01-.14 2.34-.14 4.25v5.33c0 1.91 0 3.25.14 4.26.13.98.37 1.5.74 1.87.37.37.89.61 1.87.74 1.01.13 2.34.14 4.25.14h9.67z" fill-rule="evenodd"/><path d="M26.67 21.33A1.333 1.333 0 0025.34 20a1.333 1.333 0 00-1.33 1.33 1.333 1.333 0 001.33 1.33 1.333 1.333 0 001.33-1.33zm0-5.33a1.333 1.333 0 00-1.33-1.33A1.333 1.333 0 0024.01 16a1.333 1.333 0 001.33 1.33A1.333 1.333 0 0026.67 16z"/></symbol><symbol id="user"><path d="M16 30C8.28 30 2 23.72 2 16S8.28 2 16 2s14 6.28 14 14-6.28 14-14 14zm-7.31-4.53c2.02 1.56 4.56 2.5 7.31 2.5s5.48-1 7.53-2.67c-.95-1.09-2.49-2.41-3.01-2.46h-8.94c-.4.19-1.5 1.17-2.88 2.63h-.01zM16 4.02c-6.6 0-11.97 5.37-11.97 11.97 0 3.12 1.2 5.97 3.16 8.1 3.07-3.29 3.91-3.29 4.28-3.29h9.05c1.45 0 3.38 1.87 4.46 3.09a11.92 11.92 0 002.99-7.9c0-6.6-5.37-11.97-11.97-11.97zm0 13.06c-3.12 0-5.67-2.47-5.67-5.52S12.87 6.04 16 6.04s5.67 2.47 5.67 5.52-2.54 5.52-5.67 5.52zm0-9c-2.01 0-3.64 1.56-3.64 3.49s1.63 3.49 3.64 3.49 3.64-1.56 3.64-3.49S18.01 8.08 16 8.08z"/></symbol><symbol id="wifi"><path fill-rule="evenodd" clip-rule="evenodd" d="M29.147 13.005c-7.26-7.206-19.034-7.206-26.294 0a1.087 1.087 0 01-1.532-1.543c8.108-8.047 21.25-8.047 29.358 0a1.087 1.087 0 01-1.532 1.543zm-4.653 4.062c-4.69-4.655-12.296-4.655-16.986 0a1.087 1.087 0 01-1.532-1.543c5.538-5.496 14.512-5.496 20.05 0a1.087 1.087 0 11-1.532 1.543zm-4.63 4.595a5.495 5.495 0 00-7.727 0 1.087 1.087 0 01-1.531-1.543c2.98-2.958 7.81-2.958 10.79 0a1.087 1.087 0 01-1.531 1.543zM16.8 24.693c.422.426.42 1.114-.006 1.537l-.027.027a1.087 1.087 0 01-1.532-1.543l.027-.026a1.087 1.087 0 011.538.005z"/></symbol></svg>