<svg xmlns="http://www.w3.org/2000/svg" width="24" height="24" viewBox="0 0 24 24"><path d="m18.74,10.04l3.2-3.02.02-.02c.66-.66,1.03-1.55,1.03-2.49s-.37-1.83-1.03-2.49c-.66-.65-1.55-1.02-2.49-1.02s-1.83.37-2.49,1.03l-.02.02-3.02,3.2L4.83,1.93c-.16-.06-.33-.07-.49-.03-.17.03-.32.12-.43.23l-2.65,2.64c-.09.09-.17.21-.21.32-.04.12-.06.25-.05.39.01.13.06.25.12.36.07.11.16.21.27.28l7.03,4.68-1.63,1.62h-2.28c-.23,0-.45.09-.62.25l-2.64,2.64c-.1.1-.18.23-.22.37-.04.14-.05.29-.02.43.03.14.09.28.19.39.1.11.21.2.34.25l4.05,1.62,1.62,4.04v.02c.06.14.15.25.27.34s.25.16.39.18c.14.03.3.02.43-.03.14-.05.27-.12.36-.23l2.63-2.63c.08-.08.14-.18.19-.28.05-.11.07-.22.07-.34v-2.28l1.62-1.62,4.68,7.03c.08.11.17.2.28.27s.23.11.36.12.26,0,.39-.05.23-.12.32-.21l2.64-2.64c.12-.12.2-.27.23-.43s.03-.34-.03-.49l-3.32-9.14h0Zm0,10.7l-4.68-7.03c-.07-.11-.17-.2-.28-.27-.11-.07-.23-.11-.36-.12h-.09c-.12,0-.23.02-.34.07-.11.04-.21.11-.29.19l-2.64,2.64c-.17.17-.26.39-.26.62v2.28l-1.44,1.44-1.27-3.16c-.04-.11-.11-.21-.19-.3-.08-.08-.19-.15-.3-.19l-3.16-1.27,1.44-1.44h2.28c.12,0,.23-.02.34-.07.11-.04.21-.11.29-.19l2.64-2.64c.09-.09.17-.21.21-.32.04-.12.06-.25.05-.39-.01-.13-.06-.25-.12-.36s-.16-.21-.27-.28L3.26,5.26l1.49-1.49,9.15,3.33c.16.06.34.07.5.03s.32-.12.44-.25l3.4-3.62c.33-.32.78-.5,1.24-.5.46,0,.91.19,1.23.52.33.33.51.77.52,1.23,0,.46-.18.91-.5,1.24l-3.62,3.4c-.12.12-.21.27-.25.44-.04.17-.03.34.03.5l3.33,9.15-1.49,1.49h0Z"/></svg>