<svg xmlns="http://www.w3.org/2000/svg" width="32" height="32" viewBox="0 0 32 32"><path d="m25.81,13.15l4.66-4.39.03-.03c.96-.96,1.5-2.26,1.5-3.62s-.54-2.66-1.5-3.62C29.54.54,28.24,0,26.88,0s-2.66.54-3.62,1.5c0,0-.02.02-.03.03l-4.39,4.66L5.57,1.36c-.23-.08-.48-.1-.71-.05-.24.05-.46.17-.63.34L.38,5.49c-.13.13-.24.3-.3.47-.06.18-.09.37-.07.56.02.19.08.37.18.53.1.16.23.3.39.41l10.22,6.81-2.37,2.36h-3.31c-.34,0-.66.13-.9.37l-3.84,3.84c-.15.15-.26.33-.32.54-.06.2-.07.42-.03.62.04.21.13.4.27.56.14.16.31.29.5.37l5.89,2.36,2.35,5.88v.03c.09.2.22.37.39.5.17.13.36.23.57.26.21.04.43.03.63-.04.2-.07.39-.18.53-.33l3.82-3.82c.12-.12.21-.26.28-.41.07-.16.1-.32.1-.49v-3.31l2.36-2.36,6.81,10.22c.11.16.24.29.41.39s.34.16.53.18c.19.02.38,0,.56-.07s.34-.17.47-.3l3.84-3.84c.17-.17.29-.39.34-.63.05-.24.04-.49-.05-.71l-4.83-13.29Zm-.01,15.56l-6.81-10.22c-.1-.16-.24-.29-.41-.39-.16-.1-.34-.16-.53-.18h-.13c-.17,0-.33.03-.49.1-.16.06-.3.16-.42.28l-3.84,3.84c-.24.24-.38.56-.38.9v3.31l-2.09,2.09-1.84-4.6c-.06-.16-.16-.3-.28-.43-.12-.12-.27-.22-.43-.28l-4.6-1.84,2.09-2.09h3.31c.17,0,.33-.03.49-.1.16-.06.3-.16.42-.28l3.84-3.84c.13-.13.24-.3.3-.47.06-.18.09-.37.07-.56-.02-.19-.08-.37-.18-.53-.1-.16-.23-.3-.39-.41L3.29,6.2l2.16-2.16,13.31,4.84c.23.09.49.1.73.04.24-.06.46-.18.64-.36l4.95-5.27c.48-.47,1.13-.73,1.8-.72.67,0,1.32.27,1.79.75.48.48.74,1.12.75,1.79,0,.67-.26,1.32-.72,1.8l-5.26,4.95c-.18.17-.31.39-.36.64-.06.24-.04.5.04.73l4.84,13.31-2.16,2.16Z"/></svg>