<?xml version="1.0" encoding="UTF-8"?><svg id="a" xmlns="http://www.w3.org/2000/svg" width="32" height="32" viewBox="0 0 32 32"><path d="m28.22,24.38c-.46,1.05-1,2.01-1.63,2.9-.86,1.21-1.56,2.05-2.1,2.51-.84.76-1.73,1.15-2.69,1.18-.69,0-1.52-.19-2.49-.59-.97-.39-1.86-.59-2.68-.59-.86,0-1.77.19-2.76.59-.98.39-1.78.6-2.38.62-.92.04-1.84-.36-2.76-1.21-.58-.51-1.32-1.37-2.19-2.6-.94-1.31-1.71-2.83-2.32-4.56-.65-1.87-.97-3.69-.97-5.44,0-2.01.44-3.74,1.32-5.2.69-1.17,1.61-2.09,2.76-2.76,1.15-.68,2.39-1.02,3.73-1.04.73,0,1.69.22,2.88.66,1.19.44,1.95.67,2.29.67.25,0,1.1-.26,2.54-.78,1.36-.48,2.51-.69,3.45-.61,2.55.2,4.46,1.2,5.73,2.99-2.28,1.37-3.4,3.28-3.38,5.74.02,1.91.72,3.51,2.1,4.77.62.59,1.32,1.04,2.1,1.36-.17.48-.35.95-.53,1.39ZM22.37,1.6c0,1.5-.55,2.9-1.66,4.2-1.33,1.54-2.94,2.43-4.68,2.29-.02-.18-.04-.37-.04-.57,0-1.44.63-2.98,1.76-4.24.56-.64,1.27-1.17,2.14-1.59.86-.42,1.68-.65,2.45-.69.02.2.03.4.03.6h0Z" stroke-width="0"/></svg>