<svg xmlns="http://www.w3.org/2000/svg" width="32" height="32" viewBox="0 0 32 32"><path d="m22.18,27.07H4.53c-2.5,0-4.53-2.26-4.53-5.03v-12.09c0-2.77,2.03-5.03,4.53-5.03h17.65c2.5,0,4.53,2.26,4.53,5.03v12.09c0,2.77-2.03,5.03-4.53,5.03ZM4.53,6.93c-1.39,0-2.53,1.36-2.53,3.03v12.09c0,1.67,1.13,3.03,2.53,3.03h17.65c1.39,0,2.53-1.36,2.53-3.03v-12.09c0-1.67-1.13-3.03-2.53-3.03H4.53Zm8.82,15.11c-.23,0-.47-.08-.66-.25-.42-.36-.46-1-.09-1.41l2.96-3.38h-5.74c-.39,0-.75-.23-.91-.59s-.1-.78.16-1.07l4.41-5.04c.36-.42,1-.46,1.41-.09.42.36.46,1,.09,1.41l-2.96,3.38h5.74c.39,0,.75.23.91.59s.1.78-.16,1.07l-4.41,5.04c-.2.23-.47.34-.75.34Zm17.65-2.01c-.55,0-1-.45-1-1v-6.04c0-.55.45-1,1-1s1,.45,1,1v6.04c0,.55-.45,1-1,1Z"/></svg>