<svg xmlns="http://www.w3.org/2000/svg" width="24" height="24" viewBox="0 0 24 24"><path d="m15.39,4.14c-.95-.77-2.16-1.16-3.43-1.14-.55.01-1.01-.43-1.02-.98-.01-.55.43-1.01.98-1.02,1.7-.03,3.39.5,4.73,1.58.43.35.5.98.15,1.41-.35.43-.98.5-1.41.15Zm-6.79-.18c-.32-.56-1.02-.74-1.57-.42-.55.32-.74,1.03-.42,1.59.32.56,1.02.74,1.57.42.55-.32.74-1.03.42-1.59Zm2.15.65c.01-.56-.12-1.13-.42-1.64-.87-1.51-2.8-2.04-4.31-1.16-1.51.87-2.02,2.81-1.15,4.32.3.52.73.93,1.22,1.2-2.02,2.44-2.41,5.99-.74,8.9l.98,1.77h0,0c.56.98.63,2.05.53,2.89-.08.65.26,1.18.63,1.46.37.29,1.04.53,1.69.15l1.13-.65c1.29,1.3,3.39,1.54,5.06.57,1.67-.97,2.51-2.91,2.03-4.69l4.86-2.82c.64-.37.77-1.05.71-1.51-.06-.46-.33-1.02-.92-1.29l-.34.76.34-.76c-.75-.34-1.62-.95-2.19-1.94l-.93-1.68h0s0-.01,0-.01c-1.7-2.96-5.01-4.41-8.18-3.86Zm4.78,14.19l-3.35,1.95c.62.34,1.45.36,2.19-.07.74-.43,1.14-1.16,1.16-1.87Zm-6.36-11.52c-2.75,1.6-3.7,5.15-2.09,7.95h0s0,.01,0,.01l.98,1.77c.65,1.14.84,2.33.83,3.33l11.65-6.77c-.86-.5-1.78-1.28-2.43-2.42h0s0-.01,0-.01l-.93-1.68c-1.63-2.84-5.22-3.8-8.01-2.18Zm-5.75-.9c.47.29.62.9.33,1.38-.64,1.05-.89,2.31-.71,3.57.08.55-.3,1.05-.85,1.13-.55.08-1.05-.3-1.13-.85-.24-1.69.08-3.43.98-4.9.29-.47.9-.62,1.38-.33Z" fill-rule="evenodd"/></svg>