<svg xmlns="http://www.w3.org/2000/svg" width="24" height="24" viewBox="0 0 24 24"><path d="m4.95.18C3.32.18,2,1.5,2,3.14v15.55c0,1.54,1.18,2.81,2.69,2.94v1.26c0,.51.42.93.93.93s.93-.42.93-.93v-1.25h10.92v1.25c0,.51.42.93.93.93s.93-.42.93-.93v-1.26c1.51-.14,2.69-1.4,2.69-2.94V3.14c0-1.63-1.32-2.95-2.95-2.95H4.95Zm.36,1.75c-.82,0-1.48.66-1.48,1.48v8.62h16.33V3.4c0-.82-.66-1.48-1.48-1.48H5.31Zm-1.48,16.49v-4.6h16.33v4.6c0,.82-.66,1.48-1.48,1.48H5.31c-.82,0-1.48-.66-1.48-1.48Zm3.18.26c.77,0,1.39-.61,1.39-1.37s-.62-1.37-1.39-1.37-1.39.61-1.39,1.37.62,1.37,1.39,1.37Zm11.38-1.37c0,.76-.62,1.37-1.39,1.37s-1.39-.61-1.39-1.37.62-1.37,1.39-1.37,1.39.61,1.39,1.37ZM9.94,4.39c0-.5.41-.91.91-.91h2.3c.5,0,.91.41.91.91s-.41.91-.91.91h-2.3c-.5,0-.91-.41-.91-.91Z" fill-rule="evenodd"/></svg>