<svg xmlns="http://www.w3.org/2000/svg" width="32" height="32" viewBox="0 0 32 32"><path d="m5.49,0c-1.65,0-2.99,1.34-2.99,3v23.05c0,1.66,1.34,3,2.99,3h.64v1.69c0,.69.56,1.26,1.26,1.26s1.26-.56,1.26-1.26v-1.69h14.73v1.69c0,.69.56,1.26,1.26,1.26s1.26-.56,1.26-1.26v-1.69h.64c1.65,0,2.99-1.34,2.99-3V3c0-1.66-1.34-3-2.99-3H5.49Zm.98,2.36c-.83,0-1.49.67-1.49,1.5v12.17h22.03V3.86c0-.83-.67-1.5-1.49-1.5H6.47Zm-1.49,22.83v-6.73h22.03v6.73c0,.83-.67,1.5-1.49,1.5H6.47c-.83,0-1.49-.67-1.49-1.5Zm4.28-.14c1.04,0,1.88-.83,1.88-1.86s-.85-1.86-1.88-1.86-1.88.83-1.88,1.86.84,1.86,1.88,1.86Zm15.34-1.86c0,1.03-.84,1.86-1.88,1.86s-1.88-.83-1.88-1.86.84-1.86,1.88-1.86,1.88.83,1.88,1.86ZM13.21,5.7c0-.68.55-1.23,1.23-1.23h3.1c.68,0,1.24.55,1.24,1.23s-.55,1.23-1.24,1.23h-3.1c-.68,0-1.23-.55-1.23-1.23Z" fill-rule="evenodd"/></svg>