<svg xmlns="http://www.w3.org/2000/svg" width="20" height="20" viewBox="0 0 20 20"><path d="m15,19H5c-2.21,0-4-1.68-4-3.74V6.11c0-1.68,1.18-3.1,2.81-3.57v-.54c0-.55.45-1,1-1s1,.45,1,1v.37h8.19v-.37c0-.55.45-1,1-1s1,.45,1,1v.49c1.72.42,3,1.88,3,3.62v9.14c0,2.06-1.79,3.74-4,3.74ZM3,8.26v7c0,.96.9,1.74,2,1.74h10c1.1,0,2-.78,2-1.74v-7H3Zm0-2h14v-.14c0-.96-.9-1.74-2-1.74H5c-1.1,0-2,.78-2,1.74v.14Zm7.5,9.35c-.55,0-1-.41-1-.97v-.07c0-.55.45-1,1-1s1,.45,1,1-.45,1.03-1,1.03Zm-4.5,0c-.55,0-1-.41-1-.97v-.07c0-.55.45-1,1-1s1,.45,1,1-.45,1.03-1,1.03Zm8.5-3.73c-.55,0-1-.41-1-.97v-.07c0-.55.45-1,1-1s1,.45,1,1-.45,1.03-1,1.03Zm-4,0c-.55,0-1-.41-1-.97v-.07c0-.55.45-1,1-1s1,.45,1,1-.45,1.03-1,1.03Z"/></svg>