<svg xmlns="http://www.w3.org/2000/svg" width="24" height="24" viewBox="0 0 24 24"><path d="m6.81,2.25c.55,0,1,.45,1,1v.5h8.19v-.5c0-.55.45-1,1-1s1,.45,1,1v.63c1.73.44,3,2.01,3,3.87v10c0,2.21-1.79,4-4,4H7c-2.21,0-4-1.79-4-4V7.75c0-1.79,1.18-3.31,2.81-3.82v-.68c0-.55.45-1,1-1Zm.19,3.5c-1.1,0-2,.9-2,2v.25h14v-.25c0-1.1-.9-2-2-2H7Zm12,4.25H5v7.75c0,1.1.9,2,2,2h10c1.1,0,2-.9,2-2v-7.75Zm-6.5,1.92c.55,0,1,.45,1,1v.08c0,.55-.45,1-1,1s-1-.45-1-1v-.08c0-.55.45-1,1-1Zm4,0c.55,0,1,.45,1,1v.08c0,.55-.45,1-1,1s-1-.45-1-1v-.08c0-.55.45-1,1-1Zm-8.5,4.08c.55,0,1,.45,1,1v.08c0,.55-.45,1-1,1s-1-.45-1-1v-.08c0-.55.45-1,1-1Zm4.5,0c.55,0,1,.45,1,1v.08c0,.55-.45,1-1,1s-1-.45-1-1v-.08c0-.55.45-1,1-1Z" fill-rule="evenodd"/></svg>