<svg width="32" height="32" viewBox="0 0 32 32" xmlns="http://www.w3.org/2000/svg">
<path fill-rule="evenodd" clip-rule="evenodd" d="M8.71106 2.50038C8.08297 3.12853 8.08297 4.14493 8.71106 4.77308C10.023 6.08504 10.023 8.21969 8.71106 9.53165C8.36786 9.87491 7.81132 9.87491 7.46812 9.53165C7.12487 9.1884 7.12487 8.63197 7.46812 8.28872C8.09621 7.66057 8.09621 6.6441 7.46812 6.01601C6.15616 4.70405 6.15616 2.5694 7.46812 1.25744C7.81138 0.914186 8.36786 0.914186 8.71106 1.25744C9.05431 1.6007 9.05431 2.15712 8.71106 2.50038ZM13.9847 2.50038C13.3566 3.12853 13.3566 4.14493 13.9847 4.77308C15.2967 6.08504 15.2967 8.21969 13.9847 9.53165C13.6416 9.87491 13.0849 9.87491 12.7418 9.53165C12.3985 9.1884 12.3985 8.63197 12.7418 8.28872C13.3698 7.66057 13.3698 6.6441 12.7418 6.01601C11.4298 4.70405 11.4298 2.5694 12.7418 1.25744C13.085 0.914186 13.6415 0.914186 13.9847 1.25744C14.3279 1.6007 14.3279 2.15712 13.9847 2.50038ZM19.2583 4.77308C18.6302 4.14493 18.6302 3.12853 19.2583 2.50038C19.6016 2.15712 19.6016 1.6007 19.2583 1.25744C18.9151 0.914186 18.3586 0.914186 18.0154 1.25744C16.7034 2.5694 16.7034 4.70405 18.0154 6.01601C18.6435 6.6441 18.6435 7.66057 18.0154 8.28872C17.6721 8.63197 17.6721 9.1884 18.0154 9.53165C18.3586 9.87491 18.9152 9.87491 19.2583 9.53165C20.5703 8.21969 20.5703 6.08504 19.2583 4.77308ZM31.0001 16C31.0001 20.3617 27.4516 23.9102 23.0899 23.9102V23.9101H22.4298C21.98 24.5686 21.4922 25.1759 20.9714 25.7265H24.8477C25.501 25.7265 25.9253 26.4155 25.6339 26.9985C24.4068 29.4526 21.8988 31 19.1578 31H7.56883C6.22376 31 4.90758 30.6262 3.76268 29.9188C2.61742 29.2113 1.69424 28.2015 1.0927 26.9985C0.800654 26.4143 1.22712 25.7266 1.87888 25.7266H5.75506C2.54177 22.3287 0.999939 17.2887 0.999939 12.4843C0.999939 11.9989 1.39347 11.6054 1.87888 11.6054H24.8477C25.3331 11.6054 25.7266 11.9989 25.7266 12.4843C25.7266 12.778 25.7208 13.0711 25.7097 13.3633H28.3633C29.8173 13.3633 31.0001 14.5462 31.0001 16ZM28.3634 15.1211H25.5739C25.2837 17.6128 24.5827 20.0133 23.4839 22.1395C26.6934 21.9356 29.2423 19.2601 29.2423 16C29.2423 15.5154 28.8481 15.1211 28.3634 15.1211ZM19.1577 29.2423C20.7208 29.2423 22.1657 28.5815 23.1858 27.4728H3.54077C4.56099 28.5815 6.00579 29.2423 7.56883 29.2423H19.1577ZM8.37371 25.7267H18.3528C21.9375 23.0147 23.7559 17.9247 23.9501 13.3633L2.77645 13.3516C2.99624 18.5139 5.13693 23.2779 8.37371 25.7267Z"/>
</svg>
