<svg width="24" height="24" viewBox="0 0 24 24" xmlns="http://www.w3.org/2000/svg">
<path fill-rule="evenodd" clip-rule="evenodd" d="M12.0027 1.95654C12.555 1.95654 13.0027 2.40426 13.0027 2.95654V12.6184L16.112 9.64829C16.5114 9.2668 17.1444 9.28129 17.5258 9.68065C17.9073 10.08 17.8928 10.713 17.4935 11.0945L12.6935 15.6796C12.307 16.0488 11.6985 16.0488 11.312 15.6796L6.512 11.0945C6.11264 10.713 6.09814 10.08 6.47963 9.68065C6.86111 9.28129 7.49411 9.2668 7.89347 9.64829L11.0027 12.6184V2.95654C11.0027 2.40426 11.4504 1.95654 12.0027 1.95654ZM20.4016 14.2197C20.9538 14.2197 21.4016 14.6674 21.4016 15.2197V18.9256C21.4016 19.7498 21.077 20.5419 20.4965 21.1272C19.9158 21.7127 19.1264 22.0433 18.3016 22.0433H5.70156C4.87668 22.0433 4.08729 21.7127 3.50658 21.1272C2.92615 20.5419 2.60156 19.7498 2.60156 18.9256L2.60156 15.2197C2.60156 14.6674 3.04928 14.2197 3.60156 14.2197C4.15385 14.2197 4.60156 14.6674 4.60156 15.2197V18.9256C4.60156 19.2247 4.71947 19.5099 4.9267 19.7189C5.13364 19.9276 5.41254 20.0433 5.70156 20.0433H18.3016C18.5906 20.0433 18.8695 19.9276 19.0764 19.7189C19.2837 19.5099 19.4016 19.2247 19.4016 18.9256V15.2197C19.4016 14.6674 19.8493 14.2197 20.4016 14.2197Z"/>
</svg>
