<svg xmlns="http://www.w3.org/2000/svg" width="24" height="24" viewBox="0 0 24 24"><path d="m3.47,12.1c.07-.16.16-.38.28-.63.29-.6.76-1.4,1.43-2.19,1.33-1.58,3.47-3.13,6.82-3.13s5.49,1.56,6.82,3.13c.67.8,1.13,1.59,1.43,2.19.13.26.22.48.29.64-.07.16-.16.37-.29.62-.3.59-.77,1.37-1.45,2.14-1.34,1.53-3.48,3.04-6.78,2.98-3.32-.05-5.47-1.57-6.82-3.08-.68-.76-1.15-1.52-1.45-2.09-.12-.23-.22-.43-.28-.59Zm18.13.02q.95-.3.95-.3h0s0,0,0,0h0s0-.03,0-.03c0-.02-.01-.04-.03-.07-.02-.06-.05-.15-.09-.25-.08-.21-.21-.51-.38-.87-.35-.71-.89-1.65-1.7-2.6-1.62-1.91-4.28-3.84-8.34-3.84s-6.73,1.93-8.34,3.84c-.8.95-1.35,1.89-1.7,2.6-.17.36-.3.65-.38.87-.04.11-.07.19-.09.25-.01.03-.02.06-.03.07v.02s0,0,0,0h0s0,0,0,0t.95.3l-.95-.3-.1.31.11.31.95-.33q-.95.33-.95.33h0s0,0,0,0h0s0,.03,0,.03c0,.02.02.04.03.07.02.06.05.14.1.24.09.2.22.49.39.83.36.68.91,1.58,1.72,2.49,1.63,1.83,4.28,3.68,8.28,3.75,4.02.07,6.69-1.8,8.32-3.67.81-.93,1.37-1.85,1.72-2.55.18-.35.31-.64.39-.85.04-.11.08-.19.1-.25.01-.03.02-.05.03-.07v-.02s.01,0,.01,0h0s0,0,0,0t-.95-.32Zm0,0l.95.32.1-.31-.1-.31-.95.3Zm-9.6-1.43c-.8,0-1.4.62-1.4,1.34s.6,1.34,1.4,1.34,1.4-.62,1.4-1.34-.6-1.34-1.4-1.34Zm8.65,1.73s0,0,0,0h0Zm-12.05-.39c0-1.87,1.55-3.34,3.4-3.34s3.4,1.47,3.4,3.34-1.55,3.34-3.4,3.34-3.4-1.47-3.4-3.34Z" fill-rule="evenodd"/></svg>