<svg xmlns="http://www.w3.org/2000/svg" width="24" height="24" viewBox="0 0 24 24"><path d="m4.69,3.79c.39-.39,1.02-.39,1.41,0l15,15c.39.39.39,1.02,0,1.41s-1.02.39-1.41,0l-1.91-1.91c-1.51.93-3.42,1.56-5.79,1.52-4-.07-6.65-1.92-8.28-3.75-.81-.91-1.36-1.81-1.72-2.49-.18-.34-.31-.62-.39-.83-.04-.1-.08-.18-.1-.24-.01-.03-.02-.05-.03-.07v-.02s-.01,0-.01,0h0s0,0,0,0t.95-.33q-.95-.3-.95-.3h0s0,0,0,0h0s.01-.05.01-.05c.01-.03.03-.08.05-.13.04-.11.1-.27.18-.46.16-.38.41-.91.77-1.51.65-1.08,1.65-2.41,3.14-3.5l-.91-.91c-.39-.39-.39-1.02,0-1.41Zm2.35,3.76c-1.35.91-2.27,2.1-2.86,3.09-.3.51-.51.95-.65,1.26-.02.06-.04.11-.06.15.07.15.16.35.28.59.3.57.77,1.33,1.45,2.09,1.34,1.51,3.49,3.02,6.82,3.08,1.75.03,3.16-.38,4.3-.99l-2.22-2.22c-.58.45-1.31.71-2.1.71-1.85,0-3.4-1.47-3.4-3.34,0-.8.29-1.54.76-2.11l-2.33-2.33Zm3.76,3.76c-.12.2-.19.43-.19.68,0,.71.6,1.34,1.4,1.34.24,0,.46-.06.65-.15l-1.86-1.86Zm-7.45.44s0,0,0,0h0Zm-.94.33l-.95-.3-.1.31.11.31.95-.33Zm9.6-5.98c-.38,0-.74.02-1.09.06-.55.06-1.04-.34-1.1-.89-.06-.55.34-1.04.89-1.1.42-.05.86-.07,1.31-.07,4.07,0,6.73,1.93,8.34,3.84.8.95,1.35,1.89,1.7,2.6.17.36.3.65.38.87.04.11.07.19.09.25.01.03.02.06.03.07v.02s0,0,0,0h0s0,0,0,0t-.95.3q.95.32.95.32h0s0,0,0,0h0s0,.04-.02.06c-.01.04-.03.09-.06.16-.05.13-.13.31-.23.54-.2.45-.52,1.05-.97,1.72-.31.46-.93.58-1.39.28-.46-.31-.58-.93-.28-1.39.38-.57.64-1.08.81-1.45.04-.09.08-.18.11-.25-.07-.16-.16-.38-.29-.64-.29-.6-.76-1.4-1.43-2.19-1.33-1.58-3.47-3.13-6.82-3.13Zm9.6,5.98l.95.32.1-.31-.1-.31-.95.3Zm-.95.3s0,0,0,0h0Z" fill-rule="evenodd"/></svg>