<svg xmlns="http://www.w3.org/2000/svg" width="24" height="24" viewBox="0 0 24 24"><path d="m15,6.25c-.69,0-1.25-.56-1.25-1.25s.56-1.25,1.25-1.25,1.25.56,1.25,1.25h0c0,.69-.56,1.25-1.25,1.25Zm2.65-.5c-.33,1.15-1.39,2-2.65,2s-2.32-.85-2.65-2H4c-.41,0-.75-.34-.75-.75s.34-.75.75-.75h8.35c.33-1.15,1.39-2,2.65-2s2.32.85,2.65,2h2.35c.41,0,.75.34.75.75s-.34.75-.75.75h-2.35Zm-13.65,12.5c-.41,0-.75.34-.75.75s.34.75.75.75h7.35c.33,1.15,1.39,2,2.65,2s2.32-.85,2.65-2h3.35c.41,0,.75-.34.75-.75s-.34-.75-.75-.75h-3.35c-.33-1.15-1.39-2-2.65-2s-2.32.85-2.65,2h-7.35Zm11.25.75c0-.69-.56-1.25-1.25-1.25s-1.25.56-1.25,1.25.56,1.25,1.25,1.25,1.25-.56,1.25-1.25Zm-11.25-7.75c-.41,0-.75.34-.75.75s.34.75.75.75h2.35c.33,1.15,1.39,2,2.65,2s2.32-.85,2.65-2h8.35c.41,0,.75-.34.75-.75s-.34-.75-.75-.75h-8.35c-.33-1.15-1.39-2-2.65-2s-2.32.85-2.65,2h-2.35Zm5-.5c.69,0,1.25.56,1.25,1.25s-.56,1.25-1.25,1.25-1.25-.56-1.25-1.25.56-1.25,1.25-1.25Z" fill-rule="evenodd"/></svg>