<svg xmlns="http://www.w3.org/2000/svg" width="32" height="32" viewBox="0 0 32 32"><path d="m16,2c-7.73,0-14,6.27-14,14s6.27,14,14,14,14-6.27,14-14S23.73,2,16,2Zm11.56,17.06s-.04-.01-.06-.01h-4.96c.1-.98.16-2,.16-3.04,0-.76-.03-1.5-.09-2.23h4.75c.14,0,.26-.03.38-.08.15.75.23,1.52.23,2.31,0,1.06-.15,2.08-.41,3.06h0Zm-16.23-3.06c0-.77.03-1.51.09-2.23h9.15c.06.72.09,1.47.09,2.23,0,1.06-.06,2.07-.17,3.04h-8.99c-.11-.97-.17-1.99-.17-3.04Zm15.84-4.26h-4.79c-.29-2.01-.79-3.83-1.44-5.33-.26-.6-.55-1.15-.88-1.66,3.27,1.18,5.87,3.74,7.11,6.98h0Zm-9.67-6.97c.55.54,1.1,1.36,1.58,2.46.54,1.24.97,2.78,1.25,4.51h-8.67c.27-1.73.7-3.27,1.25-4.51.48-1.1,1.03-1.92,1.58-2.46.55-.53,1.06-.74,1.51-.74s.96.2,1.51.74h-.01Zm-5.58-.01c-.32.5-.61,1.06-.88,1.66-.66,1.5-1.15,3.32-1.44,5.33h-4.79c1.24-3.24,3.84-5.8,7.11-6.98h0Zm-7.67,8.94c.12.05.25.08.38.08h4.75c-.05.73-.09,1.47-.09,2.23,0,1.04.06,2.06.16,3.04h-4.69c-.11,0-.22.03-.32.07-.27-.99-.42-2.03-.42-3.11,0-.79.08-1.56.23-2.31Zm.91,7.38h4.57c.3,1.69.75,3.22,1.31,4.52.26.6.55,1.15.88,1.66-2.99-1.08-5.42-3.32-6.76-6.17h0Zm9.33,6.16c-.55-.54-1.1-1.36-1.58-2.46-.46-1.05-.83-2.3-1.11-3.7h8.39c-.27,1.4-.65,2.66-1.11,3.7-.48,1.1-1.03,1.92-1.58,2.46-.55.53-1.06.74-1.51.74s-.96-.2-1.51-.74h.01Zm5.58.01c.32-.5.61-1.06.88-1.66.57-1.29,1.01-2.83,1.31-4.52h4.57c-1.34,2.86-3.77,5.09-6.76,6.17h0Z"/></svg>