<?xml version="1.0" encoding="UTF-8"?><svg id="a" xmlns="http://www.w3.org/2000/svg" width="32" height="32" viewBox="0 0 32 32"><path d="m30.61,16.35c0-1.02-.11-2.05-.23-3.07h-14.09v5.79h8c-.34,1.82-1.35,3.52-2.93,4.54l4.85,3.75s0,0,0,0h0c2.82-2.61,4.4-6.48,4.4-11.02Z" fill="#4285f4" stroke-width="0"/><path d="m21.37,23.62h0c-1.35.91-3.04,1.48-5.07,1.48-3.83,0-7.21-2.61-8.34-6.25l-4.96,3.86s0,0,0,0h0c2.59,5.11,7.67,8.3,13.3,8.3,4.06,0,7.44-1.36,9.92-3.63,0,0,0,0,0,0l-4.85-3.75Z" fill="#34a853" stroke-width="0"/><path d="m7.95,18.84h0c-.67-1.81-.68-3.85,0-5.77l-4.84-3.77s.04-.08.06-.11h-.17c-2.14,4.2-2.14,9.2,0,13.52,0,0,0,0,0,0l4.96-3.86Z" fill="#fbbc04" stroke-width="0"/><path d="m7.95,13.07l.12.09c1.01-3.64,4.4-6.25,8.23-6.25,2.14,0,4.17.8,5.75,2.27l4.28-4.32c-2.71-2.5-6.31-3.98-9.92-3.86-5.59,0-10.74,3.14-13.24,8.18-.02.04-.04.08-.06.11l4.84,3.77Z" fill="#ea4335" stroke-width="0"/></svg>