<svg xmlns="http://www.w3.org/2000/svg" width="24" height="24" viewBox="0 0 24 24"><path d="m8.67,12c0-1.84,1.49-3.33,3.33-3.33s3.33,1.49,3.33,3.33-1.49,3.33-3.33,3.33-3.33-1.49-3.33-3.33Zm-1.8,0c0,2.84,2.3,5.13,5.14,5.13s5.14-2.3,5.14-5.13-2.3-5.13-5.14-5.13-5.14,2.3-5.14,5.13Zm9.27-5.34c0,.24.07.47.2.67.13.2.32.35.54.44.22.09.46.11.69.07.23-.05.45-.16.61-.33.17-.17.28-.38.33-.61.05-.23.02-.47-.07-.69-.09-.22-.24-.41-.44-.54-.2-.13-.43-.2-.67-.2h0c-.32,0-.62.13-.85.35-.23.22-.35.53-.35.85Zm-8.18,13.48c-.97-.04-1.5-.21-1.86-.34-.47-.18-.8-.4-1.15-.75-.35-.35-.57-.68-.75-1.15-.14-.35-.3-.88-.34-1.86-.05-1.05-.06-1.37-.06-4.04s.01-2.99.06-4.04c.04-.97.21-1.5.34-1.86.18-.47.4-.8.75-1.15.35-.35.68-.57,1.15-.75.35-.14.88-.3,1.86-.34,1.05-.05,1.37-.06,4.04-.06s2.99.01,4.04.06c.97.04,1.5.21,1.86.34.47.18.8.4,1.15.75.35.35.57.68.75,1.15.14.35.3.88.34,1.86.05,1.05.06,1.37.06,4.04s0,2.99-.06,4.04c-.04.97-.21,1.5-.34,1.86-.18.47-.4.8-.75,1.15-.35.35-.68.57-1.15.75-.35.14-.88.3-1.86.34-1.05.05-1.37.06-4.04.06s-2.99,0-4.04-.06Zm-.08-18.08c-1.06.05-1.79.22-2.43.46-.66.26-1.21.6-1.77,1.15-.56.56-.9,1.11-1.15,1.77-.25.64-.42,1.36-.46,2.43-.05,1.07-.06,1.41-.06,4.12s.01,3.06.06,4.12c.05,1.06.22,1.79.46,2.43.26.66.6,1.22,1.15,1.77.56.56,1.11.9,1.77,1.15.64.25,1.36.42,2.43.46,1.07.05,1.41.06,4.12.06s3.06-.01,4.12-.06c1.06-.05,1.79-.22,2.43-.46.66-.26,1.21-.6,1.77-1.15.56-.56.9-1.11,1.15-1.77.25-.64.42-1.36.46-2.43.05-1.07.06-1.41.06-4.12s-.01-3.06-.06-4.12c-.05-1.06-.22-1.79-.46-2.43-.26-.66-.6-1.21-1.15-1.77-.56-.56-1.11-.9-1.77-1.15-.64-.25-1.36-.42-2.43-.46-1.07-.05-1.41-.06-4.12-.06s-3.06.01-4.12.06Z"/></svg>