<svg xmlns="http://www.w3.org/2000/svg" width="24" height="24" viewBox="0 0 24 24"><path d="m12,3.48C7.3,3.48,3.48,7.3,3.48,12s3.81,8.52,8.52,8.52,8.52-3.81,8.52-8.52S16.7,3.48,12,3.48ZM1.5,12C1.5,6.2,6.2,1.5,12,1.5s10.5,4.7,10.5,10.5-4.7,10.5-10.5,10.5S1.5,17.8,1.5,12Zm6.23-4.24c.39-.39,1.01-.39,1.4,0l7.13,7.1c.39.39.39,1.01,0,1.4-.39.39-1.01.39-1.4,0l-7.13-7.1c-.39-.39-.39-1.01,0-1.4Zm7.24.23c.55,0,.99.44.99.99v.04c0,.55-.44.99-.99.99s-.99-.44-.99-.99v-.04c0-.55.44-.99.99-.99Zm-5.94,5.99c.55,0,.99.44.99.99v.04c0,.55-.44.99-.99.99s-.99-.44-.99-.99v-.04c0-.55.44-.99.99-.99Z" fill-rule="evenodd"/></svg>