<svg xmlns="http://www.w3.org/2000/svg" width="24" height="24" viewBox="0 0 24 24"><path d="m9,7.5c.2,0,.39.08.53.22.14.14.22.33.22.53v10.5c0,.2-.08.39-.22.53-.14.14-.33.22-.53.22s-.39-.08-.53-.22c-.14-.14-.22-.33-.22-.53v-10.5c0-.2.08-.39.22-.53.14-.14.33-.22.53-.22Zm3,0c.2,0,.39.08.53.22.14.14.22.33.22.53v10.5c0,.2-.08.39-.22.53-.14.14-.33.22-.53.22s-.39-.08-.53-.22c-.14-.14-.22-.33-.22-.53v-10.5c0-.2.08-.39.22-.53.14-.14.33-.22.53-.22Zm3,0c.2,0,.39.08.53.22.14.14.22.33.22.53v10.5c0,.2-.08.39-.22.53-.14.14-.33.22-.53.22s-.39-.08-.53-.22c-.14-.14-.22-.33-.22-.53v-10.5c0-.2.08-.39.22-.53.14-.14.33-.22.53-.22Z"/><path d="m9.75,0c-.2,0-.39.08-.53.22-.14.14-.22.33-.22.53v3.75h-1.5c-.8,0-1.56.32-2.12.88s-.88,1.33-.88,2.12v12c0,.54.14,1.06.42,1.52.27.46.66.84,1.13,1.1-.06.22-.06.45-.01.68.05.22.14.43.28.62.14.18.32.33.52.43.21.1.43.15.66.15.4,0,.78-.16,1.06-.44.28-.28.44-.66.44-1.06h6c0,.21.05.42.13.62.09.19.22.37.38.51.16.14.35.25.55.31.2.06.42.08.63.05.21-.03.41-.1.59-.21s.34-.26.46-.44c.12-.18.2-.37.24-.58.04-.21.03-.42-.02-.63.47-.26.86-.64,1.13-1.1.27-.46.42-.99.42-1.52V7.5c0-.8-.32-1.56-.88-2.12-.56-.56-1.33-.88-2.12-.88h-1.5V.75c0-.2-.08-.39-.22-.53-.14-.14-.33-.22-.53-.22h-4.5Zm3.75,4.5h-3V1.5h3v3Zm4.5,15c0,.4-.16.78-.44,1.06-.28.28-.66.44-1.06.44H7.5c-.4,0-.78-.16-1.06-.44-.28-.28-.44-.66-.44-1.06V7.5c0-.4.16-.78.44-1.06.28-.28.66-.44,1.06-.44h9c.4,0,.78.16,1.06.44.28.28.44.66.44,1.06v12Z"/></svg>