<svg xmlns="http://www.w3.org/2000/svg" width="24" height="24" viewBox="0 0 24 24"><path d="m12,3.23c-3.6,0-6.51,2.92-6.51,6.51,0,1.02.39,2.21,1.06,3.47.66,1.25,1.56,2.5,2.47,3.62.91,1.12,1.83,2.08,2.52,2.77.17.17.33.32.47.46.14-.13.3-.29.47-.46.69-.69,1.6-1.65,2.52-2.77.92-1.12,1.81-2.37,2.47-3.62.67-1.26,1.06-2.45,1.06-3.47,0-3.6-2.92-6.51-6.51-6.51Zm0,18.2q-.66.75-.66.75h0s0,0,0,0l-.02-.02s-.04-.03-.07-.06c-.06-.05-.14-.13-.25-.23-.21-.2-.51-.49-.87-.85-.72-.72-1.68-1.74-2.65-2.92-.96-1.18-1.95-2.54-2.69-3.95-.74-1.4-1.29-2.92-1.29-4.41C3.49,5.04,7.3,1.23,12,1.23s8.51,3.81,8.51,8.51c0,1.49-.55,3.01-1.29,4.41-.75,1.41-1.73,2.77-2.69,3.95-.97,1.18-1.93,2.2-2.65,2.92-.36.36-.66.65-.87.85-.11.1-.19.18-.25.23-.03.03-.05.05-.07.06l-.02.02h0s0,0,0,0t-.67-.75Zm0,0l.66.75-.66.59-.66-.59.66-.75Zm0-13.4c-.77,0-1.4.63-1.4,1.4s.63,1.4,1.4,1.4,1.4-.63,1.4-1.4-.63-1.4-1.4-1.4Zm-3.4,1.4c0-1.88,1.52-3.4,3.4-3.4s3.4,1.52,3.4,3.4-1.52,3.4-3.4,3.4-3.4-1.52-3.4-3.4Z" fill-rule="evenodd"/></svg>