<svg xmlns="http://www.w3.org/2000/svg" width="24" height="24" viewBox="0 0 24 24"><path d="m12,2c5.52,0,10,4.48,10,10s-4.48,10-10,10c-2.33,0-4.59-.81-6.38-2.3l-.24-.21.9-1.9c1.29,1.32,2.99,2.15,4.83,2.36,1.83.21,3.68-.22,5.23-1.22,1.55-1,2.71-2.5,3.28-4.26.57-1.75.52-3.65-.15-5.37-.67-1.72-1.91-3.15-3.52-4.06-1.61-.91-3.47-1.23-5.29-.92-1.82.31-3.47,1.24-4.68,2.63-1.21,1.39-1.9,3.16-1.96,5v.25s2.5,0,2.5,0l-2.71,5.72c-1.17-1.68-1.8-3.67-1.79-5.72C2,6.48,6.48,2,12,2Zm1,4v2h2.5v2h-5.5c-.12,0-.25.05-.34.13-.09.08-.15.2-.16.32-.01.12.02.25.1.35.08.1.19.17.31.19h.09s4,0,4,0c.66,0,1.3.26,1.77.73.47.47.73,1.1.73,1.77s-.26,1.3-.73,1.77c-.47.47-1.1.73-1.77.73h-1v2h-2v-2h-2.5v-2h5.5c.12,0,.25-.05.34-.13.09-.08.15-.2.16-.32.01-.12-.02-.25-.1-.35-.08-.1-.19-.17-.31-.19h-.09s-4,0-4,0c-.66,0-1.3-.26-1.77-.73-.47-.47-.73-1.1-.73-1.77s.26-1.3.73-1.77c.47-.47,1.1-.73,1.77-.73h1v-2h2Z"/></svg>