<svg xmlns="http://www.w3.org/2000/svg" width="24" height="24" viewBox="0 0 24 24"><path d="m4.22,22c-.31,0-.58-.11-.79-.32-.21-.21-.32-.48-.32-.79v-3.33c0-.61.22-1.13.65-1.57.44-.43.96-.65,1.57-.65h13.33c.61,0,1.13.22,1.57.65s.65.96.65,1.57v3.33c0,.31-.11.58-.32.79s-.48.32-.79.32c-.31,0-.58-.11-.79-.32-.21-.21-.32-.48-.32-.79v-3.33H5.33v3.33c0,.31-.11.58-.32.79-.21.21-.48.32-.79.32Zm-.56-7.78c-.46,0-.86-.16-1.18-.49-.32-.32-.49-.72-.49-1.18,0-.46.16-.86.49-1.18.32-.32.72-.49,1.18-.49.46,0,.86.16,1.18.49.32.32.49.72.49,1.18,0,.46-.16.86-.49,1.18-.32.32-.72.49-1.18.49Zm2.78,0V4.22c0-.61.22-1.13.65-1.57.44-.43.96-.65,1.57-.65h6.67c.61,0,1.13.22,1.57.65.44.44.65.96.65,1.57v10H6.44Zm13.89,0c-.46,0-.86-.16-1.18-.49s-.49-.72-.49-1.18c0-.46.16-.86.49-1.18.32-.32.72-.49,1.18-.49.46,0,.86.16,1.18.49.32.32.49.72.49,1.18,0,.46-.16.86-.49,1.18-.32.32-.72.49-1.18.49Zm-11.67-2.22h6.67v-7.78h-6.67v7.78Z"/></svg>