<svg xmlns="http://www.w3.org/2000/svg" width="24" height="24" viewBox="0 0 24 24"><path d="m11.93,7.85c-2.37,0-4.29,1.89-4.29,4.22s1.93,4.22,4.29,4.22,4.29-1.89,4.29-4.22-1.93-4.22-4.29-4.22Zm0,6.51c-1.3,0-2.37-1.03-2.37-2.29s1.06-2.29,2.37-2.29,2.37,1.03,2.37,2.29-1.06,2.29-2.37,2.29Z"/><path d="m22.49,12.13l-1.44-1.56h0c-.09-.1-.15-.21-.18-.32-.03-.11-.02-.21,0-.31l.62-2c.19-.62.06-1.3-.35-1.8l-1.07-1.3c-.4-.48-1-.74-1.63-.7l-2.14.16c-.12.01-.25-.01-.36-.07-.11-.05-.21-.13-.28-.23l-1.21-1.73c-.36-.51-.95-.82-1.58-.82h-1.74c-.63,0-1.22.31-1.58.83l-1.22,1.76c-.07.09-.15.16-.26.21-.14.06-.29.06-.36.05h0s-2.17-.14-2.17-.14c-.62-.03-1.22.22-1.61.7l-1.1,1.34c-.42.51-.55,1.19-.34,1.82l.63,1.94c.03.12.04.24.01.36-.03.12-.08.22-.16.3h0s-1.43,1.54-1.43,1.54c-.44.48-.61,1.14-.46,1.77l.39,1.61c.15.63.6,1.13,1.21,1.36l1.96.72c.11.04.21.11.28.2h0l.02.03c.07.09.11.19.13.3l.34,2.06c.1.63.51,1.17,1.09,1.44l1.57.73c.56.26,1.21.23,1.75-.07l1.85-1.03c.11-.06.23-.09.35-.09.09.01.13,0,.19.02.06.02.12.04.18.07h0s1.93,1.05,1.93,1.05c.29.15.6.23.92.23.28,0,.57-.06.83-.19l1.56-.75c.58-.28.98-.82,1.08-1.45l.3-2c.02-.11.07-.22.14-.31.07-.09.17-.16.29-.21l1.99-.78c.59-.23,1.03-.74,1.18-1.37l.37-1.63c.14-.62-.03-1.27-.46-1.74Zm-1.79,2.94l-1.99.78c-.42.17-.8.44-1.08.79-.29.36-.48.78-.55,1.24h0s-.3,2-.3,2l-1.56.75-1.93-1.04c-.4-.22-.88-.35-1.3-.34h0s0,0,0,0c-.27,0-.54.04-.79.12-.17.05-.34.13-.5.22l-1.84,1.03-1.57-.73-.33-2.06c-.07-.45-.26-.87-.56-1.23-.02-.02-.04-.04-.05-.06-.28-.32-.64-.57-1.05-.72l-1.97-.72-.39-1.61,1.43-1.54c.31-.33.53-.75.63-1.2,0,0,0,0,0,0h0s0,0,0,0c.1-.45.08-.92-.06-1.35h0s-.63-1.96-.63-1.96l1.1-1.34,2.16.14c.5.04.97-.06,1.39-.27.38-.19.7-.46.95-.81h0s1.23-1.76,1.23-1.76h1.74l1.21,1.73c.26.37.62.67,1.03.87.41.19.86.28,1.32.25l2.14-.16,1.07,1.3-.62,2c-.13.44-.15.9-.04,1.35,0,0,0,0,0,0,.06.23.15.46.27.66.1.18.23.35.38.51l1.44,1.56-.37,1.63Z"/></svg>