<svg xmlns="http://www.w3.org/2000/svg" width="32" height="32" viewBox="0 0 32 32"><path d="m28.99,6.99H5.47l3.14-3.14c.4-.4.4-1.04,0-1.43s-1.04-.4-1.43,0L2.3,7.28c-.09.09-.17.21-.22.33-.1.25-.1.53,0,.78.05.12.13.24.22.33l4.87,4.87c.2.2.46.3.72.3s.52-.1.72-.3c.4-.4.4-1.04,0-1.43l-3.14-3.14h23.52c.56,0,1.01-.45,1.01-1.01s-.45-1.01-1.01-1.01h0Z"/><path d="m29.92,24.39c.1-.25.1-.53,0-.77-.05-.12-.13-.24-.22-.33l-4.87-4.87c-.4-.4-1.04-.4-1.43,0s-.4,1.04,0,1.43l3.14,3.14H3.01c-.56,0-1.01.45-1.01,1.01s.45,1.01,1.01,1.01h23.52l-3.14,3.14c-.4.4-.4,1.04,0,1.43.2.2.46.3.72.3s.52-.1.72-.3l4.87-4.87c.09-.09.17-.21.22-.33h0Z"/></svg>