<svg xmlns="http://www.w3.org/2000/svg" width="24" height="24" viewBox="0 0 24 24"><path d="m16.72,22.5h-.27c-1.53-.1-2.89-.67-3.91-1.15-2.7-1.31-5.06-3.15-7.02-5.49-1.62-1.95-2.71-3.76-3.44-5.72-.47-1.26-.65-2.27-.57-3.26.07-.76.37-1.42.91-1.96l1.55-1.54c.87-.82,1.96-.79,2.75,0,.28.26.55.54.84.84l1.66,1.66c.43.43.65.9.65,1.4s-.22.97-.65,1.4l-.5.5q-.18.18-.23.21s-.05.04-.16.13h0c.27.67.68,1.33,1.32,2.14,1.18,1.45,2.42,2.58,3.79,3.44.16.1.32.18.47.25.19.1.37.19.53.28l.86-.91c.84-.84,2.01-.8,2.77.02l2.48,2.47c.71.71.55,1.82.2,2.55-.05.1-.12.2-.2.28-.43.42-1.18,1.18-1.37,1.39-.68.73-1.48,1.07-2.46,1.07h0ZM5.37,4.78l-1.53,1.52c-.21.21-.31.43-.34.73-.06.68.08,1.42.45,2.4.65,1.74,1.63,3.37,3.1,5.14,1.78,2.12,3.92,3.79,6.36,4.98.85.41,1.99.89,3.17.96h.15c.43,0,.71-.11.98-.4.22-.26.98-1.01,1.31-1.34.03-.09.05-.17.06-.24l-2.39-2.38-.86.86c-.5.5-1.03.6-1.39.6-.3,0-.6-.07-.89-.22-.03-.01-.09-.05-.12-.07-.12-.07-.25-.14-.38-.2-.21-.1-.43-.22-.64-.35-1.55-.98-2.95-2.24-4.27-3.87-.77-.97-1.26-1.78-1.62-2.64,0-.03-.03-.09-.04-.12-.3-.96.08-1.62.47-2.01.03-.03.06-.06.1-.09.18-.16.24-.21.27-.23l.14-.15.4-.4h0l-1.68-1.69c-.26-.27-.52-.53-.78-.78h0s-.03,0-.03,0Zm14.48,14.55h0Zm0,0h0Zm-.7-.71h0Zm-2.58-2.59h0Zm1.04-3.91c-.47,0-.89-.34-.98-.82-.17-.98-.64-1.88-1.35-2.59-.72-.72-1.61-1.18-2.59-1.34-.54-.09-.9-.6-.81-1.14.09-.54.61-.9,1.14-.81,1.39.23,2.66.89,3.67,1.9,1.01,1,1.66,2.27,1.9,3.66.09.54-.27,1.05-.81,1.14-.06,0-.11.01-.17.01h0Zm3.89-.19c-.47,0-.89-.34-.98-.82-.32-1.91-1.23-3.65-2.61-5.03-1.39-1.38-3.13-2.29-5.03-2.61-.54-.09-.9-.6-.81-1.14.09-.54.6-.91,1.14-.81,2.31.39,4.42,1.48,6.1,3.16,1.68,1.67,2.77,3.78,3.17,6.1.09.54-.27,1.05-.81,1.14-.06,0-.11.01-.17.01Z"/></svg>
