<svg xmlns="http://www.w3.org/2000/svg" width="24" height="24" viewBox="0 0 24 24"><path d="m22.77,10.17c-.15.15-.35.23-.56.23-.42,0-.82.17-1.11.47-.29.3-.46.71-.46,1.13s.17.83.46,1.13c.29.3.69.47,1.11.47.21,0,.41.08.56.23.15.15.23.35.23.57v4c0,.42-.17.83-.46,1.13-.29.3-.69.47-1.11.47H2.57c-.42,0-.82-.17-1.11-.47-.29-.3-.46-.71-.46-1.13v-4c0-.21.08-.42.23-.57.15-.15.35-.23.56-.23.42,0,.82-.17,1.11-.47.29-.3.46-.71.46-1.13s-.17-.83-.46-1.13c-.29-.3-.69-.47-1.11-.47-.21,0-.41-.08-.56-.23-.15-.15-.23-.35-.23-.57v-4c0-.42.17-.83.46-1.13.29-.3.69-.47,1.11-.47h18.86c.42,0,.82.17,1.11.47.29.3.46.71.46,1.13v4c0,.21-.08.42-.23.57Zm-1.34,8.23v-3.3c-.67-.18-1.27-.58-1.69-1.14s-.66-1.25-.66-1.96.23-1.4.66-1.96c.42-.56,1.02-.96,1.69-1.14v-3.3h-5.5v2.4h-1.57v-2.4H2.57v3.3c.67.18,1.27.58,1.69,1.14.42.56.66,1.25.66,1.96s-.23,1.4-.66,1.96c-.42.56-1.02.96-1.69,1.14v3.3h11.79v-2.4h1.57v2.4h5.5Zm-5.5-8.8h-1.57v4.8h1.57v-4.8Z" fill-rule="evenodd"/></svg>