<svg xmlns="http://www.w3.org/2000/svg" width="32" height="32" viewBox="0 0 32 32"><path d="m24.64,0H7.39c-1.3,0-2.55.48-3.48,1.34-.92.86-1.44,2.02-1.44,3.23v18.29c0,1.21.52,2.38,1.44,3.23.92.86,2.18,1.34,3.48,1.34h1.23l-2.22,2.74c-.1.12-.17.26-.21.4-.04.15-.05.3-.03.45.02.15.08.29.16.42s.19.24.32.33.28.16.43.19c.16.04.32.05.48.02.16-.02.31-.07.45-.15.14-.08.26-.18.36-.3l3.32-4.11h8.62l3.32,4.11c.2.24.49.4.81.45.32.04.65-.04.91-.22.26-.18.43-.45.48-.75s-.04-.6-.23-.85l-2.22-2.74h1.23c1.31,0,2.56-.48,3.48-1.34s1.44-2.02,1.44-3.23V4.57c0-1.21-.52-2.38-1.44-3.23-.9-.86-2.15-1.34-3.45-1.34ZM4.93,13.71v-5.71h9.85v5.71H4.93Zm12.31-5.71h9.85v5.71h-9.85v-5.71ZM7.39,2.29h17.23c.65,0,1.28.24,1.74.67s.72,1.01.72,1.62v1.14H4.93v-1.14c0-.61.26-1.19.72-1.62.46-.43,1.09-.67,1.74-.67Zm17.23,22.86H7.39c-.65,0-1.28-.24-1.74-.67s-.72-1.01-.72-1.62v-6.86h22.15v6.86c0,.61-.26,1.19-.72,1.62s-1.09.67-1.74.67Zm-13.54-4c0,.34-.11.67-.31.95-.2.28-.49.5-.83.63s-.71.16-1.07.1c-.36-.07-.69-.23-.95-.47s-.43-.55-.51-.88c-.07-.33-.03-.68.11-.99.14-.31.38-.58.68-.77s.66-.29,1.03-.29c.49,0,.96.18,1.31.5s.54.76.54,1.21h0Zm13.54,0c0,.34-.11.67-.31.95-.2.28-.49.5-.83.63s-.71.16-1.07.1c-.36-.07-.69-.23-.95-.47s-.43-.55-.51-.88c-.07-.33-.03-.68.11-.99.14-.31.38-.58.68-.77.3-.19.66-.29,1.03-.29.49,0,.96.18,1.31.5s.54.76.54,1.21h0Z"/></svg>