<svg xmlns="http://www.w3.org/2000/svg" width="24" height="24" viewBox="0 0 24 24"><path d="m18.36.18H5.64c-.96,0-1.89.36-2.57.99-.68.63-1.07,1.49-1.07,2.39v13.51c0,.9.38,1.75,1.07,2.39.68.63,1.61.99,2.57.99h.91l-1.64,2.03c-.07.09-.12.19-.15.3-.03.11-.04.22-.02.33.02.11.06.22.12.31.06.1.14.18.24.25.1.07.2.11.32.14.12.03.24.03.35.02.12-.02.23-.05.33-.11.1-.06.19-.13.26-.22l2.45-3.04h6.36l2.45,3.04c.14.18.36.3.6.33.24.03.48-.03.67-.16.19-.13.32-.33.35-.56.03-.22-.03-.45-.17-.63l-1.64-2.03h.91c.96,0,1.89-.36,2.57-.99.68-.63,1.07-1.49,1.07-2.39V3.56c0-.9-.38-1.75-1.07-2.39-.68-.63-1.61-.99-2.57-.99ZM3.82,10.31v-4.22h7.27v4.22H3.82Zm9.09-4.22h7.27v4.22h-7.27v-4.22ZM5.64,1.87h12.73c.48,0,.94.18,1.29.49.34.32.53.75.53,1.19v.84H3.82v-.84c0-.45.19-.88.53-1.19.34-.32.8-.49,1.29-.49Zm12.73,16.88H5.64c-.48,0-.94-.18-1.29-.49-.34-.32-.53-.75-.53-1.19v-5.06h16.36v5.06c0,.45-.19.88-.53,1.19-.34.32-.8.49-1.29.49Zm-10-2.95c0,.25-.08.5-.23.7-.15.21-.36.37-.61.47-.25.1-.52.12-.79.07-.26-.05-.51-.17-.7-.35-.19-.18-.32-.4-.37-.65-.05-.25-.03-.5.08-.73.1-.23.28-.43.5-.57.22-.14.49-.21.76-.21.36,0,.71.13.96.37.26.24.4.56.4.9Zm10,0c0,.25-.08.5-.23.7-.15.21-.36.37-.61.47s-.52.12-.79.07c-.26-.05-.51-.17-.7-.35-.19-.18-.32-.4-.37-.65-.05-.25-.03-.5.08-.73.1-.23.28-.43.5-.57.22-.14.49-.21.76-.21.36,0,.71.13.96.37.26.24.4.56.4.9Z"/></svg>