<svg xmlns="http://www.w3.org/2000/svg" width="32" height="32" viewBox="0 0 32 32"><path d="m20.65,1.91c.1.09.18.19.24.31.06.12.1.24.11.38.01.13,0,.26-.05.39-.04.12-.11.24-.19.34l-3.16,3.68h3.8c1.82,0,3.29,0,4.45.16,1.2.16,2.21.51,3.01,1.31.8.8,1.15,1.81,1.31,3.01.15,1.16.15,2.63.15,4.45v5.48c0,1.82,0,3.29-.15,4.45-.16,1.2-.51,2.21-1.31,3.01s-1.81,1.15-3.01,1.31c-1.16.15-2.63.15-4.45.15h-10.81c-1.82,0-3.29,0-4.45-.15-1.2-.16-2.21-.51-3.01-1.31-.8-.8-1.15-1.81-1.31-3.01-.16-1.16-.16-2.63-.16-4.45v-5.48c0-1.82,0-3.29.16-4.45.16-1.2.51-2.21,1.31-3.01.8-.8,1.81-1.15,3.01-1.31,1.16-.16,2.63-.16,4.45-.16h3.8l-3.16-3.68c-.09-.1-.16-.21-.2-.34-.04-.13-.06-.26-.06-.39,0-.13.04-.26.1-.38.06-.12.14-.23.24-.31s.22-.15.35-.19c.13-.04.26-.06.4-.04.13.01.26.05.38.12.12.06.22.15.31.25l3.24,3.78,3.24-3.78c.09-.1.19-.18.31-.24.12-.06.24-.1.38-.11s.26,0,.39.05c.12.04.24.11.34.19m1.68,7.09v19.33c1.39,0,2.43-.03,3.26-.14.98-.13,1.5-.37,1.87-.74.37-.37.61-.89.74-1.87.13-1.01.14-2.34.14-4.25v-5.33c0-1.91,0-3.25-.14-4.26-.13-.98-.37-1.5-.74-1.87-.37-.37-.89-.61-1.87-.74-.82-.11-1.86-.13-3.25-.14Zm-2,19.33V9h-9.67c-1.91,0-3.25,0-4.26.14-.98.13-1.5.37-1.87.74-.37.37-.61.89-.74,1.87-.13,1.01-.14,2.34-.14,4.25v5.33c0,1.91,0,3.25.14,4.26.13.98.37,1.5.74,1.87.37.37.89.61,1.87.74,1.01.13,2.34.14,4.25.14h9.67Z" fill-rule="evenodd"/><path d="m26.67,21.33c0-.35-.14-.69-.39-.94-.25-.25-.59-.39-.94-.39s-.69.14-.94.39c-.25.25-.39.59-.39.94s.14.69.39.94c.25.25.59.39.94.39s.69-.14.94-.39c.25-.25.39-.59.39-.94Zm0-5.33c0-.35-.14-.69-.39-.94-.25-.25-.59-.39-.94-.39s-.69.14-.94.39c-.25.25-.39.59-.39.94s.14.69.39.94c.25.25.59.39.94.39s.69-.14.94-.39c.25-.25.39-.59.39-.94Z"/></svg>