<svg xmlns="http://www.w3.org/2000/svg" width="24" height="24" viewBox="0 0 24 24"><path d="m12,5.34c-1.47,0-2.66,1.19-2.66,2.66s1.19,2.66,2.66,2.66,2.66-1.19,2.66-2.66-1.19-2.66-2.66-2.66Zm-4.71,2.66c0-2.6,2.11-4.71,4.71-4.71s4.71,2.11,4.71,4.71-2.11,4.71-4.71,4.71-4.71-2.11-4.71-4.71Zm-5.14,11.15c1.61-2.69,5.01-4.31,9.85-4.31s8.24,1.62,9.85,4.31c.29.49.13,1.11-.35,1.41-.49.29-1.11.13-1.41-.35-1.1-1.84-3.66-3.32-8.1-3.32s-6.99,1.48-8.1,3.32c-.29.49-.92.64-1.41.35s-.64-.92-.35-1.41Z" fill-rule="evenodd"/></svg>