<svg xmlns="http://www.w3.org/2000/svg" width="32" height="32" viewBox="0 0 32 32"><path d="m16,30c-7.72,0-14-6.28-14-14S8.28,2,16,2s14,6.28,14,14-6.28,14-14,14Zm-7.31-4.53c2.02,1.56,4.56,2.5,7.31,2.5s5.48-1,7.53-2.67c-.95-1.09-2.49-2.41-3.01-2.46h-8.94c-.4.19-1.5,1.17-2.88,2.63h-.01Zm7.31-21.45c-6.6,0-11.97,5.37-11.97,11.97,0,3.12,1.2,5.97,3.16,8.1,3.07-3.29,3.91-3.29,4.28-3.29h9.05c1.45,0,3.38,1.87,4.46,3.09,1.86-2.11,2.99-4.88,2.99-7.9,0-6.6-5.37-11.97-11.97-11.97Zm0,13.06c-3.12,0-5.67-2.47-5.67-5.52s2.54-5.52,5.67-5.52,5.67,2.47,5.67,5.52-2.54,5.52-5.67,5.52Zm0-9c-2.01,0-3.64,1.56-3.64,3.49s1.63,3.49,3.64,3.49,3.64-1.56,3.64-3.49-1.63-3.49-3.64-3.49Z"/></svg>