<svg width="32" height="32" viewBox="0 0 32 32" xmlns="http://www.w3.org/2000/svg">
<path fill-rule="evenodd" clip-rule="evenodd" d="M29.1473 13.0054C21.8872 5.79894 10.1128 5.79894 2.85269 13.0054C2.42664 13.4283 1.73842 13.4257 1.31551 12.9997C0.89261 12.5736 0.895165 11.8854 1.32122 11.4625C9.429 3.41469 22.571 3.41469 30.6788 11.4625C31.1048 11.8854 31.1074 12.5736 30.6845 12.9997C30.2616 13.4257 29.5734 13.4283 29.1473 13.0054ZM24.4941 17.067C19.8044 12.412 12.1976 12.412 7.50783 17.067C7.08177 17.4899 6.39355 17.4873 5.97065 17.0613C5.54775 16.6352 5.5503 15.947 5.97636 15.5241C11.5137 10.0277 20.4883 10.0277 26.0256 15.5241C26.4517 15.947 26.4542 16.6352 26.0313 17.0613C25.6084 17.4873 24.9202 17.4899 24.4941 17.067ZM19.8647 21.6622C17.7317 19.545 14.2702 19.545 12.1373 21.6622C11.7112 22.0851 11.023 22.0825 10.6001 21.6565C10.1772 21.2304 10.1797 20.5422 10.6058 20.1193C13.5864 17.1607 18.4156 17.1607 21.3962 20.1193C21.8222 20.5422 21.8248 21.2304 21.4019 21.6565C20.979 22.0825 20.2908 22.0851 19.8647 21.6622ZM16.7996 24.6933C17.2225 25.1193 17.2199 25.8075 16.7939 26.2304L16.7667 26.2574C16.3407 26.6803 15.6525 26.6777 15.2295 26.2517C14.8066 25.8256 14.8092 25.1374 15.2353 24.7145L15.2624 24.6876C15.6884 24.2647 16.3767 24.2672 16.7996 24.6933Z"/>
</svg>
