<svg xmlns="http://www.w3.org/2000/svg" width="380" height="382" fill="none"><g clip-path="url(#a)"><path fill="#E6F7FE" d="M358.92 190.96a57.85 57.85 0 0 1-5.36-5.56 170.3 170.3 0 0 0-48.04-113.28V1.8h-27.09l-16.05 37.94a170.1 170.1 0 0 0-41.24-15.36 34.02 34.02 0 0 0-7.73-14C206.93 3.46 197.6 0 185.4 0c-12.19 0-21.52 3.46-28 10.38a33.46 33.46 0 0 0-7.34 12.72 170.04 170.04 0 0 0-30.02 8.67V1.8h-27.1L82.15 27.38 65.8 65.98A170.44 170.44 0 0 0 11.4 191c0 39.21 13.23 75.32 35.44 104.17-.28.3-.56.59-.82.89l-.37.44-.52-.68c-1.02-1.33-2.2-3.02-3.9-3.8-.96-.46-2.42-.58-3.38 0-1.37.81-2.33 2.06-3.37 3.16l-3.09 3.22c-1.12 1.17-1.39 2.75 0 3.89 1.16.94 3.62 1.17 4.74 0l2.8-2.93.55-.58.8 1.05c1.07 1.41 2.38 3.55 4.47 4.02 3 .67 4.55-1.93 5.88-3.62l.13-.15a172.2 172.2 0 0 0 23.52 23.35l-6.22 2.45a9.97 9.97 0 0 0-4.07 2.75 5.42 5.42 0 0 0-1.36 3.5 5.2 5.2 0 0 0 .31 1.7l.1.23c.09.2.18.39.29.58l.13.23a6.73 6.73 0 0 0 .53.75c.8.94 1.96 1.78 3.44 2.46.21.1.41.2.64.29l108.61 42.58c1.7.67 3.61 1 5.53 1.04l.32.01a16.67 16.67 0 0 0 5.85-1.05l16.32-6.4 24.48-9.6L297 338.37a10 10 0 0 0 4.08-2.75c.68-.81 1.1-1.7 1.28-2.6.06-.3.08-.6.08-.9 0-2.4-1.8-4.82-5.42-6.24l-6.22-2.45a172 172 0 0 0 23.64-23.5h22.6a6.7 6.7 0 0 0 5.87-3.38 6.7 6.7 0 0 0 0-6.76l-9.94-17.22a169.95 169.95 0 0 0 20.66-78.26l.56.53c1.21 1.1 3.5 1.01 4.74 0 1.34-1.09 1.22-2.77 0-3.88ZM281.14 51.24l-.67-.47.67-1.6v2.07Zm60.71 239.15c1 1.74 1 3.81 0 5.55a5.5 5.5 0 0 1-4.8 2.78h-21.63c1.4-1.73 2.78-3.48 4.12-5.26a3.25 3.25 0 0 0 3.78-5.26c3.21-4.63 6.2-9.42 8.96-14.37l9.57 16.56Z"/><path fill="url(#b)" d="M280.67 159.71h24.38v-28.65h11.74V108.5h-11.74V1.8h-27.1l-10.81 25.58-34.34 81.13v22.55h47.87v28.65Zm-25.06-51.2 24.84-58.82.22.34v58.48H255.6Z"/><path fill="url(#c)" d="M95.67 159.71h24.38v-28.65h11.74V108.5h-11.74V1.8h-27.1l-10.8 25.58L47.8 108.5v22.55h47.87v28.65Zm-25.06-51.2 24.84-58.82.22.34v58.48H70.6Z"/><path fill="url(#d)" d="m297 325.88-49.68-19.54-2.65-7.57-13.24-37.75-3.3-9.39-31.9-90.95-.07-.21c7.08-1.5 12.83-4.6 17.24-9.33 6.47-6.92 9.71-16.7 9.71-29.32V39.7c0-12.63-3.24-22.4-9.7-29.32C206.92 3.46 197.6 0 185.4 0s-21.53 3.46-28 10.38c-6.47 6.92-9.7 16.69-9.7 29.32v82.12a9.44 9.44 0 0 0 0 .24c.05 12.51 3.28 22.21 9.7 29.08 3.28 3.5 7.3 6.11 12.05 7.84l-7.32 20.74-2.98 8.46-5.97 16.91-19.71 55.88-2 5.67-4 11.35-2.56 7.22-7.5 21.25-49.36 19.42c-3.62 1.42-5.43 3.83-5.43 6.24a5.68 5.68 0 0 0 1.36 3.5 10 10 0 0 0 4.08 2.75l108.62 42.58c1.8.7 3.82 1.05 5.85 1.05 2.02 0 4.05-.35 5.84-1.05l40.8-16L297 338.37c7.24-2.84 7.25-9.64.01-12.5ZM172.55 38.12c0-10.37 4.3-15.56 12.87-15.56 8.58 0 12.87 5.19 12.87 15.56v85.27c0 10.38-4.29 15.57-12.87 15.57-8.58 0-12.87-5.19-12.87-15.57V38.12Z"/><path fill="url(#e)" d="m297 325.88-49.68-19.54-2.65-7.57-13.24-37.75-39.13-111.57a10.3 10.3 0 0 0-18.99-1.32l-.02.05a8.03 8.03 0 0 0-.08.16c0 .03-.02.05-.03.07l-.07.15-.02.04a.33.33 0 0 1-.05.12l-.02.07a1.6 1.6 0 0 0-.05.1l-.03.09-.04.1-.05.12-.03.09-.05.15-.02.07-.04.12-.02.08-.04.12-.02.07a3.2 3.2 0 0 0-.04.13l-.01.06-.05.2-10.39 29.43-8.95 25.37-19.71 55.88-6 17.02-10.05 28.47-49.37 19.42c-7.24 2.84-7.23 9.64.01 12.48l108.62 42.58a16.68 16.68 0 0 0 11.69 0l40.8-16L297 338.37c7.24-2.84 7.25-9.64.01-12.49Z"/><path fill="#52AFFB" d="m251.6 318.53-4.28-12.2-2.65-7.56c-11.87 6.75-35.02 11.34-61.67 11.4 4.75 12.34 11.27 23.85 20.09 33.67 28.96-2.7 50.05-10.99 50.05-20.78 0-1.55-.53-3.07-1.54-4.53Zm-50.07-52.26c5.91 13.8 11.72 22.25 15.42 21.25 3.49-.95 4.33-10.14 2.8-23.71 4.21-.8 8.12-1.75 11.68-2.8l-14.06-40.09c-2.1.37-4.26.7-6.48 1-5.33-18.16-11.64-33.32-17-41.56 2.83-.14 5.58-.34 8.29-.58.2-.09.44-.16.68-.21l-10.56-30.12a10.29 10.29 0 0 0-12.14-6.75c-1.75 12.58-3.6 25.18-5.18 37.8v.02c2.49.08 5 .12 7.56.12h.2c-1.03 8.65.8 24.57 5.16 43.04a237.08 237.08 0 0 1-16.67-.21c-.34 9.19-.33 18.4.2 27.6.3 5.2.74 10.48 1.36 15.79a228.5 228.5 0 0 0 28.74-.59Z"/><path fill="#0593FF" d="M174.98 180.5c1.58-12.62 3.43-25.22 5.18-37.8a10.31 10.31 0 0 0-7.07 5.9l-.05.12c0 .03-.02.04-.03.07a1.6 1.6 0 0 0-.04.1l-.03.09-.04.1-.05.12-.03.09-.05.15-.02.07-.04.12-.02.08-.04.12-.02.07-.04.13-.01.06-.05.2-10.39 29.43c4.13.39 8.43.64 12.84.79Zm-3.75 42.97c-8.47-.43-16.44-1.3-23.61-2.56l-14.14 40.06c10.5 3.12 24.14 5.24 39.31 5.89a261.9 261.9 0 0 1-1.37-15.78c-.52-9.22-.54-18.43-.2-27.61h.01Z"/><path fill="#F6FCFF" d="M219.75 263.8c-1.13-10.14-3.59-22.72-7.24-36.15-.53-1.94-1.07-3.85-1.62-5.73-5.33-18.16-11.64-33.33-17-41.56-3.07-4.71-5.82-7.15-7.9-6.59-1.71.47-2.79 2.9-3.26 6.87-1.03 8.65.8 24.57 5.16 43.04.77 3.25 1.62 6.58 2.54 9.97a255.21 255.21 0 0 0 11.1 32.62c5.9 13.8 11.72 22.25 15.42 21.25 3.49-.95 4.33-10.14 2.8-23.72Z"/><path fill="#0593FF" d="M183 310.16h-.47c-27 0-50.47-4.66-62.34-11.51l-2.76 7.81-4.7 13.32a7.38 7.38 0 0 0-.8 3.28c0 12 31.61 21.72 70.6 21.72 7.15 0 14.05-.33 20.56-.94-8.82-9.82-15.34-21.33-20.1-33.67Z"/><path fill="#E6F7FE" d="M193.9 180.36c-3.07-4.7-5.83-7.15-7.91-6.58-1.71.46-2.78 2.9-3.26 6.86 3.8 0 7.53-.1 11.16-.28Zm-6 43.32c.76 3.25 1.6 6.58 2.53 9.97a255.6 255.6 0 0 0 11.1 32.62c6.5-.56 12.63-1.4 18.22-2.46-1.13-10.15-3.59-22.73-7.24-36.16-.53-1.94-1.07-3.85-1.62-5.73a210.1 210.1 0 0 1-23 1.76Z"/><path fill="#6D6D6D" d="M95.72 258.8H64.35a6.7 6.7 0 0 1-5.87-3.38 6.7 6.7 0 0 1 0-6.77l15.69-27.15a6.7 6.7 0 0 1 5.86-3.38 6.7 6.7 0 0 1 5.87 3.38l15.69 27.15a6.7 6.7 0 0 1 0 6.77 6.7 6.7 0 0 1-5.87 3.38Zm-15.69-39.47c-2 0-3.8 1.04-4.8 2.78l-15.7 27.15a5.5 5.5 0 0 0 0 5.55 5.5 5.5 0 0 0 4.82 2.77h31.37c2 0 3.8-1.03 4.81-2.77 1-1.74 1-3.82 0-5.55L84.84 222.1a5.5 5.5 0 0 0-4.8-2.78Z"/><path fill="#6D6D6D" d="M80.03 252.88a3.25 3.25 0 1 0 0-6.5 3.25 3.25 0 0 0 0 6.5Zm.71-25.57h-1.42a2.32 2.32 0 0 0-2.31 2.44l.7 13.08a2.31 2.31 0 0 0 4.63 0l.72-13.08a2.32 2.32 0 0 0-2.32-2.44Zm256.3 72.63h-31.37a6.7 6.7 0 0 1-5.87-3.39 6.7 6.7 0 0 1 0-6.76l15.69-27.15a6.7 6.7 0 0 1 5.86-3.38 6.7 6.7 0 0 1 5.87 3.38l15.69 27.15a6.7 6.7 0 0 1 0 6.76 6.7 6.7 0 0 1-5.87 3.38Zm-15.69-39.47c-2 0-3.8 1.04-4.8 2.77l-15.7 27.15a5.5 5.5 0 0 0 0 5.55 5.5 5.5 0 0 0 4.82 2.78h31.37c2 0 3.8-1.04 4.81-2.78 1-1.74 1-3.81 0-5.55l-15.69-27.15a5.5 5.5 0 0 0-4.8-2.77Z"/><path fill="#6D6D6D" d="M324.6 290.77a3.25 3.25 0 1 1-6.5 0 3.25 3.25 0 0 1 6.5 0Zm-2.54-22.32h-1.42a2.31 2.31 0 0 0-2.31 2.44l.7 13.08a2.32 2.32 0 0 0 4.64 0l.7-13.08a2.32 2.32 0 0 0-2.3-2.44Zm36.86-77.49a57.46 57.46 0 0 1-5.84-6.13c-1.08-1.33-3.81-2.02-5.26-.56-1.2 1.2-2.4 2.42-3.5 3.68l-.37.44-.52-.68c-1.02-1.33-2.2-3.02-3.9-3.8-.96-.46-2.43-.58-3.38 0-1.38.81-2.33 2.06-3.38 3.16l-1.44 1.5a56.86 56.86 0 0 1-3.4-3.74c-1.08-1.32-3.8-2.01-5.26-.55a80.7 80.7 0 0 0-3.5 3.68l-.37.44-.52-.69c-1.02-1.32-2.2-3.02-3.9-3.8-.96-.45-2.42-.57-3.38 0-1.37.82-2.33 2.07-3.37 3.16l-3.09 3.23c-1.12 1.17-1.39 2.74 0 3.88 1.16.95 3.62 1.18 4.74 0l2.8-2.92.55-.58.8 1.05c1.07 1.41 2.38 3.55 4.47 4.02 3 .67 4.55-1.94 5.88-3.62.37-.46.77-.9 1.16-1.34 1.3 1.4 2.66 2.76 4.1 4.06 1.2 1.1 3.5 1.01 4.73 0 .22-.17.38-.37.52-.56l.13-.1 2.8-2.93.55-.58.8 1.05c1.07 1.41 2.38 3.55 4.47 4.02 3 .67 4.55-1.94 5.88-3.62.37-.46.77-.9 1.16-1.34 1.3 1.4 2.66 2.76 4.1 4.06 1.2 1.1 3.5 1.01 4.74 0 1.33-1.1 1.21-2.78 0-3.88ZM85.77 299.07a57.47 57.47 0 0 1-5.84-6.13c-1.09-1.33-3.82-2.02-5.27-.56a80.7 80.7 0 0 0-3.5 3.68l-.37.44-.52-.68c-1.02-1.33-2.2-3.02-3.9-3.8-.96-.46-2.42-.58-3.38 0-1.37.81-2.33 2.06-3.37 3.16l-1.45 1.5a57.13 57.13 0 0 1-3.39-3.74c-1.09-1.32-3.81-2.01-5.26-.55a87.3 87.3 0 0 0-3.5 3.68c-.14.14-.25.3-.37.44l-.53-.69c-1.01-1.32-2.19-3.02-3.89-3.8-.97-.45-2.43-.57-3.38 0-1.38.82-2.33 2.07-3.38 3.16l-3.09 3.23c-1.11 1.17-1.39 2.74 0 3.88 1.16.95 3.62 1.18 4.74 0l2.8-2.92.55-.58.8 1.05c1.07 1.41 2.38 3.55 4.47 4.02 3 .67 4.55-1.94 5.88-3.62.37-.46.77-.9 1.16-1.34 1.3 1.4 2.66 2.76 4.1 4.06 1.21 1.1 3.5 1.01 4.74 0 .2-.17.37-.37.51-.56l.13-.1 2.8-2.93.55-.58.8 1.05c1.07 1.41 2.38 3.55 4.48 4.02 3 .67 4.54-1.94 5.87-3.62.37-.46.77-.9 1.16-1.34 1.3 1.4 2.66 2.76 4.1 4.06 1.21 1.1 3.5 1.01 4.74 0 1.34-1.1 1.21-2.77 0-3.88Zm181.24-59.25a3.73 3.73 0 1 0 0-7.45 3.73 3.73 0 0 0 0 7.45Zm.82-29.36h-1.63a2.66 2.66 0 0 0-2.66 2.8l.82 15.02a2.66 2.66 0 0 0 5.31 0l.82-15.02a2.66 2.66 0 0 0-2.66-2.8ZM72.14 187.75a3.72 3.72 0 1 0-5.26-5.27 3.72 3.72 0 0 0 5.26 5.27Zm-1.82-28.28H68.7a2.66 2.66 0 0 0-2.65 2.8l.81 15.03a2.66 2.66 0 0 0 5.31 0l.82-15.03a2.66 2.66 0 0 0-2.66-2.8ZM29.6 52.4h-7.58v-7.57h-.6v7.58h-7.58V53h7.59v7.58h.59V53h7.59v-.6Zm342.36 270.15h-7.58v-7.58h-.6v7.58h-7.58v.6h7.59v7.57h.59v-7.58h7.58v-.59Zm-2.82-252.01c3.58 0 3.59-5.56 0-5.56s-3.59 5.56 0 5.56ZM2.69 273.82c3.58 0 3.58-5.56 0-5.56-3.59 0-3.59 5.56 0 5.56ZM5.06 84.6c1.8 0 1.8-2.78 0-2.78-1.79 0-1.79 2.78 0 2.78Zm373.6 192.58c1.79 0 1.79-2.78 0-2.78-1.8 0-1.8 2.78 0 2.78ZM88.35 371.1c1.79 0 1.8-2.78 0-2.78s-1.8 2.78 0 2.78ZM237.07 3.77c1.8 0 1.8-2.78 0-2.78s-1.8 2.78 0 2.78Z"/></g><defs><linearGradient id="b" x1="274.8" x2="274.8" y1="1.8" y2="159.71" gradientUnits="userSpaceOnUse"><stop stop-color="#FF6100"/><stop offset="1" stop-color="#FFCF1B"/></linearGradient><linearGradient id="c" x1="89.8" x2="89.8" y1="1.8" y2="159.71" gradientUnits="userSpaceOnUse"><stop stop-color="#FF6100"/><stop offset="1" stop-color="#FFCF1B"/></linearGradient><linearGradient id="d" x1="182.53" x2="182.53" y1="0" y2="163.94" gradientUnits="userSpaceOnUse"><stop stop-color="#FF6100"/><stop offset="1" stop-color="#FFCF1B"/></linearGradient><linearGradient id="e" x1="182.53" x2="182.53" y1="142.42" y2="396.37" gradientUnits="userSpaceOnUse"><stop offset=".46" stop-color="#0270CA"/><stop offset="1" stop-color="#20415B"/></linearGradient><clipPath id="a"><path fill="#fff" d="M0 0h380v382H0z"/></clipPath></defs></svg>