<svg xmlns="http://www.w3.org/2000/svg" width="80" height="42.17"><defs><mask id="a" width="80" height="80" x="0" y="-18.92" maskUnits="userSpaceOnUse"><path fill="#fff" d="M0-18.92h80v80H0v-80Z"/></mask></defs><g mask="url(#a)"><path fill="#0593ff" d="M0 22.54v10.03c0 1.03.84 1.87 1.87 1.87h72.48c1.03 0 1.87-.84 1.87-1.87v-8.22c0-.61-.03-1.21-.07-1.82H0Z"/><path fill="#ff6100" d="M60.5 18.69a3.4 3.4 0 0 0-2.12-.75H0v4.91h65.6l-5.11-4.16Z"/><path fill="#c0e4ff" d="M74.72 16.12 71.26 4.33H0v13.93h58.38c.77 0 1.52.26 2.12.75l5.87 4.71c.6.48 1.35.75 2.12.75h7.72v-.11c0-2.81-.51-5.6-1.5-8.23Z"/><path fill="#ff6100" d="M1.87 0C.84 0 0 .84 0 1.87v2.78h71.35l-.38-1.31A5.15 5.15 0 0 0 66.15 0H1.87Z"/><path fill="#0593ff" d="M54.76 18.26h3.61c.3 0 .6.04.89.12V4.65h-4.51v13.62Zm-15.01 0h4.51V4.65h-4.51v13.62Zm-15.02 0h4.51V4.65h-4.51v13.62Zm-15.01 0h4.51V4.65H9.72v13.62Z"/><path fill="#0270ca" d="M57.56 4.65h-2.8v13.62h2.8V4.65Zm-15.01 0h-2.8v13.62h2.8V4.65Zm-15.01 0h-2.8v13.62h2.8V4.65Zm-15.02 0h-2.8v13.62h2.8V4.65Zm65.16 8.77-1.55-4.85h-3.97c-.66 0-1.19-.53-1.19-1.19s.53-1.19 1.19-1.19H77c.52 0 .98.33 1.13.83l1.82 5.68c.2.63-.14 1.3-.77 1.5a1.2 1.2 0 0 1-1.5-.77Z"/><path d="M67.3 34.44a7.73 7.73 0 1 1-15.46 0 7.73 7.73 0 0 1 15.46 0Z"/><path fill="#20415b" d="M56.01 34.44A7.72 7.72 0 0 1 61.66 27a7.73 7.73 0 1 0 0 14.88 7.73 7.73 0 0 1-5.65-7.44Z" opacity=".7"/><path fill="#e6f7fe" d="M63.43 34.44a3.86 3.86 0 1 1-7.72 0 3.86 3.86 0 0 1 7.72 0Z"/><path d="M22.58 34.44a7.73 7.73 0 1 1-15.46 0 7.73 7.73 0 0 1 15.46 0Z"/><path fill="#20415b" d="M11.29 34.44A7.72 7.72 0 0 1 16.94 27a7.73 7.73 0 1 0 0 14.88 7.73 7.73 0 0 1-5.65-7.44Z" opacity=".7"/><path fill="#e6f7fe" d="M18.71 34.44a3.86 3.86 0 1 1-7.72 0 3.86 3.86 0 0 1 7.72 0Z"/></g></svg>